<?xml version="1.0" encoding="UTF-8" standalone="no"?>
<!-- (c) ammap.com | SVG map of Italy - Low -->

<svg
   xmlns:amcharts="http://amcharts.com/ammap"
   xmlns:dc="http://purl.org/dc/elements/1.1/"
   xmlns:cc="http://creativecommons.org/ns#"
   xmlns:rdf="http://www.w3.org/1999/02/22-rdf-syntax-ns#"
   xmlns:svg="http://www.w3.org/2000/svg"
   xmlns="http://www.w3.org/2000/svg"
   xmlns:sodipodi="http://sodipodi.sourceforge.net/DTD/sodipodi-0.dtd"
   xmlns:inkscape="http://www.inkscape.org/namespaces/inkscape"
   version="1.1"
   id="svg2"
   inkscape:version="0.91 r13725"
   sodipodi:docname="milan-map.svg"
   width="390"
   height="260"
   inkscape:export-filename="/home/guus/Pulse/Cirrus/o/educen/img/laquila-map.png"
   inkscape:export-xdpi="59"
   inkscape:export-ydpi="59">
  <metadata
     id="metadata36">
    <rdf:RDF>
      <cc:Work
         rdf:about="">
        <dc:format>image/svg+xml</dc:format>
        <dc:type
           rdf:resource="http://purl.org/dc/dcmitype/StillImage" />
        <dc:title></dc:title>
      </cc:Work>
    </rdf:RDF>
  </metadata>
  <sodipodi:namedview
     pagecolor="#ffffff"
     bordercolor="#666666"
     borderopacity="1"
     objecttolerance="10"
     gridtolerance="10"
     guidetolerance="10"
     inkscape:pageopacity="0"
     inkscape:pageshadow="2"
     inkscape:window-width="1366"
     inkscape:window-height="723"
     id="namedview34"
     showgrid="false"
     inkscape:zoom="4.0000001"
     inkscape:cx="158.81777"
     inkscape:cy="181.8996"
     inkscape:window-x="0"
     inkscape:window-y="24"
     inkscape:window-maximized="1"
     inkscape:current-layer="g8"
     fit-margin-top="0"
     fit-margin-left="0"
     fit-margin-right="0"
     fit-margin-bottom="0" />
  <defs
     id="defs4">
    <style
       type="text/css"
       id="style6">
			.land
			{
				fill: #CCCCCC;
				fill-opacity: 1;
				stroke:white;
				stroke-opacity: 1;
				stroke-width:0.5;
			}
		</style>
    <amcharts:ammap
       projection="mercator"
       leftLongitude="6.624181"
       topLatitude="47.087088"
       rightLongitude="18.517034"
       bottomLatitude="35.490552" />
    <!-- All areas are listed in the line below. You can use this list in your script. -->
    <!--{id:"VA"},{id:"SM"},{id:"FR-H"},{id:"MT"},{id:"IT_65"},{id:"IT-77"},{id:"IT-78"},{id:"IT-72"},{id:"IT-45"},{id:"IT-36"},{id:"IT-62"},{id:"IT-42"},{id:"IT-25"},{id:"IT-57"},{id:"IT-67"},{id:"IT-21"},{id:"IT-75"},{id:"IT-88"},{id:"IT-82"},{id:"IT-52"},{id:"IT-32"},{id:"IT-55"},{id:"IT-23"},{id:"IT-34"}-->
  </defs>
  <g
     id="g8"
     transform="translate(0.31307542,-459.31601)">
    <path
       id="VA"
       title="Vatican City"
       class="land"
       d="m 192.6152,593.66874 -0.0395,-0.0395 -0.0359,0.0108 -0.061,0.0144 -0.0574,0.0933 -0.0108,0.0215 0.0215,0.0287 0.0215,-0.007 0.0933,0.0215 0.0718,-0.0287 0.007,-0.0215 -0.0144,-0.0287 z"
       inkscape:connector-curvature="0"
       style="fill:#cccccc;fill-opacity:1;stroke:#cccccc;stroke-width:1.279;stroke-opacity:1;stroke-miterlimit:4;stroke-dasharray:none" />
    <path
       id="SM"
       title="San Marino"
       class="land"
       d="m 193.25407,543.34155 0,0 0.29432,-1.90584 -1.92379,0.90088 0.10049,1.29568 0,0 0.0144,0.0359 z"
       inkscape:connector-curvature="0"
       style="fill:#cccccc;fill-opacity:1;stroke:#cccccc;stroke-width:1.279;stroke-opacity:1;stroke-miterlimit:4;stroke-dasharray:none" />
    <path
       id="FR-H"
       title="Corsica,  France"
       class="land"
       d="m 136.77865,566.21526 0.74655,0.62811 0.54196,4.52952 -0.85422,3.34868 1.6223,3.33074 0.36251,10.265 -2.62368,4.19931 -0.41993,7.27882 -1.98122,1.25979 0.12204,0.75373 0.56349,-0.73937 0.91524,0.3302 -1.72998,1.49309 0.0861,1.61871 -1.14135,1.34235 0.79321,-0.10409 -1.46797,1.21314 -1.59,-0.7286 0.46659,-1.18442 -6.10516,-2.77083 0.061,-1.78741 2.25758,-1.52898 -2.42268,-0.20817 -0.12562,-1.01573 -2.13555,0.0215 2.07812,-1.75151 0.57427,-2.06376 -0.38045,-0.67476 -3.2123,0.71424 -0.27637,-1.76228 1.0265,-0.0861 0.21535,-1.08033 1.60436,-0.91883 -0.87217,-1.55052 -0.75013,0.29073 -1.87355,-1.11264 0.42711,-1.48233 -0.75372,-0.78602 2.84979,-0.72501 -1.66537,-0.96549 0.21894,-1.07674 -1.06239,0.42352 -0.28354,-0.89011 2.06376,-1.17725 0.45583,-1.33158 -0.57427,-0.24047 1.42131,-2.63803 1.1593,0.77526 0.24406,-1.21314 3.91936,-0.96548 2.01711,-2.25041 1.7874,-0.0933 1.41413,1.46078 0.84704,-1.47873 -0.64964,-2.42627 0.95472,-2.27553 -0.38763,-1.75151 1.5218,-0.44147 z"
       inkscape:connector-curvature="0"
       style="fill:#cccccc;fill-opacity:1;stroke:#cccccc;stroke-width:1.279;stroke-opacity:1;stroke-miterlimit:4;stroke-dasharray:none" />
    <path
       id="IT_65"
       title="Abruzzo"
       class="land"
       d="m 219.52313,569.22298 3.5425,8.26583 5.47347,4.97458 1.74792,2.58778 3.84758,1.98481 0.0754,1.74074 1.23108,0.87216 0,0 -5.40527,7.57672 -0.73219,-0.1328 -0.4953,-2.15349 -1.4572,-0.18664 -1.13418,-1.1916 -2.50523,2.02787 0.84345,1.96327 -1.34952,0.0538 -0.22612,0.94754 -0.69989,-0.71065 -0.89011,1.40336 -1.42489,-0.1651 0,0 -0.8937,-1.17366 -2.41192,-0.34815 -0.6281,-1.18801 -1.49668,-0.33738 -1.83406,1.23467 -1.98481,-1.65101 -1.1234,0.23688 -0.25842,-2.63085 -4.14189,-2.23246 -1.59,-0.0431 -0.50607,-0.80756 0.0538,-1.76587 1.0265,-0.50966 0.0179,-0.85781 2.97541,1.22032 2.44063,-1.33158 -4.17419,-4.3034 0.74655,-0.83628 -1.43208,-1.34234 1.14135,-0.86858 -0.3948,-1.5218 0.64246,-1.19878 1.89866,0.463 1.83406,-0.58503 0.27278,-1.23108 -1.127,-0.71784 0.19382,-0.60297 0,0 0,0 0,0 0,0 0,0 2.54112,-1.13059 0.67476,-1.94532 2.32219,0.28354 1.13058,-1.26697 3.54609,-0.95472 0,0 z"
       inkscape:connector-curvature="0"
       style="fill:#cccccc;fill-opacity:1;stroke:#cccccc;stroke-width:1.279;stroke-opacity:1;stroke-miterlimit:4;stroke-dasharray:none" />
    <path
       id="IT-77"
       title="Basilicata"
       class="land"
       d="m 249.37058,614.48587 0.3625,-0.88294 3.79016,0.19741 1.88789,-1.29569 3.09027,2.40833 -1.08752,1.97403 2.57702,1.39619 1.48591,-0.47018 1.05522,2.31859 2.63444,2.79596 1.79817,-1.29928 0.73219,0.88653 0.67117,-0.91883 1.64383,0.37327 1.04804,0.7968 -0.0467,5.64216 1.5541,0.56708 1.03727,1.77664 0,0 -3.96243,6.34204 0,0 -4.12394,-0.62451 -1.27775,5.89699 -1.48591,-0.92242 -1.0588,0.86499 -3.09385,0.0251 -0.7286,-1.4213 0.44505,-0.80039 -1.86277,-0.26201 -1.99557,0.0323 -1.18443,1.84124 0,0 -2.04941,-2.84621 0,0 2.93953,-5.51654 -4.94587,-5.29759 0.0251,-1.83406 -1.56129,-0.94395 0.87576,-1.37824 -2.12837,-1.38183 0.061,-1.74074 -0.95471,-0.90447 0.75372,-0.0538 -0.16869,-1.19161 1.71921,0.38763 1.20954,-1.00496 0.81115,-2.10684 z"
       inkscape:connector-curvature="0"
       style="fill:#cccccc;fill-opacity:1;stroke:#cccccc;stroke-width:1.279;stroke-opacity:1;stroke-miterlimit:4;stroke-dasharray:none" />
    <path
       id="IT-78"
       title="Calabria"
       class="land"
       d="m 253.27558,641.724 1.18802,-1.84124 1.99198,-0.0323 1.86277,0.26201 -0.44505,0.80039 0.7286,1.4213 3.09385,-0.0251 1.0588,-0.8614 1.48591,0.91883 1.27775,-5.8934 4.12394,0.62451 0,0 -0.80756,1.8197 0.48812,2.07813 -2.5483,3.75426 0.53479,3.12615 1.82329,1.08034 2.88568,0.0431 1.69409,1.91302 5.38373,3.30921 -0.84704,2.11042 0.69271,2.46217 -0.70347,2.3509 1.76227,1.94532 -2.06017,3.14769 -2.12838,-1.08392 -1.68331,0.26559 -5.19351,2.70982 -1.31005,2.3509 0.71783,6.64712 -2.02787,2.11043 -2.59855,1.09828 -2.87133,3.63223 -1.27415,4.16701 -1.80535,0.94754 -4.38595,-0.061 -2.30424,-2.32578 -0.007,-4.98893 3.07232,-1.14853 2.10325,-4.45415 0.26919,-1.74792 -1.90944,-1.70844 0.17228,-0.65323 2.78878,-1.77304 2.73135,0.079 1.57564,-3.00771 -0.10409,-1.83765 -2.19297,-2.53754 -1.85201,-9.61895 -2.26117,-2.72776 -1.08751,-2.90722 -1.09829,-5.94005 z"
       inkscape:connector-curvature="0"
       style="fill:#cccccc;fill-opacity:1;stroke:#cccccc;stroke-width:1.279;stroke-opacity:1;stroke-miterlimit:4;stroke-dasharray:none" />
    <path
       id="IT-72"
       title="Campania"
       class="land"
       d="m 225.14734,626.48443 0.72142,0.0861 -1.29927,0.47735 0.57785,-0.56349 z m -6.57175,-4.8346 1.58282,0.4307 -0.0574,1.01932 -1.83407,-0.15075 0.30867,-1.29927 z m 2.00993,-17.10952 1.18442,1.70126 1.23826,0.13639 -0.59221,-1.46797 0.78962,-1.44643 0.82192,0.68553 1.37823,-0.47018 6.60764,3.24101 1.14854,-1.0588 1.7192,-0.0251 0.61734,-1.03726 1.43925,0.61015 2.5842,-1.40336 0,0 1.67613,1.30287 -0.4953,2.42268 3.77938,2.03864 -1.29209,2.36526 0.8255,0.95471 2.13196,0.62093 0.61016,-0.463 2.60932,1.24185 0,0 0.49171,1.42489 -0.81115,2.10684 -1.20954,1.00496 -1.71921,-0.39122 0.16869,1.19519 -0.75372,0.0538 0.9583,0.90447 -0.061,1.74074 2.12837,1.38183 -0.87576,1.37824 1.56129,0.94394 -0.0215,1.83406 4.94228,5.2976 -2.93953,5.51654 0,0 -1.30645,-0.83986 -2.80672,2.0853 -2.73853,-0.72142 -0.007,-1.2598 -2.62009,-2.30783 -1.67972,0.0215 -2.27194,-1.59359 1.46438,-3.94807 -2.17144,-4.50799 -1.91303,-2.00993 -3.6394,1.42849 -1.71562,-0.3302 -2.89286,1.389 0.27995,-1.47155 2.57343,-1.63666 -0.38763,-1.13776 -3.37381,-2.41192 -1.61153,1.25262 -1.70485,-0.926 -0.0897,1.24543 -0.80756,-0.27277 -0.40199,-3.03284 -4.76999,-7.48699 0,0 2.37602,-1.81252 -0.55273,-2.93953 2.12837,-1.11622 z"
       inkscape:connector-curvature="0"
       style="fill:#cccccc;fill-opacity:1;stroke:#cccccc;stroke-width:1.279;stroke-opacity:1;stroke-miterlimit:4;stroke-dasharray:none" />
    <path
       id="IT-45"
       title="Emilia-Romagna"
       class="land"
       d="m 198.00253,541.99921 -0.33738,2.58778 -1.09828,1.10905 -1.04804,-0.12921 -0.47018,-1.389 -0.97625,0.40557 -0.81833,-1.24185 0,0 0.29432,-1.90584 -1.92379,0.90088 0.10049,1.2921 0,0 0,0 0,0 0.43429,0.79679 -1.41772,-0.0144 -1.36747,2.77442 0,0 -0.0144,-0.0108 0,0 -1.61871,0.89371 -0.55632,-0.8291 -1.64384,0.55273 -2.96823,-1.7874 -1.67255,-0.0754 -2.00275,-1.58282 0.0969,-1.09829 -1.31363,-1.76945 1.86637,-3.46713 -2.9144,0.2656 0.45223,-1.127 -1.73356,0.0754 -1.71921,-2.04583 -2.66674,2.07813 -1.43208,0.0503 1.10187,1.33516 -4.20649,0.14357 -0.47736,-1.11264 -1.74433,1.95968 -2.96465,-2.40115 -1.99916,-0.0467 -0.93318,1.07675 -1.9202,-2.72058 -3.45636,-1.67973 -0.85422,0.42711 -2.0207,-2.13555 -2.41191,-0.87216 -0.21176,-1.39618 -1.43208,-0.83269 -1.9202,0.21176 -2.516,2.67392 0,0 -1.47873,-1.90584 -3.03284,0.48454 1.0265,-1.69409 -0.1328,-1.97762 -1.44284,-1.01932 -0.87576,0.64246 -2.94311,-1.03727 0,0 0.16869,-1.7551 0,0 0.62811,-0.0395 -0.11486,-0.72501 0.47018,0.90088 1.1593,-0.30508 -0.72142,-2.03864 1.38183,-1.3926 -1.6223,-1.89507 0.23329,-0.95113 2.32937,-3.91577 1.57564,-0.48454 0.5635,0.66758 0.17945,-1.34952 0.83628,0.7286 0.6927,-0.87934 0.27278,1.34593 1.50027,0.64246 0.80397,-1.3567 1.09469,1.56128 0.3338,-1.15212 1.04085,0.40199 -0.33738,-0.98702 0.64605,-0.52402 0.12562,1.00497 1.35311,-0.76091 1.90585,2.78878 1.19519,-0.55991 3.65735,1.9884 0.87934,-0.48095 2.16786,1.84842 1.41413,-0.061 2.3509,-1.94532 0.34814,1.11981 2.60573,0.89729 3.3774,-1.27415 1.38901,0.78603 2.84979,-0.77526 2.23605,0.3302 0,0 0.0574,0.53479 2.04582,-0.1328 1.16648,1.17724 3.62146,-2.32936 5.44476,0.1328 0.82191,1.10546 2.50524,-0.37686 0.19022,1.87354 1.1593,1.30645 0,0 -1.08752,-0.7286 -0.62092,0.81833 -0.35174,3.17641 2.28271,11.2233 3.03643,4.07369 4.07369,3.30921 z m -9.56511,4.06651 0,0 -1.0911,0.39481 0.49171,0.57068 0.67476,-0.80038 -0.0754,-0.16511 z"
       inkscape:connector-curvature="0"
       style="fill:#cccccc;fill-opacity:1;stroke:#cccccc;stroke-width:1.279;stroke-opacity:1;stroke-miterlimit:4;stroke-dasharray:none" />
    <path
       id="IT-36"
       title="Friuli-Venezia Giulia"
       class="land"
       d="m 198.83881,472.40541 0.94753,0.87576 5.87187,0.49171 1.31363,0.99061 2.46575,-0.73219 6.30257,1.55769 -0.53838,2.18939 -1.72997,0.0323 -4.0055,3.73991 0.67835,2.25399 1.28492,-0.37327 3.32356,1.18801 -3.45995,4.64796 1.09469,1.02291 1.99199,-0.4953 -1.22391,3.42405 0.37327,1.17007 3.66813,1.63307 2.29347,2.98618 -1.47874,1.32081 -2.19656,-0.28354 1.65101,-0.52043 -1.25261,-0.69989 0.18304,-1.07675 -2.20733,-2.36525 -1.50386,-0.41634 -0.55991,1.12699 0.6317,0.50966 -2.254,1.22391 -3.51378,-1.04086 -1.51822,0.40198 -1.03368,1.58641 0,0 -1.69767,-2.21451 -0.83627,-3.13333 -0.60657,0.77525 -1.25262,-0.88652 -0.97984,0.76449 -0.47736,-0.91882 -2.34372,1.79817 -0.463,-1.08752 -1.40695,-0.0359 -0.87216,-2.50882 -1.42131,-0.55991 -0.5958,-2.46575 1.67614,-1.71203 0.16151,-1.28492 -3.23383,-3.0149 3.85116,-5.26529 2.40115,-0.0108 -0.53837,-1.24903 2.15708,-0.80397 -0.34456,-2.47293 0,0 1.22391,-0.0825 z"
       inkscape:connector-curvature="0"
       style="fill:#cccccc;fill-opacity:1;stroke:#cccccc;stroke-width:1.279;stroke-opacity:1;stroke-miterlimit:4;stroke-dasharray:none" />
    <path
       id="IT-62"
       title="Lazio"
       class="land"
       d="m 201.65989,617.83096 0.80397,-0.3625 -0.73578,1.37823 -0.0682,-1.01573 z m 18.92563,-13.29065 -2.13555,1.11264 0.55273,2.93952 -2.37602,1.81611 -2.45499,-0.92241 -1.42848,1.3567 -4.7664,-2.24322 -4.52593,1.70844 -2.36526,-3.81528 -5.49859,-1.54334 -3.73273,-5.1325 -3.54968,-2.13555 -1.45719,-4.18496 -4.16702,-3.02925 -1.53257,0.22612 -3.31997,-6.18053 -3.79374,-2.46575 0.66758,-1.48951 2.44063,-0.0287 -0.0323,-1.23108 -1.00138,-0.68553 0.3302,-1.32799 1.16289,0.0251 3.02207,-2.03865 -0.55273,-1.50027 0.81474,-0.84345 -1.3567,-1.06239 0.41634,-0.87575 0.68194,0.64246 0.76449,-1.10547 0.89011,0.0503 1.57923,2.03865 -1.02291,1.08751 0.46301,0.75731 1.48591,0.91883 3.04719,-0.45941 1.7228,4.32493 2.35449,-0.15074 0.40198,2.53035 1.30646,-0.18663 0.29431,0.96189 1.55411,-1.20595 0.079,-1.3926 1.18083,0.62093 1.07316,-0.70707 -0.49172,-0.73219 3.30921,-1.57923 -0.0144,-1.33516 4.76999,-0.80756 0.74655,-2.05659 1.76587,-0.17587 1.32081,1.13417 -0.19382,0.60657 1.127,0.71424 -0.27278,1.23467 -1.83406,0.58145 -1.89866,-0.45941 -0.64246,1.19877 0.3948,1.52181 -1.14135,0.86857 1.43208,1.34235 -0.75014,0.83986 4.17778,4.30341 -2.44062,1.33157 -2.97542,-1.22031 -0.0179,0.8614 -1.02291,0.50966 -0.0538,1.76586 0.50248,0.80757 1.59,0.0431 4.14548,2.23245 0.25842,2.63445 1.1234,-0.23689 1.98481,1.65101 1.83406,-1.23467 1.49668,0.34097 0.6281,1.18802 2.41192,0.34814 0.89729,1.17366 1.50026,3.16564 -0.88293,2.26476 z m -27.95955,-10.77825 -0.0144,-0.0287 0.004,-0.0646 -0.0395,-0.0395 -0.0323,0.0108 -0.061,0.0144 -0.0574,0.0933 -0.0108,0.0215 0.0251,0.0287 0.0215,-0.007 0.0933,0.0215 0.0718,-0.0287 0,-0.0215 z"
       inkscape:connector-curvature="0"
       style="fill:#cccccc;fill-opacity:1;stroke:#cccccc;stroke-width:1.279;stroke-opacity:1;stroke-miterlimit:4;stroke-dasharray:none" />
    <path
       id="IT-42"
       title="Liguria"
       class="land"
       d="m 105.28378,539.57652 0.84345,-0.50248 -0.79679,-0.50966 0.86499,-0.94036 3.23024,1.03368 1.2921,-0.0646 -0.51684,-0.7968 0.66041,-0.54555 1.0588,0.19023 -0.16869,-3.98756 0.67476,0.0395 0.83986,-2.01711 1.14494,-0.63169 -0.22252,-1.86995 1.03726,-1.28851 2.1212,1.55052 1.89507,-1.41772 1.63307,0.53119 1.14135,-2.10683 1.27774,0.0718 1.56129,2.23964 0.94395,-1.75151 1.64742,0.0395 -0.62451,-1.89508 1.36747,-1.13417 3.25536,2.67033 1.24185,-1.04803 0,0 2.94311,1.03726 0.87576,-0.64245 1.44284,1.01932 0.1328,1.97762 -1.02291,1.69409 3.03284,-0.48454 1.47873,1.90584 0,0 3.2123,2.35808 0.16869,2.1535 0.74654,-0.62811 0.52761,0.3661 -0.71424,0.73219 1.41054,-0.0467 0.23329,1.7874 0.63887,-0.53838 0.85063,0.52761 -0.89729,1.41054 0,0 -0.99419,0.21535 -2.23964,-1.84124 -0.18663,1.53257 -11.00796,-7.61619 -0.34814,1.23467 -1.30646,-0.60657 -0.061,-0.98343 -6.51792,-1.64384 -5.24735,2.58779 -1.10546,1.29927 -0.27636,2.00993 -2.87133,1.43567 -1.93815,3.7076 0.18664,0.9942 -1.86636,1.63306 -7.39726,2.92517 -2.49447,-0.1005 -0.74295,-2.40832 2.85338,-2.56984 1.09828,-2.29348 z"
       inkscape:connector-curvature="0"
       style="fill:#cccccc;fill-opacity:1;stroke:#cccccc;stroke-width:1.279;stroke-opacity:1;stroke-miterlimit:4;stroke-dasharray:none" />
    <path
       id="IT-25"
       title="Lombardia"
       class="land"
       d="m 151.98592,472.89713 -0.0467,1.12699 0.91524,0.69271 2.92157,0.52043 0,0 0.41276,0.96907 2.29706,0.74296 0.58862,1.77304 -2.16785,1.51463 0.94754,0.45582 0.37327,2.11401 -0.77167,3.65018 -1.69767,3.14051 1.05162,1.91661 -0.13998,2.30066 1.18084,1.19877 1.47873,-0.50248 0.16869,-0.77167 3.45995,0.0287 0,0 -3.98038,5.92211 0.26201,4.92791 1.43567,0.17946 -0.35174,2.76007 0.71783,0.49171 0.86499,-0.71783 3.74349,3.09385 1.52539,2.50524 1.33876,-0.71425 1.07675,0.40199 -0.52043,1.31004 1.63307,0.11127 0.004,0.88293 2.94311,1.90943 0,0 -2.23605,-0.3302 -2.84979,0.77526 -1.38901,-0.78603 -3.3774,1.27415 -2.60572,-0.89729 -0.34815,-1.11981 -2.3509,1.94532 -1.41413,0.061 -2.16785,-1.84842 -0.87935,0.48095 -3.65735,-1.9884 -1.19519,0.55991 -1.90584,-2.78877 -1.35312,0.7609 -0.12562,-1.00497 -0.64605,0.52402 0.33738,0.98702 -1.04085,-0.40199 -0.33379,1.15212 -1.09111,-1.56128 -0.80397,1.3567 -1.50027,-0.64246 -0.27277,-1.34593 -0.69271,0.87934 -0.83628,-0.7286 -0.17945,1.34952 -0.5635,-0.66758 -1.57564,0.48454 -2.32578,3.91577 -0.23329,0.95472 1.6223,1.89507 -1.38183,1.3926 0.72501,2.03864 -1.1593,0.30867 -0.47018,-0.90088 0.11486,0.72501 -0.62811,0.0395 0,0 0.0933,-1.74074 -0.98343,-1.65461 -1.65819,-0.0574 -0.29431,-1.83406 -2.80314,-3.05797 -0.10408,-1.14853 -2.30424,1.0947 -1.06598,-0.77885 -0.1651,0.63169 -1.1916,-0.68912 -0.48813,-2.19297 -1.3244,-1.15571 0.64246,-0.92242 -0.9583,0.20458 0.56708,-1.08392 -1.06957,-1.3244 1.06957,-1.83765 1.42131,0.31943 1.10905,1.46797 1.27056,-1.39618 -0.77885,-0.83269 2.29348,-0.41634 -1.06598,-2.37961 -1.2598,-0.64964 -1.25261,-5.42322 -1.0947,-0.32661 -0.72501,-1.37106 0.76808,-1.38183 -0.45941,-1.77663 2.88927,-3.14411 -0.13639,-2.21092 0,0 0.43429,-0.47736 2.03865,1.24185 -1.2598,2.2181 2.07095,0.89729 0.90087,2.3509 -0.6281,0.94395 2.30065,0.35533 0.99779,-2.09248 -1.83047,-1.86277 0.67835,-0.62093 -0.40558,-1.17365 1.28133,-0.7645 -0.0682,-1.45002 3.26255,-3.06873 0.90087,-2.42627 -0.92959,-3.07591 0.54555,-1.44643 1.57923,-0.35533 0.89729,1.11264 0.96908,-1.11981 -0.0251,3.57121 1.58282,1.95968 2.96824,0.26201 0.50607,-1.53616 0.75731,0.39481 3.22307,-1.17366 0.81115,0.73578 0.0538,1.79458 1.04804,0.53478 -0.19023,0.91883 1.41413,0.1328 0.99061,-0.84704 -1.31004,-2.01352 1.12699,-2.053 -2.32577,-0.94036 0.0825,-2.53036 1.06598,-1.89866 2.67033,-0.21176 z"
       inkscape:connector-curvature="0"
       style="fill:#cccccc;fill-opacity:1;stroke:#cccccc;stroke-width:1.279;stroke-opacity:1;stroke-miterlimit:4;stroke-dasharray:none" />
    <path
       id="IT-57"
       title="Marche"
       class="land"
       d="m 211.95359,550.63472 -1.04085,0.45224 -2.71341,-1.51104 -7.35418,-6.44972 -2.84262,-1.12699 0,0 -0.33738,2.58778 -1.09828,1.10905 -1.04804,-0.12921 -0.47018,-1.389 -0.97625,0.40557 -0.81833,-1.24185 0,0 -1.51462,0.33021 0,0 -0.0144,-0.0359 0,0 0.43429,0.7968 -1.41772,-0.0144 -1.36747,2.77442 0,0 0.0467,0.0359 0,0 1.59359,1.41054 -0.97625,0.76808 -0.21894,-1.33517 -0.15792,1.11982 -2.06018,1.09829 0.52043,0.80038 0,0 1.49309,0.60657 1.41771,-0.64605 -1.0588,1.76586 1.4572,0.86858 0.50966,-0.75013 1.41772,0.41634 2.28271,2.61649 2.78518,-0.93677 -0.44146,1.92738 2.13913,4.31776 -0.63169,1.59718 1.18801,1.31722 0.007,3.22306 1.43567,0.93319 0.0431,1.45002 0.43787,-1.10188 0.96549,-0.21894 1.97762,2.23964 1.40695,-0.87217 0.41635,1.94892 -1.24544,1.40336 0,0 1.76587,-0.17587 1.32081,1.13417 0,0 2.54112,-1.13058 0.67476,-1.94532 2.3186,0.28354 1.13058,-1.26339 3.54609,-0.9583 0,0 -5.30477,-16.47065 -2.16427,-2.03506 z m -19.79062,0.86858 -0.2656,-0.0933 0,0 -0.0682,-0.0215 0,0 0.31943,-0.1328 0,0 0.0359,0.19022 0,0 -0.0215,0.0574 z"
       inkscape:connector-curvature="0"
       style="fill:#cccccc;fill-opacity:1;stroke:#cccccc;stroke-width:1.279;stroke-opacity:1;stroke-miterlimit:4;stroke-dasharray:none" />
    <path
       id="IT-67"
       title="Molise"
       class="land"
       d="m 235.60256,589.78886 3.7435,1.37106 2.55907,1.99916 0,0 -0.73937,3.89783 1.11623,1.46438 -2.49088,2.1176 -1.16289,-0.53837 -0.44864,0.54555 0.0718,2.28988 1.27415,1.06598 0,0 -2.58778,1.40336 -1.43925,-0.61374 -0.61734,1.04085 -1.7192,0.0251 -1.14854,1.06239 -6.60764,-3.24101 -1.37823,0.47018 -0.82192,-0.68553 -0.78962,1.44643 0.59221,1.46797 -1.23826,-0.13639 -1.18442,-1.70126 0,0 0.87935,-2.29348 -1.50027,-3.16563 0,0 1.42489,0.1651 0.89011,-1.40336 0.69989,0.71065 0.22612,-0.94754 1.34952,-0.0538 -0.84345,-1.96327 2.50523,-2.02787 1.13418,1.1916 1.4572,0.18664 0.4953,2.15349 0.73219,0.1328 5.40527,-7.57672 0,0 z"
       inkscape:connector-curvature="0"
       style="fill:#cccccc;fill-opacity:1;stroke:#cccccc;stroke-width:1.279;stroke-opacity:1;stroke-miterlimit:4;stroke-dasharray:none" />
    <path
       id="IT-21"
       title="Piemonte"
       class="land"
       d="m 118.66058,477.02107 0.59939,1.81611 -0.52761,3.93372 1.60436,0.81474 1.48232,2.53395 1.96327,0.48812 0,0 0.13639,2.21093 -2.88928,3.1441 0.45942,1.78022 -0.76808,1.38183 0.72501,1.37106 1.09469,0.32661 1.25262,5.42322 1.25979,0.64964 1.06598,2.37961 -2.29347,0.41634 0.77885,0.83269 -1.27057,1.39618 -1.10546,-1.46797 -1.42489,-0.31943 -1.06598,1.83765 1.06957,1.3244 -0.56709,1.08751 0.9583,-0.20458 -0.64246,0.92242 1.3244,1.15571 0.48813,2.19656 1.18801,0.68553 0.1651,-0.6281 1.06957,0.77526 2.30424,-1.0947 0.10409,1.15212 2.80313,3.05438 0.29431,1.83406 1.65819,0.0574 0.98343,1.65461 -0.0897,1.74074 0,0 -0.16869,1.7551 0,0 -1.24184,1.04803 -3.25537,-2.67392 -1.36747,1.13417 0.62451,1.89508 -1.64742,-0.0395 -0.94036,1.75151 -1.56488,-2.23964 -1.27415,-0.0754 -1.14135,2.11042 -1.63307,-0.53478 -1.89507,1.42131 -2.1212,-1.55052 -1.03726,1.28851 0.22252,1.86636 -1.14135,0.63169 -0.83986,2.0207 -0.67476,-0.0395 0.16869,3.98756 -1.0588,-0.19023 -0.66041,0.54196 0.51684,0.7968 -1.2921,0.0682 -3.23024,-1.03368 -0.86499,0.94036 0.79679,0.50966 -0.84345,0.50248 0,0 -0.85422,-1.71561 0.32303,-1.11623 -6.022612,1.51821 -3.115391,-2.19297 -3.319972,-0.87935 -2.196565,-3.2446 0.100496,-1.51821 1.0265,-0.20099 -1.697673,-2.60573 2.052999,-2.25759 -0.09691,-1.48232 2.106837,-0.24765 -1.414129,-2.63803 0.107675,-1.29569 -2.612908,-0.29072 -2.070945,-1.4249 -0.125621,-2.82108 -1.302864,-0.14715 -0.868577,-2.22528 2.60573,-1.41413 2.307829,0.5958 0.0036,-0.82551 0.965484,-0.0359 1.015732,-1.30286 1.252617,0.21535 1.030088,-0.90447 -0.265598,-2.12119 1.421307,-2.03865 -1.564873,-1.60076 0,0 0.635281,-1.27774 0.12921,1.02291 1.424896,0.13998 4.927917,-2.90722 4.4685,0.83627 1.7551,-1.24544 1.31005,0.16152 0.63528,-3.53174 -1.3244,-1.75869 0,-3.26972 0,0 0.82191,-2.11401 1.8879,-0.37687 0.41276,-2.315 2.22169,-1.18443 -0.25125,-2.12119 -1.14135,-0.93677 4.2711,-3.12975 -0.0718,-1.23467 z"
       inkscape:connector-curvature="0"
       style="fill:#cccccc;fill-opacity:1;stroke:#cccccc;stroke-width:1.279;stroke-opacity:1;stroke-miterlimit:4;stroke-dasharray:none" />
    <path
       id="IT-75"
       title="Puglia"
       class="land"
       d="m 258.09582,592.60635 3.14411,1.61153 0.17946,1.98481 -0.62811,1.19519 -4.81306,3.40611 0.95113,3.73991 11.60734,6.22001 9.35335,3.49943 7.1173,5.72471 9.99222,4.49721 1.05521,2.81032 6.32769,5.56678 1.70126,3.84399 -1.99557,3.81528 -0.30508,3.79015 -0.83268,0.67476 -5.51295,-3.32356 -0.97625,-1.70126 0.36609,-0.87935 -0.74655,-0.40198 0.68912,-1.29928 -2.80672,-4.28186 -6.40306,-0.22971 -5.61703,-2.7134 0.87575,-1.16289 -2.53753,-1.51822 -2.62727,0.88653 -2.04223,2.39397 0,0 -1.03727,-1.77305 -1.5541,-0.56709 0.0467,-5.64215 -1.04804,-0.7968 -1.64383,-0.37327 -0.67118,0.91882 -0.73218,-0.88652 -1.79817,1.29928 -2.63445,-2.79596 -1.05521,-2.31859 -1.48232,0.47018 -2.58061,-1.39619 1.08752,-1.97404 -3.09027,-2.40832 -1.88431,1.29569 -3.79015,-0.201 -0.36609,0.88652 0,0 -2.60932,-1.24184 -0.61016,0.463 -2.13196,-0.62093 -0.82551,-0.95471 1.2921,-2.36526 -3.77938,-2.03864 0.4953,-2.42268 -1.67614,-1.30287 0,0 -1.27415,-1.06598 -0.0718,-2.28988 0.44864,-0.54556 1.16289,0.53838 2.49447,-2.11761 -1.11623,-1.46437 0.73936,-3.89783 0,0 5.33708,0.63887 10.84285,-1.19878 z"
       inkscape:connector-curvature="0"
       style="fill:#cccccc;fill-opacity:1;stroke:#cccccc;stroke-width:1.279;stroke-opacity:1;stroke-miterlimit:4;stroke-dasharray:none" />
    <path
       id="IT-88"
       title="Sardegna"
       class="land"
       d="m 117.41155,661.00137 1.00855,0.11126 0.76091,1.28133 -0.96908,2.33655 -1.00496,-1.9202 0.20458,-1.80894 z m -1.14494,-1.62589 -0.0467,1.95968 -0.58144,0.13639 -1.01932,-1.27774 1.64742,-0.81833 z m 0.24765,-46.43295 0.21894,1.66896 -0.97984,-0.45583 -0.78244,1.08752 0.36251,1.00496 -0.82551,-0.10408 0.18664,-1.31722 1.8197,-1.88431 z m 21.1904,-2.98977 0.17228,1.37824 -0.82551,0.12562 0.65323,-1.50386 z m -4.45056,-0.3984 1.01573,1.81971 1.4249,-0.57068 1.11264,0.71424 0.35532,2.07813 0.43429,-1.2275 1.00138,-0.35891 0.8614,1.00855 -1.07316,2.60932 0.97266,-0.68912 -0.19023,0.80756 0.80398,-0.45223 1.27415,0.65681 -1.5254,0.29431 -0.13279,1.33158 -1.30287,0 1.60436,0.86499 0.98342,-0.64964 -0.53119,0.67476 0.61375,0.88653 1.35311,0.38763 -0.93318,1.31004 1.50744,2.7134 0.0108,1.83406 1.3567,1.64025 -1.12699,3.29126 -2.57702,3.19435 0.49172,2.68469 1.46437,1.40336 -0.8614,2.68469 0.57427,1.14136 -0.65682,0.66399 -0.64963,10.4624 -0.88653,2.69187 0.63887,1.18801 -0.94394,0.77526 -0.0574,2.12119 -1.04086,1.94174 -4.1706,-2.79955 -1.59359,-0.33379 -0.93318,1.07675 -0.91882,-0.73937 -1.67614,1.46797 0.061,3.92295 -3.00413,2.49805 -2.50164,-1.48232 -1.47156,1.76946 -1.43207,-4.22444 -1.64025,-0.3661 -0.0897,-1.2239 -1.8879,-2.38679 1.2275,-1.85201 -1.14136,-2.00634 1.78381,-5.38374 -0.45582,-3.67889 1.16289,0.78244 0.84704,-3.26972 -0.54555,-0.9942 -1.55052,0.65323 -0.78602,-0.74296 0.27995,-2.67392 -0.65323,-0.38045 1.41054,-0.37328 0.68912,-1.24543 -0.63528,-1.76587 0.47736,-2.63444 -1.83765,-1.2598 -0.16869,-3.65376 -1.34953,-2.40115 -1.75868,0.54196 -0.12921,-1.22749 -0.85422,0.95472 1.01932,-2.54831 -1.33517,-1.1234 1.67614,-3.77939 -0.8614,-1.19878 0.50248,-0.86139 0.61734,0.44505 -0.0897,1.0265 1.48232,1.59 4.56182,0.30867 2.4514,-1.98122 1.79817,-0.2656 4.02703,-4.83101 2.86774,-1.09469 -0.44146,-1.88431 1.60435,-0.2979 z m 3.47431,-0.23688 0.36968,1.25979 -1.06239,0.1651 0.69271,-1.42489 z"
       inkscape:connector-curvature="0"
       style="fill:#cccccc;fill-opacity:1;stroke:#cccccc;stroke-width:1.279;stroke-opacity:1;stroke-miterlimit:4;stroke-dasharray:none" />
    <path
       id="IT-82"
       title="Sicilia"
       class="land"
       d="m 189.87668,688.1713 1.07315,1.07675 -1.48232,-0.20099 z m -4.49004,-0.87575 0.47736,1.0265 -0.89371,-0.26919 -0.25124,-0.77526 z m 64.28184,-7.17832 1.852,0.81833 -1.53257,0.72142 -1.45361,3.70042 -5.21863,7.42239 -0.66041,4.13112 -1.67255,2.08889 0.21176,3.80451 2.92876,1.79458 -0.60657,0.63169 -0.57785,-0.52761 -0.11845,1.15212 0.87576,1.63666 1.13776,0.26201 -0.38404,1.5218 1.11623,0.85063 -1.10905,-0.10049 -2.26117,2.1499 -1.06239,2.62009 0.82909,2.61649 -1.0911,0.83987 -1.14853,-1.21673 -2.5842,-0.66399 -1.77663,0.61374 -5.29042,-1.88071 -2.0853,-4.00192 -2.16068,-2.18938 -3.54967,-1.23467 -3.03643,0.34814 -2.83544,-1.25979 -3.6071,-3.10462 -1.93097,-0.19741 -3.25896,-2.22528 -1.97045,-2.40114 -2.6811,-0.0251 -1.8879,-1.88072 -4.46491,0.38763 -1.22749,-1.86636 -2.40833,-1.36388 -0.94395,-2.35449 1.10905,-1.70126 -0.50966,-0.77167 1.11264,-1.95968 -0.53119,-0.57427 4.06292,-2.16067 0.37687,-1.86277 3.12256,3.83322 3.25537,-1.46438 -0.45941,-1.18442 1.0265,-1.26698 1.52898,0.54197 2.32578,-1.27774 1.20236,2.7134 2.84262,-0.11485 0.56709,1.71562 3.66812,1.60076 4.70538,-1.66896 4.84896,0.78962 3.53532,-0.61375 2.95029,-0.94395 2.00993,-2.14631 3.05078,-0.61375 3.40253,1.63307 2.20374,-1.68332 0.0969,-1.79817 0.35891,1.28133 0.80756,0.22612 z m -11.01154,-2.7816 0.78602,1.13418 -0.98343,-0.32662 z m 0.0395,-2.41191 -0.1651,1.92379 -1.03727,-1.09111 z m -2.59496,-1.43925 0.92241,0.0431 -0.0108,1.03008 -1.38541,-0.57067 z m 7.44391,-5.32991 -0.2297,0.91883 -0.47018,-0.46659 z"
       inkscape:connector-curvature="0"
       style="fill:#cccccc;fill-opacity:1;stroke:#cccccc;stroke-width:1.279;stroke-opacity:1;stroke-miterlimit:4;stroke-dasharray:none"
       sodipodi:nodetypes="cccccccccccccccccccccccccccccccccccccccccccccccccccccccccccccccccccccccccccccccccccccccccccccc" />
    <path
       id="IT-52"
       title="Toscana"
       class="land"
       d="m 153.1847,582.67156 0.30867,0.64605 -0.63528,0.20099 0.32661,-0.84704 z m 10.527,-0.98702 0.62811,1.81253 -1.00497,-0.92242 0.37686,-0.89011 z m -14.82681,-5.69958 0.15433,1.2885 -0.79679,-0.35173 0.64246,-0.93677 z m 6.22001,-6.19848 0.31585,2.22528 -0.90447,0.48812 0.68194,1.28133 -1.49309,-1.39618 -0.40917,0.68553 -0.32302,-0.57427 -2.67751,0.85063 -1.01932,-1.0265 0.6927,-1.07315 1.93456,0.53119 0.3302,-1.05521 1.71203,0.78244 1.1593,-1.71921 z m 33.38277,-23.60949 0.0287,0.0574 0,0 -0.67476,0.80038 -0.49171,-0.57068 1.0911,-0.39481 0,0 0.0467,0.10768 z m -46.92826,-14.23102 2.516,-2.67392 1.92021,-0.21176 1.43207,0.83268 0.21176,1.39619 2.41191,0.87216 2.0207,2.13914 0.85422,-0.42711 3.45636,1.67973 1.9202,2.72058 0.93318,-1.07675 1.99917,0.0467 2.96464,2.40115 1.74433,-1.95968 0.47736,1.11264 4.20649,-0.14357 -1.10187,-1.33517 1.43208,-0.0502 2.66674,-2.07813 1.71921,2.04582 1.73356,-0.0754 -0.45223,1.127 2.91799,-0.2656 -1.86637,3.46713 1.31722,1.76945 -0.0969,1.09828 2.00275,1.58282 1.67614,0.0754 2.96823,1.7874 1.64384,-0.55273 0.55631,0.82909 1.61872,-0.8937 0,0 0.061,0.0467 0,0 1.59359,1.41054 -0.97625,0.76808 -0.21894,-1.33517 -0.15792,1.11982 -2.06018,1.09828 0.52043,0.80039 0,0 -1.16648,2.053 -0.98702,0.13638 0.83986,1.36388 -2.13196,1.43567 1.67255,1.25979 0.29072,1.75869 1.67614,-0.0467 -2.39397,1.50027 -1.08392,-0.30867 -0.17587,1.4572 -1.85919,1.09469 0.0215,1.78741 1.03726,0.67476 -0.86857,3.53532 0.44864,0.91882 -1.15571,0.86858 0,0 -0.89011,-0.0503 -0.76449,1.10546 -0.68194,-0.64246 -0.41634,0.87576 1.3567,1.06239 -0.81474,0.84345 0.55273,1.50027 -3.02207,2.03864 -1.16289,-0.0251 -0.3302,1.32799 1.00137,0.68553 0.0323,1.23108 -2.44063,0.0287 -0.664,1.4895 0,0 -3.42405,-1.04085 -0.97984,0.25842 -0.39481,1.14135 -1.7228,-0.74296 -0.15792,-0.926 1.46079,-0.20099 0.47377,-1.85919 -1.92738,-2.92157 -1.48591,-0.63528 -1.127,-2.15709 -3.91218,-1.50744 1.03008,-2.17862 -0.88293,-1.00856 -2.17503,-0.64605 -2.30783,0.55991 0.79679,-3.93013 -0.23688,-3.99114 -4.17778,-7.24651 -1.08752,-8.50631 -1.80893,-2.76007 -2.25399,-1.68331 0,0 0.89729,-1.40695 -0.85064,-0.52761 -0.63887,0.53838 -0.23329,-1.78741 -1.41054,0.0503 0.71424,-0.73219 -0.5276,-0.36609 -0.74655,0.6281 -0.16869,-2.15349 -3.21948,-2.36885 z"
       inkscape:connector-curvature="0"
       style="fill:#cccccc;fill-opacity:1;stroke:#cccccc;stroke-width:1.279;stroke-opacity:1;stroke-miterlimit:4;stroke-dasharray:none" />
    <path
       id="IT-32"
       title="Trentino-Alto Adige"
       class="land"
       d="m 187.92417,460.3566 0.62093,0.48813 -0.61016,1.07316 -1.53975,0.56708 0.87935,1.90944 -0.4666,0.68912 1.33158,0.98701 1.12341,-0.23688 0.56709,1.15571 -0.42711,1.49668 1.29927,0.23329 0.49172,1.52899 1.80893,1.04444 0,0 -1.84482,1.57205 -2.22528,-0.23329 -1.19878,0.95112 -0.0395,-0.81115 -2.26476,-1.34952 -1.25621,3.7399 -3.35945,0.93678 1.27415,1.23826 -0.92241,2.28988 -1.13777,0.24765 3.48149,4.39672 -1.2275,1.83406 -3.79374,0.75372 -0.32302,3.42406 -1.51104,-0.10767 -0.87216,-1.22391 -3.05438,0.83628 -0.44505,1.98839 -0.91524,-0.7609 -0.8614,0.42352 -2.34372,6.07286 -2.01352,-0.83986 -1.37464,1.18442 -1.8233,-1.10905 0.96549,-2.3832 -0.9619,-0.5958 0,0 -3.45636,-0.0287 -0.17228,0.77167 -1.47873,0.50248 -1.18083,-1.20236 0.13997,-2.30066 -1.05162,-1.91661 1.70126,-3.14051 0.76808,-3.65018 -0.37327,-2.11401 -0.94754,-0.45582 2.17144,-1.51463 -0.58862,-1.77304 -2.30065,-0.74296 -0.40917,-0.96548 0,0 0.67835,-2.13914 -1.64024,-0.63528 -0.30149,-1.31005 1.67255,-4.6336 1.27415,0.56709 2.1858,-1.01932 1.78381,1.39259 -0.6281,0.94754 5.3622,0.56708 1.1593,-1.45719 0.24047,-2.46217 1.26698,-1.41772 2.84979,-0.71424 1.54693,0.73937 1.389,-1.2598 1.05162,0.76091 1.50745,-0.80398 2.36167,1.18084 4.17419,-2.19298 z"
       inkscape:connector-curvature="0"
       style="fill:#cccccc;fill-opacity:1;stroke:#cccccc;stroke-width:1.279;stroke-opacity:1;stroke-miterlimit:4;stroke-dasharray:none" />
    <path
       id="IT-55"
       title="Umbria"
       class="land"
       d="m 192.16297,551.5033 -0.2656,-0.0933 0,0 -0.0682,-0.0215 0,0 0.31943,-0.1328 0,0 0.0359,0.19022 0,0 -0.0215,0.0574 z m -4.0378,-0.41634 1.49309,0.60657 1.41771,-0.64605 -1.0588,1.76586 1.4572,0.86858 0.50966,-0.75013 1.41772,0.41634 2.2827,2.6165 2.78519,-0.93677 -0.44146,1.92737 2.13913,4.31776 -0.63169,1.59718 1.18801,1.31722 0.007,3.22306 1.43567,0.93319 0.0431,1.45002 0.43787,-1.10188 0.96549,-0.21893 1.97762,2.23963 1.40695,-0.87216 0.41635,1.94891 -1.24544,1.40336 0,0 -0.74655,2.05659 -4.76999,0.80756 0.0144,1.33517 -3.30921,1.57923 0.49172,0.73218 -1.07316,0.70707 -1.18083,-0.62093 -0.079,1.3926 -1.5541,1.20596 -0.29431,-0.9619 -1.30646,0.19023 -0.40198,-2.53036 -2.35449,0.15074 -1.7228,-4.32493 -3.04719,0.463 -1.48592,-0.91883 -0.463,-0.75731 1.0265,-1.08392 -1.57923,-2.03865 0,0 1.1593,-0.86857 -0.44864,-0.91883 0.86857,-3.53532 -1.03726,-0.67476 -0.0215,-1.7874 1.85918,-1.0947 0.17587,-1.4572 1.08393,0.30867 2.39397,-1.50027 -1.67614,0.0467 -0.29072,-1.75869 -1.67255,-1.25979 2.13196,-1.43566 -0.83986,-1.36388 0.98702,-0.13639 1.1593,-2.053 z"
       inkscape:connector-curvature="0"
       style="fill:#cccccc;fill-opacity:1;stroke:#cccccc;stroke-width:1.279;stroke-opacity:1;stroke-miterlimit:4;stroke-dasharray:none" />
    <path
       id="IT-23"
       title="Valle d'Aosta"
       class="land"
       d="m 102.80367,489.69439 1.57923,0.22612 1.03009,1.41772 2.62368,0.19022 0,0 0,3.26972 1.3244,1.75869 -0.63528,3.53174 -1.31005,-0.16152 -1.7551,1.24544 -4.4685,-0.83627 -4.927915,2.90722 -1.424896,-0.13998 -0.12921,-1.02291 -0.635281,1.27774 0,0 -1.880719,-0.99779 -0.0036,-3.53532 -1.557696,-0.31226 -1.970448,-1.89507 0.222528,-2.97541 2.221689,-0.2656 1.873542,-2.02429 1.134174,1.7228 0.922414,-0.55632 0.667583,0.53837 1.866363,-1.64742 1.694083,0.6604 z"
       inkscape:connector-curvature="0"
       style="fill:#cccccc;fill-opacity:1;stroke:#cccccc;stroke-width:1.279;stroke-opacity:1;stroke-miterlimit:4;stroke-dasharray:none" />
    <path
       id="IT-34"
       title="Veneto"
       class="land"
       d="m 193.6776,515.85936 0.4271,0.32303 -0.85063,0.19022 0.42353,-0.51325 z m -0.1328,-44.53429 4.06651,1.15571 0,0 0.34456,2.47293 -2.15708,0.80398 0.53837,1.24902 -2.40115,0.0108 -3.85116,5.2653 3.23383,3.01489 -0.16151,1.28492 -1.67614,1.71203 0.5958,2.46575 1.42131,0.55991 0.87575,2.50882 1.40695,0.0359 0.463,1.09111 2.34372,-1.79817 0.47736,0.91882 0.97984,-0.76449 1.25262,0.88653 0.60657,-0.77526 0.83627,3.13333 1.69767,2.21451 0,0 -2.25758,0 -11.3884,6.48203 -1.20596,4.00909 0.664,3.86552 1.08392,1.55411 -0.47018,0.21894 0.73219,0.42352 0.21894,-0.73578 1.54334,1.92738 -0.60657,2.979 -0.81833,-1.38183 -0.59939,0.75732 0.71066,1.46796 -0.51325,0.47018 -0.86499,-0.68912 0,0 -1.1593,-1.30645 -0.19022,-1.87354 -2.50524,0.37686 -0.82191,-1.10546 -5.44476,-0.1328 -3.62146,2.33295 -1.16289,-1.17365 -2.04582,0.13639 -0.0574,-0.53479 0,0 -2.94312,-1.90943 0,-0.88293 -1.63306,-0.11127 0.52043,-1.31004 -1.07675,-0.40199 -1.33876,0.71425 -1.52539,-2.50524 -3.74349,-3.09385 -0.86499,0.72142 -0.71783,-0.49172 0.35173,-2.76006 -1.43566,-0.17946 -0.26201,-4.92791 3.98038,-5.92212 0,0 0.96189,0.5958 -0.96548,2.38321 1.82329,1.10905 1.37465,-1.18443 2.01352,0.83987 2.34372,-6.07286 0.8614,-0.42352 0.91523,0.7609 0.44865,-1.9848 3.05437,-0.83628 0.86858,1.2239 1.51104,0.10768 0.32302,-3.42406 3.79374,-0.75372 1.22749,-1.83406 -3.48148,-4.39672 1.13776,-0.25124 0.92242,-2.2863 -1.27415,-1.24185 3.35945,-0.93677 1.2562,-3.7399 2.26835,1.34952 0.0395,0.81115 1.19878,-0.95113 2.22528,0.2333 1.84483,-1.57205 0,0 0.52402,0.0215 z"
       inkscape:connector-curvature="0"
       style="fill:#cccccc;fill-opacity:1;stroke:#cccccc;stroke-width:1.279;stroke-opacity:1;stroke-miterlimit:4;stroke-dasharray:none" />
    <circle
       style="fill:#3498db;fill-opacity:1;stroke:none;stroke-width:1.27900004;stroke-miterlimit:4;stroke-dasharray:none;stroke-opacity:1"
       id="path4183"
       cx="135.77905"
       cy="505.63022"
       r="4" />
  </g>
</svg>
