<?xml version="1.0" encoding="UTF-8" standalone="no"?>
<!-- (c) ammap.com | SVG map of Greece - Low -->

<svg
   xmlns:amcharts="http://amcharts.com/ammap"
   xmlns:dc="http://purl.org/dc/elements/1.1/"
   xmlns:cc="http://creativecommons.org/ns#"
   xmlns:rdf="http://www.w3.org/1999/02/22-rdf-syntax-ns#"
   xmlns:svg="http://www.w3.org/2000/svg"
   xmlns="http://www.w3.org/2000/svg"
   xmlns:sodipodi="http://sodipodi.sourceforge.net/DTD/sodipodi-0.dtd"
   xmlns:inkscape="http://www.inkscape.org/namespaces/inkscape"
   version="1.1"
   id="svg2"
   inkscape:version="0.91 r13725"
   sodipodi:docname="volos-map.svg"
   width="390"
   height="260">
  <metadata
     id="metadata26">
    <rdf:RDF>
      <cc:Work
         rdf:about="">
        <dc:format>image/svg+xml</dc:format>
        <dc:type
           rdf:resource="http://purl.org/dc/dcmitype/StillImage" />
        <dc:title></dc:title>
      </cc:Work>
    </rdf:RDF>
  </metadata>
  <sodipodi:namedview
     pagecolor="#ffffff"
     bordercolor="#666666"
     borderopacity="1"
     objecttolerance="10"
     gridtolerance="10"
     guidetolerance="10"
     inkscape:pageopacity="0"
     inkscape:pageshadow="2"
     inkscape:window-width="1366"
     inkscape:window-height="723"
     id="namedview24"
     showgrid="false"
     inkscape:zoom="6.675088"
     inkscape:cx="144.68267"
     inkscape:cy="139.62813"
     inkscape:window-x="0"
     inkscape:window-y="0"
     inkscape:window-maximized="1"
     inkscape:current-layer="svg2" />
  <defs
     id="defs4">
    <style
       type="text/css"
       id="style6">
			.land
			{
				fill: #CCCCCC;
				fill-opacity: 1;
				stroke:white;
				stroke-opacity: 1;
				stroke-width:0.5;
			}
		</style>
    <amcharts:ammap
       projection="mercator"
       leftLongitude="19.375819"
       topLatitude="41.7448887"
       rightLongitude="29.609274"
       bottomLatitude="34.803673" />
    <!-- All areas are listed in the line below. You can use this list in your script. -->
    <!--{id:"GR-A"},{id:"GR-B"},{id:"GR-C"},{id:"GR-D"},{id:"GR-E"},{id:"GR-F"},{id:"GR-G"},{id:"GR-H"},{id:"GR-I"},{id:"GR-J"},{id:"GR-K"},{id:"GR-L"},{id:"GR-M"},{id:"GR-69"}-->
  </defs>
  <path
     style="fill:#cccccc;fill-opacity:1;stroke:#cccccc;stroke-width:0.16093569;stroke-opacity:1"
     inkscape:connector-curvature="0"
     d="m 226.61691,50.052628 1.95376,0.444183 1.21023,1.052519 -0.0933,1.670513 -2.71337,1.042863 -1.2199,-0.06759 -3.3539,-3.035247 0.71134,0.141623 1.64476,-1.245642 1.86042,0 z m -26.88913,-10.953282 1.02998,0.656618 0.64375,-0.321872 0.63408,1.107238 1.36152,0.756397 -0.78859,0.556838 0.074,0.498901 0.62765,0.135185 0.029,0.714555 -0.59546,0.469932 0.63409,1.812136 -0.23819,0.720992 -0.37659,-0.434527 -0.64052,0.698461 -1.39049,0.292903 -1.36473,0.914115 -0.11587,-0.540744 -1.05896,-0.434526 0.11909,-0.534307 -0.52787,-0.527869 -1.77995,0.03541 -0.47958,-1.561076 1.40014,-3.772332 0.69202,-0.05794 1.87007,-1.419453 0.24141,0.234966 z m 44.93967,-35.9465934 0.46028,-0.2800281 1.72523,1.1362059 2.02457,-0.035406 0.56328,0.5407439 3.18009,1.0042387 -0.0129,0.685586 1.18449,1.213455 1.81535,0.4795883 -0.0225,3.2058387 0.57937,3.872113 0.49246,0.263934 0.19634,1.277829 -0.16737,1.425891 -1.01067,0.859396 -2.19517,-0.469932 -0.93021,1.274611 -0.64374,0.205997 -0.12553,0.65018 -0.67593,0.122311 -0.95274,1.007458 -1.36151,0.138404 -0.40556,-0.389464 -0.57615,0.267153 0.01,2.57819 -0.47959,0.392683 0.88192,1.20058 -0.97527,1.194143 0.87549,0.128748 -0.64052,1.371172 0.42809,1.207018 1.15552,0.80146 -0.26394,0.807897 -0.93021,0.534306 0.97849,1.493483 -1.62223,0.720992 -0.44096,-0.154498 0.1384,1.393703 -0.48924,0.03541 -0.74352,0.457057 -0.73065,0.566494 -0.3959,1.403359 -1.5643,0.708117 -0.80146,1.493483 -0.10622,1.091144 -1.44198,0.563275 -1.09114,-0.09334 -0.43775,-2.494503 1.20058,-0.907677 -0.41199,-0.357277 -0.9109,0.04506 -0.52143,0.756397 -1.27461,-1.161955 -1.27783,-0.270372 -5.20466,0.08691 -4.0588,-0.888365 -1.1362,0.334746 -2.83247,-1.441983 -2.15332,-0.473151 -0.90446,-1.12655 -1.28749,-0.186685 -1.10723,0.827209 -0.42166,-0.505338 -2.18228,-0.167373 -1.29071,-0.569712 0.309,-1.239205 0.82077,-0.411996 -0.90446,-0.450619 -0.40877,0.334746 -2.02136,0.01288 -1.52889,1.541763 -0.32187,1.17805 -1.06861,-0.05794 -2.0986,0.811116 -2.16619,2.381848 -1.19093,-0.434527 -2.02779,0.138405 -0.91733,-0.65018 -0.93987,0.479588 -1.85076,-3.505179 -1.55785,-0.276809 -1.08793,0.263934 -0.0837,0.35084 -1.21667,-0.02575 -0.40556,0.524651 -0.53752,-0.186686 -0.4635,0.917334 -1.01711,0.360495 -0.80146,0.862616 0.60512,0.717773 -0.16416,0.563275 0.25106,0.704898 -1.68338,0.608337 -5.57482,3.334587 -1.20058,0.138405 -1.28748,-0.42487 -3.86568,-1.899041 0,0 0.15128,-1.055738 1.81536,-0.489245 2.68119,-2.742344 0.84652,-0.02575 0.0418,-1.020332 1.07183,0.164155 -0.16415,-0.653399 0.57615,-1.004239 0.103,-1.606138 -2.41082,-1.931228 0.12231,-1.25208 -1.54498,-1.007457 -1.27783,1.145862 -2.34966,-1.744543 -1.73167,-0.627649 -1.38083,-1.689825 -0.80468,-0.135186 0.12553,-0.846521 -0.76283,-1.50314 0.51499,-1.911915 -2.33035,-0.656618 -0.22531,-2.182288 0,0 0.50212,-0.122311 0.82078,-1.168393 2.67153,0.52465 0.97205,-1.554638 2.64256,-0.521432 0.63087,-1.158737 1.71879,1.628669 1.28427,-1.129768 0.2414,0.511775 0.67272,0.05794 0.69846,-0.5504 -0.34762,-2.172632 1.19414,-1.017113 0.92055,0.62443 0.71777,-0.0869 0.72099,0.830428 0.75318,-1.37439 0.57615,0.08047 0.93343,-0.9366454 1.14908,1.3550784 0.0612,1.029988 1.00424,-0.579368 0.78214,0.354059 0.53109,-0.743523 0.59868,-0.119093 1.33577,0.685586 0.66949,-1.145862 1.48061,-0.6340865 0.79824,0.6759295 0.18025,1.825011 0.37981,1.029988 0.68236,0.444183 0.47959,1.528889 1.3068,0.286465 0.71455,-0.29934 1.32289,0.347621 0.48925,1.316454 1.67695,1.338985 0.35084,-0.328309 0.074,-1.747761 1.59004,0.357277 1.20702,-0.621212 0.76927,0.814335 3.24447,0.82399 1.25208,1.165175 0.60511,-0.186686 2.96444,2.217694 0.33475,1.271392 1.47417,0.457057 0.4474,-0.39912 1.03964,0.164154 0.94309,-0.711336 1.72201,-0.183466 1.38726,-0.865834 1.5997,0.402339 0.88193,-1.528889 1.50636,0.505338 1.29392,-0.379808 1.42589,0.862615 0.37659,-1.004239 1.68661,-0.138404 1.3068,-0.978489 1.38404,0.711335 0.309,0.878709 0.63409,-0.08047 2.7005,-0.685586 0.26071,-0.669492 0.81112,-0.273591 2.74556,-0.202779 0.81755,-1.387265 -0.0193,-1.120113 0.32831,-0.440963 0.89158,-0.112655 -1.35186,-1.738106 0.91412,-1.464514 -0.23175,-1.342204 -0.86261,-0.096561 0.17059,-1.9151346 -0.47959,-1.0557381 -0.53431,0.3572772 -0.7049,-0.1448421 -0.6888,-0.8787088 -0.26715,-1.4741708 0.26715,-0.8175533 1.2038,-0.1223111 0.2575,-0.6115556 1.27783,-0.7435228 1.3776,0.5632749 z"
     class="land"
     title="East Macedonia and Thrace"
     id="GR-A" />
  <path
     style="fill:#cccccc;fill-opacity:1;stroke:#cccccc;stroke-width:0.16093569;stroke-opacity:1"
     inkscape:connector-curvature="0"
     d="m 162.96363,63.86091 0.97205,0.502119 2.14366,3.395743 3.01594,1.522451 2.00204,0.50212 0.74674,1.75098 1.55464,0.0064 0.12875,0.695243 -0.98493,0.308996 -3.53415,-0.47637 -3.77233,-1.857197 -3.13825,0.566493 0.78859,-1.808917 -2.23379,-3.640365 0.52465,-1.007457 -0.0129,-2.607158 0.35728,-0.02575 0.7403,1.731668 0.70168,0.440964 z m 2.77775,-47.849397 1.31967,-0.209216 0.64696,0.666274 0.86262,-0.119093 0.52787,0.486026 0.8948,0.04184 0,0 0.22853,2.182288 2.33035,0.656618 -0.515,1.911916 0.76284,1.503139 -0.12231,0.846522 0.80467,0.135186 1.38083,1.693043 1.73167,0.627649 2.34966,1.744543 1.27783,-1.145862 1.54498,1.007457 -0.12231,1.25208 2.41082,1.931228 -0.103,1.606138 -0.57615,1.007457 0.16415,0.653399 -1.07183,-0.164154 -0.0418,1.020332 -0.8433,0.02575 -2.68119,2.742344 -1.81536,0.489244 -0.15128,1.055738 0,0 -1.01389,-0.180248 -2.77453,1.129769 -1.00102,1.712355 -0.24784,1.435547 1.35186,0.59868 1.16839,1.548202 0.10944,0.862615 1.02033,0.453838 0.36693,0.849741 1.50636,-0.04828 1.00746,0.949521 -0.68881,0.534306 -1.79282,0.05472 -0.2929,0.482807 0.18668,2.008478 0.96883,1.422671 1.92158,1.235986 1.22311,0.167373 1.05574,-0.392683 0,0 0.27359,1.825011 -0.34441,0.97527 0,0 -1.93122,-1.654419 -2.50416,-0.495682 -2.02136,1.25208 -1.34864,-0.608337 -0.28646,0.788585 -0.52787,-0.03219 -0.36372,1.091144 0.38303,1.734886 0.84652,1.094363 0.103,-0.337965 0.56971,0.32509 0.39591,1.445202 0.97205,-0.09334 0.49246,0.527869 2.56532,0.836865 2.36253,1.886166 -0.46027,0.247841 -0.0451,0.608337 0.85618,1.178049 0.30256,0.62765 0.0998,1.107237 -1.00102,0.827209 0.412,0.553619 -0.20922,0.521432 -0.11266,0.315434 -1.77673,0.434526 -0.15449,-1.078269 -0.65662,0.180248 0.0708,-0.804678 -0.43453,-0.505339 -0.46349,0.0064 -1.03965,-1.052519 -0.41521,0.669492 -1.4452,-4.165015 -3.42471,-4.026611 -3.27022,-0.395902 -1.26173,-0.904458 -2.78419,-0.769273 -1.4098,1.367953 -0.51177,1.670513 -0.33475,0.0064 -0.83364,-1.445202 -4.34205,-1.435547 -1.13942,-0.917333 -2.40438,-0.965614 -0.16738,-0.782147 -0.8948,-0.849741 -1.38726,-0.511775 -1.32611,0.29934 0.41199,-0.923771 -1.10402,-1.329328 -0.33474,-1.27783 -1.10402,-0.392683 0.0579,-0.894802 3.19941,-0.331528 1.51923,-1.483827 -1.31967,-1.142643 0.40877,-0.637305 -0.0644,-1.181268 -1.58683,-0.637305 -1.68338,0.978488 0.67914,0.180248 0,0.685586 -0.71777,0.733867 -2.57175,0.627649 -0.19634,1.950541 -0.59868,0.196341 -0.31866,-0.640524 -0.17381,-0.366933 -0.4989,-0.02575 -1.00424,0.495682 0.86262,1.210236 -1.00102,0.04828 -0.65662,0.06437 -0.95596,0.643743 0.59547,0.817553 0.6373,2.407598 0.98171,0.698461 -1.67695,3.028809 -0.39912,2.674751 -1.21989,2.468754 1.3422,4.937506 2.23057,1.512796 0,0 0.48924,0.408777 -0.66305,0.592243 -0.412,-0.711336 -0.86261,-0.244622 -0.62765,0.514994 -2.14366,0.360496 -0.82721,-0.791804 -0.33153,-1.567513 -1.6158,-1.155518 -0.59224,0.241403 -0.35084,-0.543962 -0.57293,0.363714 -0.92699,-1.104018 0.73709,-2.649002 -0.71778,0.363715 0.18025,-1.087925 -0.87871,-0.872272 -1.02999,0.292903 -1.35186,2.265975 -0.6888,0.292903 -0.21244,-1.654419 -0.54074,0.05794 0.74352,-1.136206 -0.1899,-0.40234 -2.61038,-0.04506 0,0 -0.206,0.0064 0,0 -0.27681,-0.392683 0.27038,-0.370152 1.66729,-0.891584 0.72743,-2.455878 -1.00746,-0.119093 -0.90124,-0.782147 0.0193,-0.634087 0.68237,-0.717773 -0.81111,0.07081 -0.93987,-0.959177 0.36694,-1.85076 -1.03965,-0.370152 -1.26495,0.167373 0.0644,-0.434526 -1.24242,-1.187706 -1.55464,-0.328309 -0.13841,-1.065394 -0.84974,-1.203799 0.56006,-0.936645 -0.84974,-0.788585 -0.12875,-1.1523 0.0483,-0.711335 0.66306,-0.411996 -0.01,-1.0493 -1.28749,-0.434527 -0.40233,-0.534306 -0.75962,0.408777 -0.2414,-1.12655 -0.92699,-0.656618 0.53752,-1.20058 -1.8411,-0.289684 0.22209,-1.277829 -0.91412,-1.409797 1.86364,-0.589025 1.57073,-1.171611 -0.67593,-0.308997 -0.52143,-0.90124 0,0 0.45062,-0.486025 -0.0644,-1.207018 1.32611,-0.791804 1.01067,-1.660856 0.92055,-0.344402 -0.11587,-1.664075 1.88617,-1.37761 1.53532,-0.183466 0.95596,-1.055738 1.90226,1.448421 0.58259,-0.183467 0.70811,-1.110456 1.27783,-0.486026 1.45486,0.238185 1.11368,0.688805 0.48602,-0.19956 0.17703,1.152299 0.68237,-0.534306 1.34542,-0.119093 0.59868,0.740304 4.07167,-0.457057 0.85618,0.486026 2.14367,-2.597502 1.35507,1.754199 0.68237,-0.363715 0.35084,-0.553619 0.32187,-5.57803 1.18127,-1.210237 6.60158,0.302559 1.63511,0.778929 1.56107,0.03862 1.95698,-0.437745 0.69846,-0.930209 0.0515,-1.042863 1.45164,-0.94952 1.12012,0.01931 0.56327,1.319673 1.82501,-1.429109 2.18229,0.115873 z"
     class="land"
     title="Central Macedonia"
     id="GR-B" />
  <path
     style="fill:#cccccc;fill-opacity:1;stroke:#cccccc;stroke-width:0.16093569;stroke-opacity:1"
     inkscape:connector-curvature="0"
     d="m 114.63143,33.540628 1.33254,0.595462 0.91734,-0.267154 0,0 0.52143,0.90124 0.67593,0.308997 -1.57073,1.171612 -1.86364,0.589024 0.91733,1.409797 -0.22209,1.277829 1.84111,0.289684 -0.53753,1.20058 0.92699,0.656618 0.24462,1.12655 0.75962,-0.408777 0.39912,0.534307 1.28749,0.434526 0.01,1.052519 -0.66305,0.411996 -0.0483,0.711335 0.12874,1.1523 0.84974,0.788585 -0.56005,0.936645 0.84652,1.203799 0.1384,1.065394 1.55464,0.328309 1.24243,1.187705 -0.0644,0.434527 1.26496,-0.164155 1.03964,0.370152 -0.36693,1.850761 0.94308,0.959176 0.81112,-0.07403 -0.68237,0.717773 -0.0193,0.634087 0.90124,0.785366 1.01067,0.119092 -0.72743,2.455879 -1.66729,0.891583 -0.27037,0.370152 0.27681,0.392683 0,0 0.0515,-0.0032 0,0 0.103,0.869052 -0.52787,-0.344402 -0.21566,0.273591 0.22531,1.013895 -2.35288,3.048121 -0.72421,0.06759 0.0998,0.634087 -1.42589,1.940884 -1.04286,0.273591 -0.23497,0.717773 -0.9978,0.312215 1.21024,1.42589 0.30256,2.22735 -0.25428,0.514994 -2.31104,-0.663055 -1.26495,0.611556 -1.60614,-0.87549 -1.2907,0.492463 -0.79824,-0.589025 -1.11046,0.708117 -1.08471,-1.554638 -2.90006,0.215654 -0.65983,-0.434527 -0.95596,0.196342 -0.52143,0.746741 0.50212,0.07725 -0.1545,0.798241 -1.11046,0.743523 -0.97527,-0.17381 -0.93986,-1.197362 -0.59225,0.421652 0,0 -0.60511,-0.762835 -1.2553,-0.444183 -1.448424,0.37659 -0.463495,0.785366 -1.995602,-0.711336 -0.537526,-2.658657 -1.464514,-1.705919 1.255298,-0.212435 0.434526,-2.117913 -0.92377,-0.408777 -1.239205,0.437745 -0.627649,-1.744543 -0.920552,-1.152299 1.361515,-0.785366 -0.119092,-1.413016 -0.592243,-0.08047 0.370152,-0.495682 -2.114695,-3.469774 -1.303579,-1.348641 -2.748781,-0.543962 0,0 0.402339,-1.303579 -0.202779,-1.641544 1.042863,-0.502119 0.601899,-1.506358 0.865834,0.328308 0.997802,-0.183466 0.59868,0.505338 0.804679,-0.257497 0.405558,-1.924791 0.836865,-0.534306 0.244622,-0.743523 1.029989,-0.17703 0.405558,-4.087766 -2.111476,-2.713375 -0.02575,-0.939865 -0.756398,-0.312215 0.80146,-0.820772 -0.03862,-2.410816 4.982569,-0.03541 1.573952,-1.058957 1.44199,0.959177 2.88396,-0.720992 1.65442,-1.454859 1.36474,0.366934 1.7896,-0.144843 1.21346,1.696263 0.7403,-0.0097 1.2553,-1.194142 0.97205,-0.03219 0.0579,-1.087925 0.37981,-0.511775 z"
     class="land"
     title="West Macedonia"
     id="GR-C" />
  <path
     style="fill:#cccccc;fill-opacity:1;stroke:#cccccc;stroke-width:0.16093569;stroke-opacity:1"
     inkscape:connector-curvature="0"
     d="m 87.713324,55.981499 2.748781,0.543962 1.303579,1.35186 2.114695,3.466555 -0.370152,0.495682 0.595462,0.08047 0.119092,1.416234 -1.364734,0.782148 0.920552,1.155518 0.627649,1.744543 1.239205,-0.440964 0.92377,0.408777 -0.434526,2.117913 -1.255298,0.209217 1.464514,1.709137 0.537526,2.658657 1.998821,0.711336 0.463494,-0.785366 1.448426,-0.373371 1.25208,0.440964 0.60511,0.766053 0,0 -0.9817,0.173811 -0.29613,1.741324 -0.72743,0.06437 -0.006,2.443004 0.85296,1.203799 -0.17703,0.389464 -0.42487,0.177029 -1.001023,-0.952739 -0.988145,0.02897 -0.186685,0.608336 -1.097582,0.833647 0.968833,1.094363 -0.04828,1.145862 0.898021,0.29934 0.508557,3.006279 -0.659836,1.058957 1.02677,0.07081 0.0258,0.711336 -0.621212,0.218872 0.128748,0.354059 1.963414,1.837885 0.15128,1.425891 1.18771,0.759616 1.928,-0.06759 0.89481,1.132987 -0.0225,0.930208 0.58902,0.286466 -0.38946,1.171612 -1.43233,1.113675 -0.50856,0.933427 0.0676,0.679148 0.54075,0.460276 0,0 -2.96766,2.233782 -1.10723,-0.52143 -0.60834,0.38303 -0.489243,-0.58581 -0.479588,0.4474 -1.660856,0.2221 -0.589025,0.72421 0.35084,0.52786 -0.724211,0.2736 0.605118,1.15229 0,0 -1.17483,0.17703 -0.862615,0.81756 0.354058,0.69202 -1.252079,-0.42809 -0.473151,0.2929 -0.605119,-1.12654 -0.5504,0.0708 -0.772491,-0.95274 0.04506,-0.81756 -0.389464,-0.10943 -0.537525,0.37337 0.102999,0.65984 -0.733867,0.0418 0.267153,0.69524 -0.466713,0.13841 0.05472,-1.07506 -0.527869,0.16738 -0.15128,-0.67593 -0.447401,0.33474 -0.321871,-0.34118 0.830428,-0.61477 -0.894803,-1.1523 -0.534306,0.48924 0.611555,0.19956 -0.460276,0.32187 -0.209216,0.18669 0.03219,0.30899 -0.144842,1.11046 -0.907677,1.40336 -0.447401,0 2.645782,2.07607 -2.117913,-0.45062 0.02897,0.76927 -0.885146,0.0129 -0.798241,-1.70914 0.444182,-0.66627 -0.247841,-1.15552 -1.207017,-1.47739 -2.497722,-1.91513 -1.248861,-1.853982 -1.72523,-1.145862 0.03219,-2.179069 -0.431308,0.244622 -0.598681,-0.45062 -0.244622,0.312215 -1.097581,-0.434526 -0.234966,0.283247 -1.338985,-0.222091 -1.528889,-1.57717 -0.180248,-1.953759 -0.514994,-0.653399 -0.910896,-0.173811 0.22531,-0.270371 -0.746742,-1.367954 1.747762,-0.05794 -1.747762,-1.6512 0.399121,-0.212435 0.820772,0.42487 0.189904,-0.836865 -0.840084,-0.457057 -1.725231,0.228528 -0.489244,-0.39912 1.255298,0.138404 -0.955958,-0.595462 -0.885146,0.263935 0.84974,-0.898021 0.0515,-1.522452 0.572931,-0.505338 -0.02253,-0.65018 -1.303579,-0.473151 -0.785367,-0.820772 -0.360495,0.337965 -1.174831,-1.158737 -1.004239,0.189904 -0.437745,-0.52465 0.6019,-0.341184 1.731668,0.695243 1.087925,0.997801 1.767074,0.373371 1.055738,-0.112655 -0.231748,-0.646962 0.379809,-0.714554 0.94952,0.518213 0.04506,-0.904459 1.602919,-1.348641 -0.865834,-1.223111 0.424871,-0.682367 -0.50212,-0.865834 0.424871,-0.421652 2.233787,1.171612 0.936645,-1.171612 0.05794,-0.917333 -1.52567,-2.581408 -0.708117,-0.524651 0.205998,-0.856178 -0.949521,-1.6512 2.343224,-0.180248 0.52465,-2.108257 1.165174,-0.859397 1.081488,0.37659 0.656618,-0.730648 1.065394,0.692023 0.679148,-0.02253 0.823991,-0.17381 0.733867,-0.791804 1.496702,-0.17381 -0.04828,-1.178049 0.514994,-0.910896 -0.537525,-0.518213 0.08691,-0.907678 0.811116,-0.379808 0.52465,-0.959176 -0.418432,-1.924791 0.778928,-1.322891 0.788585,-0.373371 -0.154498,-0.5504 0.521432,-0.495682 z"
     class="land"
     title="Epirus"
     id="GR-D" />
  <path
     style="fill:#cccccc;fill-opacity:1;stroke:#cccccc;stroke-width:0.16093569;stroke-opacity:1"
     inkscape:connector-curvature="0"
     d="m 184.17173,102.70756 -0.12875,0.89481 0.34763,0.36693 -0.38947,0.27681 -0.37659,-1.27461 0.54718,-0.26394 z m -18.94213,-4.026606 1.43233,0.772491 -0.30578,0.672715 -0.69202,0.29612 -0.48924,1.23276 -0.46672,-0.52143 -0.51177,0.19634 -0.63409,-0.43774 -0.3959,0.27359 -0.0966,-0.66949 1.58682,-0.778931 -0.01,-0.646961 0.58258,-0.389464 z m 4.10386,-0.112655 1.31324,1.477391 2.13079,0.97205 0.22531,0.97205 0.36049,-0.3959 1.4098,0.28968 -0.74996,1.2553 -1.32289,0.71134 -0.65662,-0.76927 -1.13299,0.003 -0.13518,-1.21989 -1.84433,-2.74878 0.40234,-0.547181 z m 10.73119,-0.682368 0.12553,0.749961 0.33153,-0.128749 -0.22531,1.773507 -0.85296,0.0419 -0.46349,-0.646964 1.13942,-0.466713 -0.45706,-0.943084 0.26394,-0.769272 0.1384,0.389464 z m -0.66305,-2.17585 0.12553,0.482807 0.74674,0.321871 -1.65442,3.051341 -1.8057,1.80248 -0.98814,-0.11587 0.0322,-0.53753 1.4291,-0.856177 -0.36049,-0.968833 1.2553,-1.046082 1.21989,-2.134007 z m 3.47943,-2.993404 0.73387,0.733867 -0.1706,1.512795 -0.72421,0.521432 -0.57293,-0.37659 0.50212,-0.440963 -0.73065,-0.257497 0.32509,-1.132988 0.63731,-0.560056 z m 7.46098,-0.0097 -0.14806,1.248861 -0.30256,0.01931 0.0611,-0.959176 0.38947,-0.308997 z m -4.44183,-1.419453 0.23497,0.411996 -0.90446,1.261735 0.0129,-0.328308 -0.62121,-0.03863 0.63731,-0.428089 -0.0386,-0.640524 0.67915,-0.238185 z m -59.48504,-29.351449 2.61037,0.04506 0.18991,0.402339 -0.74353,1.136206 0.54075,-0.05472 0.21243,1.654419 0.68881,-0.292903 1.35186,-2.265975 1.02999,-0.292902 0.8787,0.872271 -0.18024,1.087925 0.71777,-0.363714 -0.73709,2.649001 0.92699,1.104019 0.57293,-0.363715 0.35406,0.543963 0.59225,-0.241404 1.61579,1.158737 0.33153,1.570732 0.83043,0.791804 2.14366,-0.360496 0.62765,-0.514994 0.86261,0.244622 0.412,0.714554 0.66305,-0.592243 -0.48924,-0.408777 0,0 1.07827,0.77571 0.0354,1.448421 0.73387,1.667294 3.33137,2.520253 1.27461,5.909558 1.11046,2.597502 1.40657,0.898021 0.56972,-0.09978 0.46671,0.836865 0.82721,0.02253 1.32933,1.02677 0.60512,1.467733 2.11469,2.330349 0.53431,1.277829 1.8926,1.763855 0.38625,1.744543 0.90124,0.936646 0.97527,2.121132 -0.42809,1.020335 -0.86262,0.73064 -2.73912,0.56006 -0.11909,0.33475 0.56005,0.23818 -0.6373,0.57937 -0.45062,-0.31865 -1.91192,0.73708 -1.41301,-0.0322 -0.64053,-0.42809 0.54075,-1.60292 0.71133,-0.103 0.41521,-0.64374 0.0515,0.8433 0.34119,0.0644 -0.83043,1.41946 0.43453,-0.10944 1.98272,-0.99458 0.15128,-1.19415 0.87549,0.47637 0.18025,-1.522447 -0.83365,-0.759616 -0.74996,-2.368973 -1.21989,-1.200581 -2.9065,-0.405558 -0.82721,-1.322891 -1.80248,-0.344402 -0.14806,0.39912 0.4635,0.222092 -0.43131,0.914114 0.59868,0.685586 -3.61783,0.846522 -0.0386,2.288505 1.02355,2.430129 0.71456,-0.73065 -0.26716,-0.598679 0.6019,-0.102998 -0.0966,0.746737 0.39269,-0.0805 0.32187,0.53108 0.29612,1.6158 0.54718,-0.006 -0.206,-0.69846 1.38405,1.22311 0,0.84974 0.51177,0.32831 -0.34762,0.4989 0.22853,0.65984 -0.99458,0.14806 -0.0354,0.97527 2.11792,-1.16518 0.9463,-0.0579 -0.29612,0.86905 -0.74352,-0.0547 -0.28325,0.412 0,0 -2.48807,1.30679 -1.3422,-0.26393 -0.65662,-1.05574 -3.15756,0.2414 -0.27681,-0.67593 -1.08148,0.0161 -0.721,-0.62765 0.0579,-0.50856 -0.55684,-0.22531 -1.88294,0.57937 -0.39269,-0.29934 -2.72947,0.0161 0.28003,-0.69202 -0.35084,-1.8572 0.3444,-0.59546 -1.66085,-0.38303 -0.17381,-1.725226 -0.88515,-0.379808 -0.49568,-1.116893 -3.0095,-0.344403 -0.64696,-1.351859 -0.45706,0.01287 -0.0966,1.004239 -0.58902,0.386246 -1.24886,2.30138 -0.93987,0.550404 0.12875,1.42267 -1.32933,0.90124 -1.14264,-0.11909 -0.83365,0.82077 0.33475,0.97527 -0.24784,0.1899 -2.62969,0.82721 -0.64696,-2.90006 -1.67373,-0.87871 -0.47315,-1.01389 -0.60834,-0.0869 -0.83365,1.28105 -0.88514,0.48603 -1.3744,-0.36372 -0.12874,-1.03642 0.4828,-1.268179 -1.23598,-0.318653 -0.33475,-0.981707 0.45706,-0.540744 -0.63409,-0.846522 -1.46129,-0.102999 -0.52465,0.498901 -0.85618,0.02897 -0.89159,0.920552 -1.2392,-0.766054 -1.32611,1.232768 -0.46671,-0.06437 0.0161,0.589025 -1.38083,0.907672 0,0 -0.0354,-0.029 0,0 -0.72422,-0.463488 0,0 -0.54074,-0.460276 -0.0676,-0.679148 0.50855,-0.930209 1.43233,-1.113675 0.38947,-1.171611 -0.58903,-0.286466 0.0225,-0.930208 -0.8948,-1.132987 -1.92801,0.06759 -1.1877,-0.759617 -0.15128,-1.42589 -1.963419,-1.834667 -0.12553,-0.354058 0.621209,-0.218873 -0.0257,-0.711335 -1.026767,-0.07081 0.659837,-1.058957 -0.508557,-3.006278 -0.898021,-0.299341 0.04828,-1.145862 -0.965614,-1.094362 1.097581,-0.833647 0.186685,-0.608337 0.988145,-0.02897 1.001021,0.952739 0.42487,-0.177029 0.17703,-0.389465 -0.85296,-1.203799 0.006,-2.443003 0.72743,-0.06437 0.29612,-1.741324 0.98171,-0.170591 0,0 0.59224,-0.424871 0.93986,1.200581 0.97527,0.17381 1.11368,-0.743523 0.1545,-0.798241 -0.50212,-0.07725 0.52143,-0.746741 0.95596,-0.199561 0.65983,0.434527 2.90007,-0.212435 1.0847,1.554638 1.11046,-0.708117 0.80146,0.589025 1.2907,-0.495682 1.60614,0.87549 1.26495,-0.611556 2.31104,0.663055 0.25428,-0.518212 -0.29934,-2.22735 -1.21024,-1.42589 0.9978,-0.312216 0.23497,-0.717773 1.04286,-0.27359 1.42589,-1.940885 -0.0966,-0.634086 0.72421,-0.06759 2.34966,-3.044903 -0.22531,-1.017114 0.21566,-0.270372 0.52787,0.344403 -0.103,-0.869053 0,0 0.103,-0.05794 z"
     class="land"
     title="Thessaly"
     id="GR-E" />
  <path
     style="fill:#cccccc;fill-opacity:1;stroke:#cccccc;stroke-width:0.16093569;stroke-opacity:1"
     inkscape:connector-curvature="0"
     d="m 85.733815,146.47885 1.467733,2.24666 1.792824,0.27359 2.378629,1.2199 -0.09334,1.10401 2.65222,1.68661 -0.12553,0.83043 -2.513815,-1.09758 -0.994582,0.42487 -0.746742,0.97205 -0.164154,0.55362 0.605118,0.51821 -0.01287,0.55362 -0.762835,0.3444 -0.743523,-0.39912 -0.05472,-0.55362 -0.92699,-0.52787 -0.376589,-0.86261 -1.879729,-1.28427 0.131967,-0.6373 -0.772491,-0.48925 0.228529,-0.56327 -0.888365,-0.24784 -0.634087,-0.89803 -0.12553,-1.69626 0.556838,-1.02033 1.696262,-1.37439 0.305778,0.92377 z m -4.239046,-20.62873 0.560056,0.26393 0.383027,2.19838 0.463495,0.14484 0.492463,2.8196 -0.820772,0.84974 0.733867,1.49992 0.556837,0.26715 0.952739,-1.00746 -0.122311,0.67271 0.646962,-0.0579 0.431307,1.35508 3.019154,4.05557 -0.814335,2.12436 -0.627649,-0.44097 -0.656618,0.29934 -1.229548,-0.32509 -2.401161,-1.7381 -1.335766,0.59546 -0.12553,0.43131 -1.577169,-0.43453 -0.717773,-0.68237 0.234966,-0.50534 -0.617993,-0.87549 0.196341,-0.49568 -0.366933,-0.73386 0.994582,0.97205 0.199561,-0.18347 -1.87651,-4.04592 -0.62765,0.4474 0.47637,1.53854 0.02575,2.40116 -1.680169,0.46028 -0.17381,-0.65018 -1.078269,-0.47315 0.569712,-3.03847 0.518213,0.0322 0.379808,-0.6373 0.29934,-2.80672 0.321872,0.73386 0.910896,-0.76927 0.186685,1.10402 0.637305,0.0515 0.202779,0.55362 1.638326,-1.20058 0.379808,-0.74674 -0.254279,-0.56328 0.292903,-0.28646 -0.347621,-3.05456 0.746742,-0.11909 z m 2.533127,-1.08471 0.811116,0.46671 -0.428089,1.08793 0.814335,-0.0869 -0.06759,0.45706 0.57615,0.50856 -1.017114,2.55565 0.798241,-0.30577 0.128749,-0.48925 0.247841,-0.18668 0.601899,0.18668 0.209216,2.15332 0.695243,0.33797 -1.303579,0.6888 -0.885147,-0.73708 -1.432327,-4.36458 -0.759617,-0.90446 0.09334,-0.53109 0.852959,0.31866 0.06437,-1.15552 z m 3.765895,-6.3473 0.27681,-0.0998 -0.04828,0.4474 0.553619,-0.16094 -0.115874,0.61156 -0.672711,0.40555 -0.463495,-0.17381 -0.292903,0.73387 -0.560056,-0.50856 0.138405,-1.04608 0.682367,0.34119 0.502119,-0.5504 z m -2.510596,-6.57262 0.743523,0.1545 -0.354059,0.56971 0.531088,0.95918 -0.228529,1.64798 0.395902,1.19736 -0.505338,0.90446 0.312215,2.71016 -0.32509,0.35406 -0.537525,-0.64053 0.148061,0.79181 -0.788585,0.57293 -0.508557,-0.29291 -0.437745,1.1523 -0.186685,-0.83042 -0.531088,0.0966 -0.556838,-1.22633 -1.557857,2.60072 0.370152,-4.40964 1.293923,-3.68221 1.371172,-1.93445 0.746742,0.0451 0.605118,-0.74031 z m -13.502504,-11.29446 0.914115,0.99136 -1.094363,-0.35406 -0.212435,-0.36371 0.392683,-0.27359 z m -2.658657,-3.196186 1.0493,0.621211 1.081488,1.889385 -0.939864,-0.05472 -1.075051,-0.823991 -0.469932,-0.894802 0.01609,-0.692023 0.337965,-0.04506 z m -8.066097,-21.481695 2.919374,1.638325 -0.756398,1.52567 -1.670512,0.57615 -0.981708,0.894803 0.08047,0.717773 0.605118,0.444182 -0.572931,0.180248 0.205998,0.440964 2.443003,0.865834 -0.663055,2.108257 0.5504,3.109278 0.247841,0.479588 1.779949,0.518213 0.514994,0.907677 1.052519,-0.360496 0.511776,-0.711336 1.448421,3.077091 -0.296122,0.692023 -3.212276,-1.384047 -1.171612,-0.946302 -1.390484,-0.234966 -1.120112,-0.894802 -0.637306,-1.541764 -0.03219,-1.886166 -0.563275,-1.029988 -2.542783,-1.886167 -0.6019,-1.110456 0.215654,-0.762835 -1.599701,-0.22531 0.267154,-1.219892 -0.479589,-0.344403 -0.360496,0.428089 -0.321871,-1.660856 0.885146,-1.680168 1.207018,0.386245 1.007457,-0.35084 1.313235,0.302559 1.718793,-1.062175 z m -13.138788,-1.493483 0.936645,-0.115874 -0.656617,0.87549 -0.968833,-0.09012 0.135186,-0.997801 0.553619,0.328309 z"
     class="land"
     title="Ionian Islands"
     id="GR-F" />
  <path
     style="fill:#cccccc;fill-opacity:1;stroke:#cccccc;stroke-width:0.16093569;stroke-opacity:1"
     inkscape:connector-curvature="0"
     d="m 97.507869,131.63414 -0.598681,1.20058 -0.138404,-0.62121 0.379808,-0.103 -0.02897,-0.55362 0.386246,0.0772 z m 21.182351,-0.85296 0.77893,0.46994 1.9441,-0.1545 1.18449,0.64052 0.73065,-0.0837 0.46028,1.03642 1.14908,0.4989 0.34762,0.64374 0.88514,-0.45062 1.10402,1.74777 1.4098,0.6373 0.48602,0.71777 1.61902,0.37016 1.87973,-0.18991 1.08148,1.22955 0,0 0.0998,2.17263 -0.4474,2.10826 -1.12655,1.40014 -0.58258,0.0644 -0.32831,0.81111 -1.49349,0.40234 0.1545,1.35508 -0.7049,0.93343 1.15874,1.85397 -1.55464,0.47637 -1.06539,1.0493 -1.12655,-0.3798 -0.23819,-0.46672 -0.64374,0.0869 -1.31323,1.39692 -2.00848,-0.58259 -1.15874,-0.88836 -0.58259,0.0869 -0.92699,-0.7918 -0.25749,-0.93021 -2.17907,1.64476 -0.47315,0.79181 -0.0515,1.96019 0.50856,1.98917 -0.5504,3.39252 0.32187,0.28003 1.2038,-0.57293 1.10723,0.0869 1.05574,1.77029 0.74031,0.23818 1.45163,1.63833 -3.11893,1.87007 0.2575,1.63833 -1.22311,0.4313 -4.45792,-0.0644 -0.48603,0.40556 0,0 -1.7381,-3.65646 -2.4076,-2.99662 -4.88601,-3.43115 -1.14908,0.003 -0.42487,1.04608 -0.27037,-1.70592 0.51499,-0.8433 -0.56649,-2.14367 -2.2016,-1.76063 -3.260556,-1.17161 -0.06437,-1.41624 0.534307,-2.07285 0.363714,-0.19634 0.749961,0.5858 0.881927,-0.3283 3.032027,-3.13503 1.85398,-3.60174 0.10943,-3.51162 0.5311,0.0901 0.60512,0.86583 1.23598,-0.27359 2.22735,1.60292 2.1855,0.3959 1.93123,-0.90446 1.26495,-1.56751 0.88515,-2.58785 0.99458,-1.16839 1.31967,-0.0998 0.72743,-0.78859 z m -21.919436,-3.12859 0.42487,0.22853 -0.193123,0.86906 -0.543963,-1.54821 0.312216,0.45062 z m -4.393544,-6.42777 -1.161956,1.55464 0.218872,0.52465 -0.337965,-0.0161 0.04506,-0.92377 0.997802,-1.33899 0.238185,0.19956 z m 0.605118,-1.82501 -0.955958,1.17483 -1.213455,0.50856 0.109436,0.39268 -0.534306,0.48281 -0.06116,-0.82721 0.965614,-1.68339 1.689825,-0.0483 z m 11.825552,-19.627713 0.72421,0.463493 0,0 0.0193,0.0161 0,0 0.01,1.12976 0.97527,1.18127 -0.64696,1.70914 -0.97527,1.05896 0.10944,0.54718 3.07709,1.4967 1.05895,2.74556 2.63935,0.8079 0.27359,0.51499 -0.21887,0.59868 -1.21024,0.12231 -0.71456,1.72202 0.74353,2.31747 3.47621,1.22955 1.89582,-0.38625 0.34762,1.40336 1.02999,-0.33153 0.60512,-1.8411 1.81535,0.33475 1.25208,-0.45706 0.0547,-1.56108 1.58039,0.22853 0.78215,1.12333 -0.0129,0.54397 -0.7564,0.38624 -0.31543,0.77249 0.44096,2.6651 -0.96239,0.70168 1.3068,0.71777 -0.57615,1.54176 0.24784,0.97849 -3.27022,1.7188 -0.27359,2.41081 -0.64374,0.82721 0,0 -0.53752,-0.43131 -1.30358,0.70168 -0.63731,1.71236 -1.83467,-0.85296 -0.66305,0.18669 -1.14586,-0.40234 -0.58903,0.55683 -0.90124,-0.0611 -0.30256,0.58902 -2.07607,1.18127 -0.74674,-0.13197 -1.80248,-1.04286 0.76606,-0.15772 1.18448,0.96884 -0.3959,-1.29393 0.39268,-0.58258 -0.51821,0.0966 0.003,-0.57937 -1.21024,0.39268 -0.41199,-0.24784 0.4474,-0.41521 -0.38625,-0.58903 -0.21887,0.62121 -0.96239,-0.71455 -0.2221,-1.3937 -0.26071,-0.309 0.17381,-0.206 -1.24886,-1.91513 -0.48603,0.69524 1.40014,1.58683 -0.34762,0.2414 -0.01,1.68017 -1.33255,0.42487 -0.27359,1.29714 -1.31324,0.26393 -0.7403,0.62122 1.31645,0.3444 -2.912933,0.18347 -0.479589,-0.22531 -0.19956,-1.10724 -0.933427,0.0837 0.238185,-0.96561 -0.489244,-0.17059 0.189904,-0.68881 0.177029,0.54719 0.617993,-0.96562 -0.04184,-0.52787 0.730648,0.12875 0.189904,-0.28646 -1.355079,-0.23175 0.366934,-0.27037 -0.679149,-1.48061 0.164155,-0.41522 -0.579369,-0.52143 0.411995,-1.37761 -0.547181,-0.12231 -0.991364,1.11368 -0.518213,0 -0.08047,-0.84653 -0.434527,-0.30577 0.42487,-2.57819 -0.978489,-1.50314 -0.01287,-0.90124 -2.137226,-0.14806 -1.194143,-4.4032 -0.730648,-0.0676 -1.277829,1.33577 -0.06437,-0.30578 -0.885147,0.46993 -1.277829,-2.19516 0.395902,-1.47095 1.448421,-0.57293 -1.248861,-1.95698 0.514994,-1.2907 0.634087,1.19414 0.617993,0.26393 0.888365,-0.0966 0.682367,-1.33576 -0.04184,1.39692 1.281048,-0.12553 0.370152,-1.00102 0.643743,0.60512 1.029988,-0.4635 0.547181,0.9109 0.846522,-0.3605 -0.167373,1.14908 1.728449,1.24564 0.569712,-1.78316 1.474171,0.70168 0.466714,1.09114 0.289684,-0.17059 -0.25106,-1.30358 -0.769272,-0.69202 0.379808,-2.55244 -1.396922,-2.02779 0,0 -0.605118,-1.1523 0.72421,-0.27359 -0.347621,-0.52465 0.589025,-0.72421 1.660856,-0.22209 0.479589,-0.44741 0.489245,0.58581 0.60833,-0.38303 1.11046,0.52143 2.95156,-2.259533 z"
     class="land"
     title="West Greece"
     id="GR-G" />
  <path
     style="fill:#cccccc;fill-opacity:1;stroke:#cccccc;stroke-width:0.16093569;stroke-opacity:1"
     inkscape:connector-curvature="0"
     d="m 188.44297,142.50374 0.4989,0.64374 -0.16738,0.69203 -1.24886,0.0837 0.22531,-1.46773 0.69203,0.0483 z m 6.49214,-35.14835 2.58463,1.83466 -0.3605,1.85398 2.82603,1.88617 0.45384,0.58259 0.003,1.24886 -1.27139,0.31865 -0.47315,0.0773 -1.0654,-0.99137 -0.57615,0.22531 0.0579,0.85618 -0.37659,-0.7403 -0.6888,-0.28003 1.10401,-0.72421 -0.11587,-1.18449 -0.88836,-0.35084 -0.88515,0.37337 -0.64374,-0.49568 -0.44097,-0.51177 -0.20921,-0.47959 -0.77249,0.12553 1.02998,-1.42589 -0.53108,-1.0654 0.19634,-0.69524 0.8433,-0.80146 0.19956,0.36372 z m -34.30183,-2.41404 1.02033,0.88515 1.07827,0.31221 -0.14484,0.84331 0.39912,0.79502 1.3068,0.27681 -0.0708,1.90548 0.60511,0.70811 -0.30899,0.20278 0.61477,1.16518 3.32815,2.52347 0.87549,0.28324 0.64374,0.60834 0.57615,-0.20278 0.60834,0.34762 1.05574,-0.66627 1.50958,2.29494 2.97087,1.26174 1.01067,-0.26394 1.73489,0.66628 0.77249,-0.78859 0.79502,0.34119 1.04931,-0.52787 3.16399,1.28105 -0.93664,0.87227 0.0161,1.17161 3.13503,2.66831 -1.27783,1.47095 -0.17703,1.84755 0.74674,0.9978 -0.4635,-0.0837 -0.26393,0.58259 0.8594,0.4989 0.19634,0.66305 -0.38625,0.88515 0.96883,0.79824 -0.12553,0.45384 0.60512,0.58259 -0.20921,2.14688 0.69524,1.11367 1.25208,0.64375 0.34118,-0.21566 0.0129,0.69846 0.61799,0.45384 1.3422,-0.40878 0.84331,0.78859 3.56633,0.15772 1.22311,-0.5665 -0.4828,1.84754 0.41521,1.61902 -0.14484,1.37761 -0.76928,1.62867 -1.83788,1.07827 -0.63087,-0.37338 -0.38624,-1.45485 -1.17483,-0.47316 -0.76284,0.28003 -0.17381,0.72421 0.48603,0.27681 -0.4635,0.62443 -0.35728,-0.0837 -2.00204,-2.31104 0.49247,-0.65018 -0.40234,-0.92055 -0.58581,0.0483 -0.0998,-0.54718 -0.72421,-0.40878 -1.68017,0.2929 0.37337,-1.33576 -0.98492,-0.24462 0.92055,-1.31646 -0.72099,-1.81213 -1.31968,-0.40556 -0.3798,0.69846 -0.309,-0.46671 1.22633,-1.72524 -0.1545,-0.41843 -0.43453,-0.0901 -0.75317,1.09758 -0.48281,-1.03965 0.56327,-0.30899 -0.12874,-1.0493 -2.52669,-0.44097 1.0493,-0.44418 -0.27359,-1.98273 -0.88515,0.17381 -0.63409,-0.52786 -0.9463,0.67914 -2.03423,0.0805 -2.00204,-0.78215 -0.97849,0.618 -2.68762,-0.92377 -1.41302,0.50533 -0.77249,-1.78316 -0.31865,-0.28969 -0.65984,0.26394 0.46028,-1.05252 0.6019,0.0483 0.32187,-1.12333 -1.03643,-2.34323 -2.53956,-0.59546 -0.59546,-1.77995 -1.2199,-0.58258 -0.56649,-1.22955 -1.20058,-0.50212 -1.8926,-2.40438 -1.14586,-0.19312 -2.44945,-2.46554 -1.74132,-0.65983 -1.61258,0.49568 -1.10401,-0.55362 -0.32188,-1.0493 -2.00204,-0.25106 -0.41843,0.56971 0.94309,0.103 0.24784,0.7918 -0.93665,0.52787 -2.09216,-0.0805 -1.61902,0.50534 0.63087,-1.67695 4.53195,-1.50314 1.17161,-1.26817 0.94952,0.11266 0.31222,-1.50636 1.09436,-0.88837 2.18873,0.0805 0.66305,-0.61799 2.15332,-0.68559 z m -55.06575,-4.67679 1.38083,-0.907677 -0.0161,-0.589024 0.46672,0.06437 1.32611,-1.232767 1.2392,0.766054 0.89158,-0.920553 0.8594,-0.02897 0.52465,-0.498901 1.4613,0.102999 0.6373,0.846522 -0.45384,0.540744 0.33475,0.981708 1.23599,0.318652 -0.47959,1.268173 0.12875,1.03642 1.37439,0.36372 0.88514,-0.48603 0.83365,-1.27783 0.61156,0.0869 0.47315,1.01389 1.67373,0.87871 0.64696,2.90006 2.62969,-0.82399 0.24784,-0.1899 -0.33475,-0.97527 0.83365,-0.82078 1.14586,0.1191 1.32933,-0.89802 -0.12875,-1.42268 0.94308,-0.550392 1.24887,-2.30138 0.58902,-0.386245 0.0966,-1.004239 0.45706,-0.01287 0.64696,1.35186 3.0095,0.344402 0.49568,1.116894 0.88515,0.379808 0.17381,1.725232 1.66085,0.38303 -0.3444,0.59546 0.35084,1.8572 -0.28003,0.69202 2.72947,-0.0161 0.39268,0.29934 1.88295,-0.57615 0.55684,0.22531 -0.0579,0.50855 0.72099,0.63087 1.08471,-0.0161 0.27681,0.67593 3.16078,-0.24141 0.65983,1.05574 1.34221,0.26394 2.48806,-1.3068 0,0 -0.88514,2.26919 -0.61478,-0.29934 -0.61799,0.57615 -0.23175,0.29934 -0.63409,0.36693 -1.79926,-0.27037 -0.76283,1.41302 -2.05354,0.74674 -1.42589,-0.72421 -0.43453,0.35728 -0.72421,-0.14485 -0.58902,-0.77892 -0.88515,-0.31866 -2.00848,1.09437 0.18025,0.38302 -0.79824,0.49247 1.45164,-0.25106 -0.7564,0.60833 0.0547,0.55362 0.58903,-0.2414 0.0772,0.58259 0.35083,-0.0225 0.35406,-0.66305 0.13841,0.83043 0.63408,-0.57615 0.48925,0.20921 1.50636,-0.76927 2.03744,2.62647 1.67373,-0.34762 1.18127,1.29714 0.98493,-0.81111 1.94088,1.11367 1.95376,-0.41199 0.88193,1.21667 -0.0386,1.41302 0.64053,1.59648 0.64696,0.61155 0.8079,-0.72099 1.57395,-0.23818 -0.71456,-0.87549 0.93987,-0.19956 1.49992,1.29392 1.80248,0.10622 0.78858,1.33254 -0.97527,0.63087 -0.28968,0.72421 0.55684,-0.0193 0.5504,1.37117 0.29612,-0.23496 0.9463,0.46027 -1.31324,0.28969 -0.0901,0.71455 2.13401,-0.40878 0.23496,0.42809 1.48383,-0.029 1.48383,0.7049 0.68558,-1.1008 0.40556,0.14806 1.17805,1.26174 -0.82077,0.67593 0.14162,0.27037 0.84009,0.12875 -0.0901,0.97527 1.08471,0.21243 0.23818,1.63511 1.42911,0.94952 0,0 -0.0354,0.54396 -0.67593,0.16416 -0.82721,1.68339 0.1545,2.61681 -0.41522,1.14908 -1.4098,0.53753 -0.41199,0.66305 -1.32933,0.16416 -0.33796,-0.63087 -1.09437,-0.21888 -0.44096,-1.79926 -2.26919,-0.23496 -0.17381,-0.58259 0.58258,-0.19312 0.18669,-0.71456 -0.40556,-0.58258 -1.71236,0.26393 -0.92055,0.83687 0.24141,1.49348 -0.33153,0.50534 -1.93123,-0.17703 -2.76809,0.8079 0,0 0.48924,-0.53109 -0.88514,-0.90446 -1.30358,1.33577 -1.11046,-0.30256 0.67271,-0.55684 -0.78215,-0.71134 -1.81857,-0.0354 -0.28646,-0.32187 -0.74997,0.23174 -0.19634,0.53753 0.77893,-0.18991 0.67271,0.7049 -0.82721,0.18347 -0.77571,-0.4635 -0.53752,-1.47417 -0.35406,0.50212 -0.48603,-0.37981 -0.71455,0.30256 -1.78639,-0.33152 -0.45062,-0.48925 0.99459,-1.03964 -3.00306,-1.50314 -0.22853,-1.73167 -0.78859,-0.79502 -0.84974,0.3959 0.55362,0.32509 -0.32509,0.62121 -0.48602,-0.53109 -0.721,0.40556 -0.26393,0.96883 0.62443,0.33475 -0.54074,0.42809 -0.14163,0.95918 -0.91411,-0.13197 -0.97527,-1.63833 0.57615,-0.56971 -0.9624,-1.3937 -1.43554,-1.68661 -1.07827,-0.16093 -0.48925,-0.6534 -0.0805,0.60512 0.52144,0.75318 -0.63087,0.0225 -0.62443,0.75639 0.82721,0.97527 -0.53109,0.0161 -0.12553,0.64696 0.46028,-0.0579 -0.50856,0.56971 -0.54718,-0.13518 -0.006,-0.45384 -1.01389,0.18347 -0.71134,-0.4474 -0.35084,0.65339 -1.03321,-0.90124 -1.59326,0.89803 -0.2929,0.63086 -0.79181,-1.03642 -0.59546,0.0451 -0.32187,-0.70168 -0.63087,0.01 -1.52245,-1.02999 -1.36795,0.17381 -1.33577,-0.56006 -0.66305,-0.0354 -1.11046,1.31967 -1.30358,-0.38303 0,0 0.64374,-0.82721 0.27359,-2.41081 3.27022,-1.71558 -0.24784,-0.97849 0.57615,-1.54176 -1.3068,-0.71777 0.96239,-0.70168 -0.44096,-2.6651 0.31543,-0.77249 0.7564,-0.38625 0.0129,-0.54396 -0.78215,-1.12333 -1.58039,-0.22853 -0.0547,1.56108 -1.24886,0.45706 -1.81535,-0.33475 -0.60512,1.8411 -1.02999,0.33153 -0.34762,-1.40336 -1.89582,0.38625 -3.47621,-1.22633 -0.74353,-2.31748 0.71456,-1.72201 1.21023,-0.12231 0.21888,-0.59868 -0.27359,-0.51178 -2.63935,-0.80789 -1.05896,-2.74556 -3.07709,-1.49671 -0.10943,-0.54718 0.97527,-1.05574 0.64696,-1.70913 -0.97527,-1.18127 -0.01,-1.12977 0,0 0.0129,0 z"
     class="land"
     title="Central Greece"
     id="GR-H" />
  <path
     style="fill:#cccccc;fill-opacity:1;stroke:#cccccc;stroke-width:0.16093569;stroke-opacity:1"
     inkscape:connector-curvature="0"
     d="m 160.25991,219.39881 0.17703,-0.35728 0.57293,0.37659 0.23818,2.0986 -1.0493,-1.14264 -0.56971,-1.81536 0.63087,0.84009 z m -9.70442,-17.78661 0.93342,2.11791 1.75098,1.06539 1.61258,1.64155 -0.34118,0.84974 -1.07505,0.0708 -0.20922,3.12859 -1.3937,-0.53753 -0.28647,0.50534 -0.37659,-0.67271 -1.01389,-0.22209 -0.94309,-1.49348 0.24141,-0.45384 -0.4635,-0.67915 0.74353,-0.62121 -0.35728,-0.66949 0.26715,-0.6695 -0.91733,-1.21989 0.87549,-2.02457 0.95274,-0.11587 z m 15.27923,-42.36471 -0.0225,0.95917 0.23175,-0.22531 0.95274,0.63731 -0.74353,0.62765 -1.20379,-0.17059 -0.95596,-0.38625 0.0451,-0.34118 1.44842,-0.25106 -0.0805,-0.67915 0.32831,-0.17059 z m -2.84212,-3.00306 0.85939,1.01067 -0.79502,1.85076 -0.32509,0.32188 1.22633,0.95273 -0.98493,0.26716 2.67797,1.19414 0.0193,0.37337 1.16839,0.69846 0.15128,0.67593 -0.76927,0.54075 -2.12114,0.41521 0,0 0.83043,-1.84432 -0.84974,-0.26716 -0.5858,0.45706 -1.60292,-0.11909 -0.12231,-0.44097 -0.90124,0.0773 -0.26716,-0.95274 -3.59208,-1.07183 -0.26715,-1.03642 0.90124,-1.54499 0,0 1.27139,0.43453 0.75639,1.03965 1.80248,0.86905 1.02677,-0.72743 -1.00423,-1.74776 -0.83043,-0.3959 0.6019,-0.73709 1.72523,-0.2929 z m -0.98171,-2.57175 0.42809,0.0161 0.19956,0.62765 -0.92377,0.73386 -0.47315,-0.10621 0.34118,-1.10724 0.42809,-0.16415 z m 4.00086,-2.24667 2.21448,0.31544 -0.31866,0.70168 -0.54396,0.10943 -0.29934,1.80248 -1.30358,0.66628 -0.90124,-0.52144 0.53431,-0.37337 -0.10944,-0.38946 -0.87871,-0.67271 -0.4989,-1.22955 2.10504,-0.40878 z m 0.0579,-8.34934 1.16839,0.53753 -0.0998,0.52786 0.0451,0.26072 -0.0869,0.29612 0.65661,0.16094 -0.19956,0.27681 -0.12553,0.20278 0.22531,0.54718 -0.38946,0.51499 -0.56327,-0.0772 0.0547,0.63087 -0.76927,-0.14484 -0.14484,0.49246 -1.19414,0.47637 -1.20058,-0.76283 0.11587,-1.26174 1.79604,0.21244 0.93987,-1.44521 -2.2177,0.412 -0.19634,-0.21244 0.98171,-0.50534 -0.99137,-0.30899 1.62224,0 -0.12231,-0.54396 0.69524,-0.28647 z m 6.94276,-12.21502 1.04287,-0.12553 0.50855,0.62121 0.618,-0.24462 0.71777,0.61478 3.50196,1.00423 3.44402,3.10928 -0.43774,0.63409 0.63408,0.73065 -2.84856,2.00847 0.62443,1.42589 -0.0547,1.26496 0.90446,1.49348 -0.60511,0.39268 0.21887,1.39693 -0.52465,0.64052 0.91411,0.0998 0.43453,0.74352 -1.09758,0.4635 0.49246,0.71133 0.52465,-0.20599 0.38625,0.66627 -0.32188,1.2907 1.09759,0.93665 0.0644,0.57937 -0.36693,0.83364 0.19956,0.49569 -0.78215,0.38946 0.52787,1.84754 -0.54396,0.14806 -0.64696,1.05574 -2.67797,-0.77249 0.18668,-1.79604 -1.01068,0.0644 -0.2414,-1.95698 -0.46993,-0.0386 -0.54718,-0.93021 -1.48061,-0.78858 -0.50534,0.77571 -0.2929,0.10943 -0.23497,-0.59224 -0.18025,0.0805 -0.49246,-0.10622 0.39912,-0.76283 -0.85296,-0.515 0.32187,-0.38946 -0.67593,-0.41522 -0.26393,-1.23276 -1.07827,-0.9109 0.21887,-0.37659 -1.17805,0.0386 -0.46349,0.4635 -0.26715,-0.27681 -0.0354,-0.18347 -0.43453,-0.32509 0.12231,-0.49568 -1.62223,0.0869 -0.0837,-0.66628 0.55362,-0.44096 0.29612,-0.18347 0.5504,-0.45384 -0.12875,-0.9302 -0.59224,-0.412 -0.97849,0.42809 -0.57615,-0.45062 -0.97527,0.71455 -1.05252,0.029 -1.05574,1.34221 -0.78859,0.28324 0.94952,0.38947 -5.08234,-0.24784 -1.79283,0.86583 0,0 -0.36693,-0.71455 -1.8057,-0.78537 0.65018,-1.12333 -0.40556,-0.21887 0.0805,-1.15874 0,0 2.79063,-1.40014 0.0386,-0.65018 -1.05252,-0.30578 -0.12875,-0.64374 1.43233,-0.27037 -1.19092,-0.60834 -1.67052,-0.0386 0,0 2.7681,-0.80789 1.93123,0.17703 0.33152,-0.50534 -0.23818,-1.49348 0.92055,-0.83365 1.71236,-0.26394 0.40555,0.58259 -0.18668,0.71456 -0.58259,0.19312 0.17381,0.58259 2.26919,0.23496 0.44097,1.79926 1.09436,0.21887 0.33797,0.63409 1.32932,-0.16415 0.412,-0.66306 1.4098,-0.53752 0.41521,-1.14908 -0.1545,-2.61682 0.82721,-1.68339 0.67593,-0.16415 0.0354,-0.54396 0,0 1.1877,0.16415 z"
     class="land"
     title="Attica"
     id="GR-I" />
  <path
     style="fill:#cccccc;fill-opacity:1;stroke:#cccccc;stroke-width:0.16093569;stroke-opacity:1"
     inkscape:connector-curvature="0"
     d="m 151.11876,196.98047 0.40234,1.90869 -0.6019,-0.74352 -1.00102,0.55684 0.003,-0.93665 1.19736,-0.78536 z m -34.69773,-8.51672 0.45062,0.0933 -0.28325,1.62224 -0.85617,-0.88515 0.29612,-1.18449 0.39268,0.35406 z m -1.71879,-1.46451 0.40877,0.13518 -0.17381,0.65984 -0.55683,0.2575 -0.16738,0.78536 -0.0418,-1.6866 0.26072,-0.41844 0.27037,0.26716 z m -4.49976,-9.4244 -0.1545,0.62443 0.0579,-0.57293 -0.39912,-0.30256 0.53109,-0.31221 -0.0354,0.56327 z m 45.01049,-8.35578 1.41945,0.79824 -0.0579,0.68881 -0.77249,0.18025 -0.63409,-0.47637 -0.64052,-1.03965 0.68559,-0.15128 z m 6.76895,-2.41403 0.18347,0.57937 -0.81112,0.38946 -0.80146,0.0451 -0.52787,-0.4474 1.19415,-0.52143 0.2929,0.43131 0.46993,-0.47637 z m 6.08981,-0.81756 0.56649,0.21566 -2.25632,0.82077 0.0322,0.88836 -1.64154,0.0386 -1.46774,0.87549 -0.0676,-0.31222 -0.9109,0.0772 2.89363,-1.91513 1.60614,-0.68237 0.53108,0.31222 0.71456,-0.31866 z m -17.19115,-25.77224 1.67373,0.94309 0.40556,-0.33153 0.46993,0.40234 1.8411,-0.32831 0,0 -0.0805,1.15874 0.40555,0.21887 -0.65018,1.12333 1.8057,0.78537 0.36693,0.71455 0,0 -1.32932,1.12977 -3.5245,0.45062 -1.62223,-1.64154 0.40878,-1.02034 -1.73167,-1.28426 -1.01711,-0.27681 0.43774,-0.29291 -1.2038,0.12875 1.0139,-0.92699 2.33035,-0.95274 z m -17.10425,-2.30138 1.15874,0.41844 2.21448,-0.18347 1.47095,1.05574 2.81959,1.06217 2.53957,1.55464 1.87972,2.39151 1.80248,1.15551 1.23599,0.2221 1.75098,-0.7564 1.62223,1.64154 -0.64052,1.02999 0.42165,1.18127 2.97731,-0.0386 0.93021,0.56006 1.05252,1.05574 0.0579,0.95274 -0.81755,0.75639 -0.65662,-0.0322 -0.29934,0.95917 1.63833,0.59868 -0.65984,1.34543 0.54396,1.30679 -0.42808,0.67593 1.26173,0.96562 0,0 -0.90124,1.54498 0.26715,1.03643 3.59209,1.07183 0.26715,0.95274 0.90124,-0.0772 0.12231,0.44096 1.60292,0.11909 0.58581,-0.45705 0.84974,0.26715 -0.82721,1.84432 0,0 -0.3959,0.25428 -1.84754,-0.46027 -1.29393,0.42487 -0.90124,-0.0547 -0.25106,0.81433 -1.06539,0.30256 0.25106,0.46028 1.2553,0.6019 -2.43013,0.19312 -0.40234,0.65984 0.57937,1.11045 -0.88515,0.206 -1.18127,-1.01068 -0.47958,-0.68236 0.75961,0.23496 -0.39912,-0.59546 -1.63511,-0.38303 0.22853,-0.84974 -0.30899,-0.54396 1.08148,0.0386 0.28969,-1.1523 0.62121,0.46349 0.32187,-0.18668 -0.63087,-1.29071 -1.8926,0 -0.37337,-0.25428 0.31865,-0.27037 -0.28003,-0.55362 -1.19092,0.74674 -0.8948,-2.0986 -2.2016,-0.55362 -1.25208,0.73709 -0.93987,-0.55362 0.0451,-0.60512 -1.27461,-1.6512 -1.70592,0.90446 0.57937,1.77351 -0.32831,1.10724 0.63086,0.81755 -0.0161,0.8079 0.68237,0.62765 -0.53431,1.11046 1.29392,1.18126 1.29071,2.50416 -0.15128,0.40556 0.71134,0.39912 -0.21244,0.54718 0.58581,0.34762 1.06217,1.97951 -0.56327,1.63833 0.15449,0.93342 0.62444,0.36694 0.28646,-0.39269 0.72743,0.006 0.17381,0.98493 0.67271,0.26393 0,0.44419 -0.54718,0.0547 1.11689,1.6673 0.074,1.43232 -0.41843,0.39269 0.52143,0.17703 0.029,1.05252 1.15874,2.78418 -0.19956,0.41844 0.83043,0.72099 0.49246,1.55786 0.58902,0.48602 -0.74352,0.50534 0.074,1.06217 -0.82721,-0.57293 -0.36049,0.55684 -0.50534,0.0225 0.12875,3.67899 1.30679,1.73811 2.18229,1.48061 -0.68558,1.39048 0.9978,0.4989 0.0805,0.60512 0.81433,0.22209 0.16415,0.66949 -1.63832,-0.003 -0.41843,0.45706 -1.28427,-0.3959 -0.66306,-1.20702 0.1706,-0.93664 -0.87549,-0.87871 -2.01814,0.19956 -0.42165,-1.16196 -0.48924,-0.26393 0.0193,-0.81434 -1.98595,-1.66085 0.31866,-0.003 0.074,-0.66949 -1.03965,-1.3583 -0.50212,-0.0869 -0.32831,1.17483 -0.39268,-0.98814 0.49568,-1.14586 -1.03642,-3.00628 -4.63173,-0.27037 -1.66086,1.04286 0.26715,1.55786 -1.55785,0.94952 0.24784,0.32831 -0.30256,0.4828 0.79502,0.4474 0.074,0.78537 -1.04608,-0.61477 -0.45706,0.28968 0.84652,1.55464 -0.54396,0.50534 -0.3959,-0.62122 -0.55362,0.19635 -0.11909,3.05134 0.89802,1.51923 -0.0612,1.53211 -0.56327,0.36693 0.56006,1.09436 -0.62122,0.18991 -0.62765,-1.94411 -1.70269,-1.02677 -0.23819,0.34441 -0.65662,-0.22209 -0.57615,-1.22633 -0.006,-0.56006 1.23598,-0.50212 -0.12553,-1.2392 -0.41199,-0.0644 0.41521,-0.5504 -0.66949,-0.32509 0.37337,-0.54074 -0.38625,-0.80146 0.58581,-0.13519 -0.63087,-0.76605 0.81112,-1.0493 -0.96884,-0.0322 -0.46349,-0.58259 -1.24564,-3.71117 -1.10724,-0.9109 -0.89802,-1.96663 -0.71777,-0.43775 -0.8594,0.57937 -1.32289,-0.88837 0.57615,-0.85939 0.0901,-2.83569 -2.99018,-0.34118 -3.32172,1.61579 -0.24784,4.25192 0.48281,1.96342 0.82399,0.55684 -0.89802,0.47637 -0.0869,0.81433 -1.62866,1.40336 -0.40556,-1.13299 -0.94309,-0.93343 -0.18668,-0.96883 -0.42809,-0.14484 -1.38083,0.74674 -0.24784,-0.48602 -1.37761,-0.4635 -0.72743,-2.68119 0.91734,-2.01491 -0.80146,-0.48925 -0.721,0.23819 0.14807,-0.515 -0.63409,-1.40657 -1.92479,-1.99883 0.22209,-1.19414 -0.4474,-2.00848 0.39912,-1.76063 2.5975,-2.15332 0.69524,-1.39692 -0.47637,-3.17687 0,0 0.48603,-0.40556 4.45792,0.0644 1.22311,-0.4313 -0.2575,-1.63833 3.11893,-1.87007 -1.45164,-1.63833 -0.73708,-0.23818 -1.05574,-1.77029 -1.10724,-0.0869 -1.2038,0.57293 -0.32187,-0.28003 0.5504,-3.39252 -0.50533,-1.98917 0.0515,-1.95697 0.47316,-0.78859 2.17906,-1.64476 0.2575,0.93343 0.92699,0.7918 0.58581,-0.0869 1.15873,0.88837 2.0117,0.5858 1.31324,-1.39692 0.64374,-0.0869 0.23818,0.46671 1.12655,0.37981 1.0654,-1.0493 1.55464,-0.47637 -1.15874,-1.85398 0.7049,-0.93343 -0.1545,-1.35508 1.49348,-0.40233 0.32831,-0.8079 0.58581,-0.0644 1.12655,-1.40014 0.4474,-2.10825 -0.0998,-2.17264 0,0 -0.0161,-0.0225 z"
     class="land"
     title="Peloponnese"
     id="GR-J" />
  <path
     style="fill:#cccccc;fill-opacity:1;stroke:#cccccc;stroke-width:0.16093569;stroke-opacity:1"
     inkscape:connector-curvature="0"
     d="m 251.32697,157.71216 0.41844,0.74996 -0.24784,0.50534 -0.42809,-0.0515 -0.11266,-0.50856 -0.99458,0.14806 1.36473,-0.8433 z m 2.00526,-2.05354 0.61799,0.50534 -0.15127,0.77893 0.4989,-0.006 -0.67593,1.21024 -0.81756,0.37337 0.54075,0.93342 -0.32831,0.88837 -0.88837,-1.65764 0.0451,-1.11689 0.30256,-0.0933 0.32188,0.83686 0.68236,-0.54074 -0.0901,-0.9463 -0.54718,-0.13519 0.48924,-1.02999 z m -4.30664,-1.13299 -1.21345,2.00204 -2.90006,2.18873 -3.02238,0.50856 -1.69304,1.52889 -2.29494,0.15449 -0.0966,-0.6534 0.95274,-1.70591 2.15653,-2.22092 1.89905,-0.0901 1.41945,0.46028 2.87109,-1.93445 1.92157,-0.23819 z m 11.45219,-4.57057 2.5975,0.21244 0.90446,0.97849 1.3422,0.27037 1.07505,0.88514 0.34762,-0.28002 -0.71777,-1.17484 0.85618,0.31544 -0.12553,-0.49568 0.40234,-0.1191 0.23496,0.6695 1.93445,-0.0515 -1.19093,0.98492 0.49247,0.47637 -0.17059,0.35406 0.77571,0.029 0.20921,0.43775 -0.93986,0.45705 -1.64476,-0.10621 -0.824,0.70167 -1.1362,0.16094 -0.8948,0.71455 -0.0708,0.8079 -0.59224,0.18025 -1.74132,-0.18025 -1.34864,-2.01491 -0.94309,-0.50212 -2.20482,0.26071 -0.57615,0.83687 -0.9302,0.22531 -0.71456,-2.0632 0.86584,-1.12011 1.20701,-0.33474 1.02999,-0.93343 2.49129,-0.58259 z m -13.7761,-25.74649 0.25428,0.78537 -0.42809,-0.0869 -0.0869,-0.91411 0.26071,0.21565 z m -2.77131,-0.99458 2.40438,0.72421 -0.0869,0.43453 -0.57293,0.28646 -0.52787,-0.46671 -0.73064,0.0451 -0.48603,-1.02355 z m -19.25113,-0.27037 0.12553,0.73064 -0.89802,-0.074 0.4474,-0.72743 0.32509,0.0708 z m 14.09153,-2.00526 0.98171,0.55684 0.5858,-0.1545 0.62444,1.35186 1.19414,0.0515 0.27037,-0.41844 0.66949,0.4989 0.0966,0.59547 -0.28002,1.46773 -0.73387,0.25428 -0.10944,0.45062 0.53431,0.0193 0.33796,0.65984 -0.57615,1.93122 0.23819,2.43013 0.5504,0.40234 -0.0161,0.66628 -1.65442,1.45807 0.37981,1.41624 -0.48925,0.88193 -1.74132,0.37015 -0.76284,1.90548 -0.52787,-0.59869 -0.74674,-0.11909 -0.4989,-1.02355 -0.70812,0.0869 -0.01,-0.51178 -1.11368,-0.31865 -0.0547,-1.06861 -0.62443,0.0258 0.35084,-1.09759 1.22311,-0.94308 1.33577,0.1545 0.23497,-1.20702 0.63408,-0.47315 -0.0386,-1.14908 -0.9978,-1.12333 -0.49247,-2.08251 -2.2885,-1.18127 -0.93021,-1.95376 0.7564,-1.26173 4.39676,-0.94952 z m -12.43067,-0.103 1.23599,0.68237 -0.34119,2.05675 -1.14908,-0.38302 -0.12553,-0.7049 -1.01711,-1.11046 1.39692,-0.54074 z m 22.39903,-28.463085 0.33796,0.12553 -0.4828,0.711335 0.18024,0.305778 2.00204,0.508557 -1.32289,2.150101 2.75844,1.863635 0.77249,1.647981 1.13943,0.466718 -0.29291,0.9817 0.50534,0.0998 0.28647,1.56108 1.56429,1.88295 -0.15128,1.33576 -1.47417,-0.15771 -1.27461,-1.33577 0.60512,-0.50212 -0.87549,-1.7381 -0.62443,-0.32831 -0.99459,0.40877 0.11588,0.95596 2.31103,2.25632 0.37981,1.2392 -0.74352,0.62765 -3.45368,0.30256 -2.07607,-0.51821 -2.69406,-1.45808 -1.4098,-0.0225 -0.44096,0.43453 -1.38405,-2.06642 -1.03643,-0.45705 0.58903,-0.77893 0.88514,0.22853 0.91412,-0.46028 0.59224,-0.9463 2.68441,-1.09115 0.40878,-1.03964 -0.93665,-0.737086 -1.7542,-0.151279 -0.96883,0.370152 -1.63511,3.415053 -0.43452,-0.28003 -0.59225,0.95918 -1.87329,-0.67593 -1.63189,0.0386 -0.30899,-0.77571 -2.01814,-0.93343 -0.10621,-0.6019 -1.07827,-0.646963 0.5504,0.07403 0.074,-2.729469 1.40979,-1.042863 -0.01,-0.428089 0.54074,-0.01609 0.11588,0.6019 1.9795,0.03219 0.6695,-0.553619 1.25851,-0.04828 3.07066,-1.120112 0.37659,-0.437745 -0.39269,-1.25208 0.50534,-0.312215 3.75946,0.228529 0.74996,-0.611556 0.37981,0.440964 z m -38.62135,-6.55652 1.16518,0.955958 -2.05032,2.42691 -0.31222,-2.449441 0.65984,-1.293923 0.53752,0.360496 z m 12.10237,-17.142868 0.23174,1.126549 -1.57073,1.338985 -0.0354,1.306798 -0.82721,0.0064 -0.0676,0.753179 0.37981,0.02575 -0.86583,0.479588 0.46349,0.714555 -0.40556,0.228528 0.0772,0.592244 0.82399,0.917333 -0.6019,0.379808 0.0901,0.717774 -1.56108,-0.415215 -0.37659,-0.537525 0.16738,-0.547181 -0.83687,-0.305778 -0.49568,-0.791803 0.60834,-0.553619 -0.2221,-0.312215 0.47637,-0.798241 -0.65018,-0.627649 -0.66627,0.07403 -1.22955,1.007457 0.33475,0.280028 -0.59546,1.02677 0.81755,0.32509 -0.0257,0.798241 0.79502,0.907677 -2.86144,-0.280028 0.71456,-1.62545 -0.78859,0.469932 -0.46349,-0.65018 -2.10826,0.663055 0.55684,-0.70168 -0.51178,-0.222091 0.69525,-2.272412 -0.71778,-0.563275 -0.23496,-2.079289 1.81857,-0.07725 1.09436,-0.653399 0.32831,0.672712 0.5665,0.0032 1.77673,-0.62443 0.4474,0.656617 0.75961,-0.04184 -0.26071,1.007458 0.73065,0.315433 -0.43131,0.292903 0.46349,0.267154 0.75318,-1.010676 0.41843,-0.112655 0.13841,-0.270372 0.98493,-0.962396 -0.0386,-0.634086 0.93343,0.489244 1.28105,-1.132987 -0.27681,0.959177 z"
     class="land"
     title="North Aegean"
     id="GR-K" />
  <path
     style="fill:#cccccc;fill-opacity:1;stroke:#cccccc;stroke-width:0.16093569;stroke-opacity:1"
     inkscape:connector-curvature="0"
     d="m 267.46882,235.25741 0.34119,-0.0386 -0.38625,0.8079 -1.24242,0.56006 -0.77249,1.05574 -0.74997,0.0611 -0.65018,0.79502 -1.14264,-0.70168 1.72523,-2.17907 0.84009,0.18025 2.03744,-0.54074 z m 6.21212,-14.06578 0.38303,-0.01 0.0837,0.62765 -0.67593,1.42267 0.22531,1.58361 -0.77249,1.02355 0.0676,0.58259 -0.91089,0.92055 0.0129,1.14265 -0.36049,0.28646 1.96019,2.37863 -0.54718,0.64696 0.14163,0.64053 1.07827,0.58902 -0.36372,0.7918 -0.71455,-0.30899 -0.33797,0.66627 -0.52465,0.01 -0.65984,1.31967 0.53109,0.0966 -0.98492,0.87871 0.27359,-0.37981 -0.34441,-0.63087 -0.62764,0.0418 -0.91412,-0.68559 1.14908,-1.50314 -0.41199,-0.87549 0.18024,-1.31001 -0.95274,-0.70812 -0.43452,-1.02033 1.68017,-1.63833 0.0483,-1.54498 1.16517,-1.31967 0.0193,-2.78741 0.68559,0.0386 0.85296,-0.96561 z m 0.3959,-2.63291 0.29612,0.0483 -0.19956,2.57819 -1.40336,-1.08792 0.49247,-0.0933 0.4313,-1.34865 0.38303,-0.0966 z m 68.3526,-9.29242 -0.15771,0.56649 0.4313,0.24784 -1.24886,0.74031 0.35406,-1.08471 0.62121,-0.46993 z m -57.63106,-2.84213 0.62443,0.18025 0.11909,0.59546 -1.28427,0.72099 0.006,-0.3798 -0.77249,-0.0869 -1.07827,0.42809 0.0611,-1.16839 2.32392,-0.28969 z m 3.49874,-1.3068 -0.59225,1.42589 -0.22531,-0.48924 0.44419,-0.38625 -0.74353,0.27681 0.0322,-0.3283 0.4474,-0.52144 0.63731,0.0225 z m -30.29132,-2.80993 0.63087,0.59868 -0.38946,0.66627 -0.28325,-0.14484 -0.36693,-0.2414 -0.18025,-0.69525 0.58902,-0.18346 z m -26.10376,-1.39049 2.51381,1.71558 -2.24988,0.32831 -1.19736,-0.32831 -0.309,-0.54718 1.24243,-1.1684 z m 70.85032,-1.79926 0.3605,0.39912 -0.32188,1.23599 0.53431,0.59868 -1.10724,1.31324 0.12553,1.02676 -1.14908,1.5128 0.0129,1.02355 -0.79502,0.82399 -0.31222,1.49027 -0.91411,0.10299 -0.86906,1.53855 -0.1545,1.14908 0.91734,0.13841 -0.71777,1.05573 0.32509,0.74031 -1.76064,-0.82721 -2.09538,1.09436 -2.5106,4.18111 -1.86042,1.33255 -1.37761,0.44418 0.56972,-0.53109 -1.02355,-0.78858 -0.4635,-0.93343 1.02033,-2.57497 0.0612,-2.91616 -0.25106,-0.3959 -1.02355,-0.10943 0.0869,-0.81756 -0.85617,-0.73064 2.29816,-1.29715 1.12011,-2.95799 1.0493,-0.3605 1.61579,-1.8572 6.37628,-3.05778 1.93122,-0.0579 0.97527,-1.27461 0.18347,0.28646 z m -82.79175,0.3959 -0.35084,0.23497 0.18347,0.85296 -0.81756,-0.36693 0.37659,-1.36474 0.60834,0.64374 z m 2.05676,-0.75639 1.70592,1.98916 -0.0676,1.5997 -1.26495,1.02355 -2.56854,-0.91733 0.34119,-0.31865 1.3937,0.15128 0.58903,-1.12977 -0.57294,-1.32611 0.12232,-0.82399 -1.36152,-0.14806 -0.0869,-0.51822 0.56972,-0.35405 0.94308,0.26715 0.2575,0.50534 z m 55.76743,-0.73065 0.97205,1.67695 -0.12231,0.75318 0.5504,-0.22853 0.52465,0.59224 0.2929,-0.52143 0.36694,0.33797 -1.71236,1.13298 -0.53109,-0.94952 -0.30899,0.34762 -0.26394,-1.40657 -1.18127,0.70489 -0.0225,-0.41521 -0.55362,-0.12875 0.18991,-1.55464 0.86905,0.4635 0.32509,-0.74353 0.60512,-0.0612 z m 14.63227,-1.76386 0.30256,0.26394 -0.57937,0.16737 0.27681,-0.43131 z m -20.05258,-3.19296 0.48602,-0.0257 0.74031,1.2038 -0.60834,1.02033 -2.03745,-0.52465 0.25106,-1.41301 1.1684,-0.26072 z m 19.21572,-0.79824 -0.60512,0.73065 0.63408,0.23174 0.99137,-0.59546 -0.46993,0.62443 0.63408,-0.14806 0.10622,0.31544 -0.0869,0.76605 -0.52143,0.1899 0.52143,0.18991 -0.44418,0.35406 0.42809,0.65983 -0.92699,0.4635 -0.47315,-0.16416 0.61156,-0.68558 -0.71134,-0.44419 -0.8433,0.25428 0.50212,-0.82721 -1.30358,0.0644 -0.0708,-0.54396 0.19312,-0.29613 0.36049,0.30256 0.34441,-0.96239 1.12977,-0.47959 z m -41.65981,-0.0869 1.69626,1.31646 0.57937,0.95596 -0.76606,0.006 -0.82721,0.27037 -1.54176,-0.19956 -0.34762,0.4635 0.14162,0.7564 -0.51177,0.15771 0.77249,1.08149 -1.2199,0.11588 -0.60189,-0.52144 -0.40878,0.13519 -0.32187,-1.16517 -0.4635,-0.23819 0.31544,-0.21887 0.103,-0.86584 0.28002,-0.42808 0.57937,0.10621 0.97205,0.89481 1.17483,-0.86906 0.58903,0.3959 -0.87871,-1.86363 0.68559,-0.28647 z m 42.27458,-0.71133 0.0644,0.64696 -0.83042,0 0.0193,-0.39912 0.74674,-0.24784 z m -86.39349,-0.0322 1.11689,1.02999 1.08149,0.28646 0.45062,0.88837 -0.35406,0.34118 -0.86905,-0.1545 -0.66949,-1.20701 -0.95274,-0.0451 -0.68237,-1.00102 0.87871,-0.13841 z m 65.69394,-0.41199 0.0579,0.28002 -0.58259,0.074 -0.28003,1.01068 -0.27681,-1.02999 0.48281,-0.0257 0.309,-0.56327 0.28968,0.25428 z m -57.02595,-1.42589 0.4474,0.11587 -0.88192,1.34542 -2.08251,1.40658 -0.59868,-0.0129 0.97205,-2.00525 1.2907,-0.79825 0.85296,-0.0515 z m -21.27891,-2.06642 -0.0966,0.48603 1.23276,0.59546 1.19415,-0.93987 0.9978,0.37659 -0.40556,0.57294 0.47637,1.43876 -0.22531,0.69524 -0.3605,0.46672 -0.32187,-0.18347 -1.27783,0.61155 -0.78858,-0.44096 -0.28647,0.37981 -3.27021,0.4989 0.45384,-2.13723 -0.33475,-0.3798 0.80146,-1.25852 0.52465,0.71455 0.68237,-0.21565 0.18025,1.27461 0.67593,-0.006 0.28646,0.412 0.9109,-0.34119 -0.27681,-0.85296 -0.62765,0.0966 -0.84008,-1.11046 0.13196,-0.6888 0.56328,-0.0644 z m 5.62309,-0.53752 1.01711,0.28324 -0.0805,1.1523 -1.19415,-0.27037 -0.31543,-0.93343 0.57293,-0.23174 z m 19.75003,-0.0483 0.67271,0.82399 -0.18025,0.43452 1.04608,0.27359 1.14908,1.20702 -0.64696,0.63087 0.37337,0.88514 -0.23174,0.66306 -0.53109,-0.25106 -0.31866,0.62765 -1.80891,-2.59428 -0.97849,-0.006 -0.006,-1.95376 0.37015,-0.59224 1.09115,-0.14806 z m -30.71941,-0.48925 0.31544,0.38303 -0.37337,0.84652 -0.58903,-0.46671 -0.0772,-0.67915 0.72421,-0.0837 z m 9.11862,-1.4452 0.37015,0.46349 0.50212,-0.30256 0.39912,0.43131 -0.84974,1.69626 -1.03321,0.24463 -0.58258,-1.73167 1.19414,-0.80146 z m 26.39667,-0.72421 0.0161,1.34864 -0.68558,0.26715 -1.02677,-0.27681 1.33898,-1.50314 0.35728,0.16416 z m 1.48383,-0.98493 0.31865,1.3937 -1.10724,-0.77892 0.78859,-0.61478 z m 3.55989,-0.54718 0.62122,0.22531 0.28002,0.95274 -2.14044,-0.16737 0.19956,-0.59868 1.03964,-0.412 z m 47.32153,0.3605 1.47095,0.19312 0.46028,1.12977 -5.40422,1.88616 -1.62223,1.74133 -2.03745,-0.33797 -1.6866,0.55684 -0.35728,0.37981 0.40556,0.83686 -0.54075,0.46028 0.21244,1.17161 -0.6019,-0.13197 -0.82721,-1.01711 -0.0483,-2.15654 2.18872,-0.28968 2.21126,-2.76166 2.70372,-1.40658 1.98595,-0.24784 1.2392,-0.76927 0.24784,0.76284 z m -37.01199,-1.49671 2.3207,1.50958 -1.08149,-0.16093 -1.93767,0.62121 -3.39252,3.45368 -1.10402,0.0611 -0.7564,0.68559 -1.55785,-0.53753 -0.16738,-0.52143 0.45384,0.26715 0.79502,-0.90445 1.79605,0.14162 0.01,-0.62765 -0.2414,-0.30578 0.18025,-0.52465 2.90971,-1.19414 0.90768,-0.67593 -0.64696,-0.2414 0.12875,-0.31544 1.38404,-0.73065 z m -11.2494,-0.42165 0.19312,0.4989 -0.86261,0.20922 0.01,-0.6534 0.65984,-0.0547 z m 43.72622,-0.32187 0.26716,0.33475 0.38946,-0.34762 0.515,0.23818 -0.62765,0.60834 0.71777,0.59868 -1.24886,-0.11909 -0.73065,-1.21668 0.71777,-0.0966 z m -61.76389,-0.50212 1.19092,0.33797 -1.22311,0.45705 -0.45062,-0.47958 0.48281,-0.31544 z m 55.39728,-1.59326 0.40556,0.37015 -0.21888,0.57937 -0.93986,-0.79502 0.75318,-0.1545 z m -12.93601,0.18668 0.99458,0.515 -1.01067,-0.26715 -0.515,0.1899 0.19312,0.24462 -0.54718,-0.0901 -0.12553,-0.63087 1.01068,0.0386 z m -52.60987,-1.07826 1.93444,0.73386 1.6158,2.34644 -1.70592,1.89583 -1.37439,-2.76488 0.61155,-0.48281 -0.66949,-0.16093 0.2414,-0.32509 -0.23496,-0.60834 -0.55684,-0.14806 0.13841,-0.48602 z m 12.63023,-0.25106 0.35406,0.14484 -0.89802,2.6844 0.33152,1.12334 -1.62223,-1.63833 0.2929,-0.0579 -0.14484,-0.87227 1.68661,-1.38404 z m 52.48434,-0.97527 2.65544,1.01711 0.21244,0.35728 -0.6019,-0.14163 0.91411,0.90124 -0.0129,0.48603 0.87549,-0.38303 0.4989,0.66306 -0.66306,1.30358 0.67915,0.46993 -1.93445,-0.20278 -0.10621,0.95918 -1.17162,-0.029 -0.3444,-0.73065 -0.48281,-0.0805 0.58259,-0.76605 -0.23496,-0.60512 0.43452,-1.25852 0.81434,0.18669 -0.78537,-1.00424 -0.78537,0.22209 0.13519,-0.58581 -1.09436,-0.71455 0.41521,-0.0644 z m -30.75159,-1.95376 -0.36371,0.19956 0.64696,0.50533 -0.33153,0.81756 -0.92377,-0.103 -0.6019,-1.20058 0.54718,0.38946 0.46028,-0.76605 0.56649,0.15772 z m -17.47439,-0.7564 0.28002,0.2414 -0.72421,0.62443 0.309,0.27037 1.20058,-0.18346 0.003,-1.00746 0.86583,0.29612 -1.11689,2.30782 0.60512,1.10724 -0.87871,1.50636 -1.7542,1.15873 -1.20702,-0.30256 -0.32187,-0.50855 -0.38303,0.24462 -0.57615,-0.93343 0.24784,-1.65764 1.4098,-0.9302 -0.73065,-0.18669 0.77249,-0.95918 1.99883,-1.08792 z m 9.00918,-1.77995 1.43554,1.96342 0.31222,1.0493 -0.21566,1.04608 -0.18025,0.47959 -1.01711,4.22939 -1.2038,0.0933 -1.72523,1.38083 -0.72099,-0.57293 0.0129,-1.27783 -1.10724,-0.309 0.1545,-0.66627 -0.81112,-1.09115 0.41521,-0.57937 -0.78858,-1.1877 -0.49246,-0.0933 0.30899,-0.59225 0.79181,0.0708 -0.0322,-0.67593 1.22311,-0.94952 1.44842,-0.50855 0.91412,-1.42267 1.27783,-0.38625 z m 36.76414,-0.0612 1.35508,0.47959 -0.57293,0.89802 1.11367,0.27038 -0.46027,0.41199 0.87227,0.9463 -0.0579,0.73065 -1.31001,-0.0225 -0.34762,-0.44096 -0.23175,-0.0483 -0.46672,-0.79825 -0.26393,-0.59868 -0.0676,-0.45705 -0.9109,-0.35728 0.38625,-0.77249 0.68558,0.11909 -0.19956,-0.33796 0.47637,-0.0225 z m -66.78831,-0.16093 0.99781,0.40878 -0.26394,1.19736 0.33153,0.15128 -0.0161,0.94308 -0.55362,-0.54074 0.0161,0.9463 -0.64374,0.38302 -0.26394,-0.0966 0.26716,-0.4474 -0.99459,0.0322 0.0354,-0.52787 -1.3583,0.57615 0.7564,-2.34644 0.59224,-0.54397 0.45384,0.16738 -0.0193,-0.34762 0.66305,0.0451 z m 74.88016,-3.60818 -0.12875,0.51499 0.4474,0.412 -0.46671,0.19312 -0.22531,-0.76927 0.37337,-0.35084 z m -10.55416,-0.82721 0.97205,0.79824 0.85296,-0.0901 -0.1191,1.16839 -0.57615,-0.12553 -0.029,-0.6888 -0.44097,0.26715 -0.89158,-0.40556 -0.17059,-0.62443 0.38302,0.0515 0.0193,-0.35084 z m -4.55448,-1.86042 1.32933,1.42911 -1.36152,-0.40877 -0.31222,0.34762 -0.0901,0.66305 0.62121,0.71778 -0.42809,0.38946 0.3959,0.8433 -0.45062,0.0257 -0.47636,-0.28968 0.40233,-0.53753 -0.82399,0.1191 0.38947,-2.44301 -0.22531,-0.72099 0.5504,0.34118 0.47959,-0.47637 z m 4.62529,-0.67593 0.91733,0.89481 -0.4474,0.41199 -0.0644,-0.48602 -0.73709,-0.47315 -0.003,-0.81434 0.33475,0.46671 z m -43.5331,-1.48704 0.54718,0.70168 -0.0676,1.00746 0.49569,-0.30256 0.0611,0.31221 -0.15771,0.60834 -0.32188,-0.3444 -0.63086,0.65018 0.29612,-0.90124 -0.3959,-0.24141 -0.48603,-1.20701 0.57293,0.25427 0.0869,-0.53752 z m 50.81383,-1.3068 0.30256,0.37337 -0.38947,0.69524 -0.3444,-0.46349 -0.40878,0.50212 -0.31865,-1.00746 -0.43453,-0.10943 1.59327,0.01 z m -73.4092,-0.20278 -0.37016,1.40658 0.49891,0.0644 -0.074,0.43453 0.78215,0.0354 0.45706,1.14586 -0.34118,0.29934 -0.0869,-0.3959 -0.35728,0.0644 -0.39268,1.82501 -1.3068,1.38083 -0.92699,0.27037 0.0644,-1.16195 0.91733,-1.21346 -0.35084,-0.42165 0.27359,-1.2907 -0.88514,0.11265 -0.0419,-0.41843 1.02677,-1.47739 1.11368,-0.65984 z m 26.21964,-0.67915 0.40877,0.16416 0.42166,0.61799 0.34118,-0.64696 0.4989,0.0322 0.20278,0.54718 0.5504,-0.0805 -0.006,0.40878 0.92699,-0.12553 -0.0676,1.06539 -1.0493,0.12231 -0.68559,1.03965 -0.37015,-0.33153 -1.08471,0.69202 -0.77893,-0.68558 -0.29934,0.0837 -0.35084,-0.42487 0.18991,-0.31221 0.47315,0.47959 0.1899,-0.77893 -0.62121,-1.28105 1.11046,-0.58581 z m -13.31904,-0.5343 1.29071,0.4474 0.43452,0.59868 0.1545,1.03643 -0.41843,0.88836 0.47637,0.074 0.56649,1.07505 -2.752,1.37761 0.19956,-1.09436 -0.85618,-0.14484 0.6534,-0.88837 -0.43131,-0.2575 1.08793,-0.62765 0.0129,-1.70591 -0.70489,-0.65018 0.28646,-0.12875 z m -4.26158,-4.29699 0.18669,1.49993 -1.71879,-0.56328 0.61155,-0.86261 0.92055,-0.074 z m 7.3773,-1.52567 0.33796,-0.0579 0.8433,0.28646 0.40878,-0.27037 0.30256,1.05574 1.68017,-0.18347 0.92055,0.37015 0.9978,0.0644 2.02135,1.07183 -0.58258,2.649 -1.33577,0.49247 -1.36473,-0.96562 -0.7564,0.074 -0.33797,-1.09114 -1.14908,-0.49247 -2.60072,-2.3915 0.0225,-0.47315 0.59225,-0.13841 z m -18.60417,-0.3444 0.32187,-0.029 0.87549,0.36372 0.52787,1.06861 -1.52889,2.6136 -2.2885,1.87651 0.10621,-2.02136 -0.45062,-0.16415 0.32831,-0.63087 -0.27359,-0.31865 0.80146,-1.85076 0.60512,0.0354 0.28003,-0.84009 0.69524,-0.103 z m -5.75506,-2.04388 0.0322,0.70812 -1.30358,2.78096 -0.0257,-1.34864 0.97205,-2.69084 0.32509,0.5504 z m 18.51404,-9.33749 0.0129,1.01711 1.12655,0.31544 0.23496,1.8572 3.38609,0.43774 0.006,0.99458 -0.63409,1.02677 1.33255,1.02355 -0.8079,1.60614 1.3937,-0.0193 -1.3937,2.36575 0.2575,0.81434 -1.47417,-1.27783 -0.63087,-1.73811 -1.10402,-0.36049 -0.98171,-1.6158 -0.60512,0.13197 0.103,-0.58259 -0.93021,-1.5321 -1.6512,0.0773 -0.5858,-3.27022 1.69626,-1.12011 1.24886,-0.15128 z"
     class="land"
     title="South Aegean"
     id="GR-L" />
  <path
     style="fill:#cccccc;fill-opacity:1;stroke:#cccccc;stroke-width:0.16093569;stroke-opacity:1"
     inkscape:connector-curvature="0"
     d="m 182.74262,254.94628 1.5128,0.42487 -0.28969,1.02677 0.53431,0.89802 -2.34322,-1.23277 -0.37659,-0.55362 0.67915,-0.0257 0.28324,-0.53753 z m 61.22316,-16.1515 -0.31544,0.44096 -0.75962,-0.24462 1.07506,-0.19634 z m -0.0966,-0.81112 0.01,0.50534 -0.47959,0.029 0.46993,-0.53431 z m -27.90302,-3.93005 0.83042,0.54396 -0.23174,0.9624 -1.62545,-0.66949 1.02677,-0.83687 z m -42.7928,-7.99207 1.05252,0.83687 -0.3605,0.59546 0.49246,3.74337 2.00526,0.72742 4.11674,0.54397 1.2038,-0.25106 0.44418,-0.23175 0.12553,-1.01711 1.00746,-0.0708 -0.4989,-1.02034 0.34762,-0.38302 1.1877,-0.27359 1.4967,0.52465 0.76606,1.68338 -0.56328,1.28105 -0.70489,0.31544 -2.1662,-0.53109 -0.57937,0.6019 1.62223,0.76283 0.94309,-0.0258 1.06217,0.78537 1.56108,-0.92055 0.59868,1.76707 -0.0676,2.0986 0.63408,0.33153 1.78961,0.17381 2.16619,-0.66627 3.54381,-0.14807 1.95697,-0.64374 1.10402,-0.96239 1.49992,-0.28003 3.8528,0.71133 1.16518,-0.0837 0.37337,-0.43453 0.90768,0.64374 1.0847,0.0386 0.52465,-0.71777 0.46672,0.35405 0.84652,-0.22531 0.23818,0.73709 0.49247,-0.21887 -0.206,1.08148 0.44096,1.13621 2.9065,-0.21243 0.93343,0.11909 0.19634,0.45706 1.25208,0.0483 3.94614,-0.31544 1.97307,1.65764 6.34731,-1.93445 0.85617,0.41522 2.39794,-0.19313 -0.3283,0.84009 -0.95918,0.49246 -0.15772,1.3937 0.52143,1.1169 -0.74674,0.42809 0.21887,1.05895 -0.44096,0.4989 0.55684,1.62224 0.94308,-0.0161 1.3583,0.71778 1.21024,-1.62545 0.43774,0.14806 0.87549,-0.67915 0.0547,-0.56971 1.44842,0.21243 0.51499,-0.68559 1.03965,0.0644 0.7564,-1.03643 0.97848,-0.0451 0.70168,0.42487 0.78859,-0.37659 -0.0161,0.8594 1.64154,0.103 0.54074,-0.40234 -0.14806,-0.47637 1.00424,-0.43775 0.56328,-1.42589 0.54718,0.25106 0.99458,-0.97205 -0.25428,-0.3444 0.77571,-0.22531 -0.0869,0.7564 -1.17805,1.01067 0.35084,1.15874 -0.20278,0.8433 0.61477,0.64696 0.74996,-0.30577 0.0161,0.59868 -1.02999,0.44096 -0.21244,2.80994 -1.1523,1.91835 -3.43758,1.38083 -0.52143,-0.0676 -0.23497,-0.74031 -1.72523,0.17059 -1.49992,-0.87871 -3.77233,0.81756 -0.89159,0.57615 -3.62105,-0.54075 -0.77249,0.35084 -1.93767,-0.074 -2.67475,0.8594 -3.69186,-0.59868 -1.35186,0.5858 -1.33577,-0.0644 -1.02999,0.93665 -1.55464,0.3959 -1.59648,-0.27681 -1.23276,0.73387 -1.4613,-0.36694 -0.8079,0.46993 -2.7874,0.14806 -2.29495,-0.54396 -1.33898,0.61156 -1.74776,0.0805 0.63408,-1.04609 -0.32187,-1.42589 0.48603,-0.68558 -0.63731,-2.48807 -1.26173,-0.59224 -3.92362,-0.0451 -1.13298,-1.50958 -1.84111,-0.22209 -1.97629,-1.53211 -1.0332,0.39268 -0.80146,-0.26071 -1.14908,0.51821 -1.55142,-0.206 -0.95918,-0.71455 -1.24886,0.33475 -0.6019,-0.38625 -2.93225,0.22853 -1.33255,-1.18771 -1.80569,0.26072 -2.77775,-0.92055 -1.79605,0.70811 -0.23174,-0.36693 -4.04593,0.2929 -1.12011,-0.27359 0.0161,-0.79502 -1.06539,-0.33475 -0.81755,-1.20058 1.00424,-0.6019 -0.54397,-0.57293 0.0579,-1.50957 1.07505,-1.55464 0.0322,-0.76927 -0.43775,-0.40234 0.74996,-1.23921 -0.42809,-0.62765 0.55362,-1.83788 -0.21243,-1.01068 0.40555,0.22209 0.12875,-1.55464 0.41522,0.95918 -0.24784,0.35084 0.35084,2.60072 1.17805,0.70168 1.82179,-0.32831 0.32187,-1.33255 -0.60512,-1.79926 0.24462,-0.74674 -0.28003,-0.90768 0.89159,-1.75098 z"
     class="land"
     title="Crete"
     id="GR-M" />
  <path
     style="fill:#cccccc;fill-opacity:1;stroke:#cccccc;stroke-width:0.16093569;stroke-opacity:1"
     inkscape:connector-curvature="0"
     d="m 180.93049,57.272203 0.34762,-0.97527 -0.27681,-1.821792 0,0 -0.1899,-1.837886 -0.31544,-0.06759 0.47959,-0.518212 0.76927,2.008477 0.96562,1.181268 2.09538,0.540744 0.45384,-0.215654 1.04286,0.598681 0.19956,0.917333 1.41302,0.373371 0.66627,0.759616 0.4474,1.538545 2.8035,2.388286 0.48925,1.631888 -2.73591,1.033207 -0.72421,-1.789605 -1.72845,-1.358297 0.0193,-0.77571 -1.71557,-2.356099 -3.51806,-0.486025 z"
     class="land"
     title="Mount Athos"
     id="GR-69" />
  <circle
     style="font-style:normal;font-weight:normal;font-family:Dialog;fill:#3498db;fill-opacity:1;stroke:none;stroke-width:1.27900004;stroke-linecap:square;stroke-linejoin:miter;stroke-miterlimit:4;stroke-dasharray:none;stroke-dashoffset:0pt;stroke-opacity:1"
     id="path4183"
     cx="147.93813"
     cy="92.511574"
     r="4" />
</svg>
