<?xml version="1.0" encoding="UTF-8" standalone="no"?>
<svg
   xmlns:dc="http://purl.org/dc/elements/1.1/"
   xmlns:cc="http://creativecommons.org/ns#"
   xmlns:rdf="http://www.w3.org/1999/02/22-rdf-syntax-ns#"
   xmlns:svg="http://www.w3.org/2000/svg"
   xmlns="http://www.w3.org/2000/svg"
   xmlns:sodipodi="http://sodipodi.sourceforge.net/DTD/sodipodi-0.dtd"
   xmlns:inkscape="http://www.inkscape.org/namespaces/inkscape"
   style="font-style:normal;font-weight:normal;font-family:Dialog;fill:#000000;fill-opacity:1;stroke:#000000;stroke-width:1;stroke-linecap:square;stroke-linejoin:miter;stroke-miterlimit:10;stroke-dasharray:none;stroke-dashoffset:0pt;stroke-opacity:1"
   id="svg2"
   sodipodi:version="0.32"
   inkscape:version="0.91 r13725"
   viewBox="0 0 260 173.33333"
   width="390"
   height="260"
   sodipodi:docname="dordrecht-map.svg"
   version="1.0">
  <metadata
     id="metadata1014">
    <rdf:RDF>
      <cc:Work
         rdf:about="">
        <dc:format>image/svg+xml</dc:format>
        <dc:type
           rdf:resource="http://purl.org/dc/dcmitype/StillImage" />
        <dc:title></dc:title>
      </cc:Work>
    </rdf:RDF>
  </metadata>
  <sodipodi:namedview
     inkscape:window-height="723"
     inkscape:window-width="1366"
     inkscape:pageshadow="2"
     inkscape:pageopacity="0.0"
     borderopacity="1.0"
     bordercolor="#666666"
     pagecolor="#ffffff"
     id="base"
     inkscape:zoom="1.219753"
     inkscape:cx="102.33472"
     inkscape:cy="128.61448"
     inkscape:window-x="0"
     inkscape:window-y="0"
     inkscape:current-layer="svg2"
     width="534px"
     height="616px"
     showgrid="false"
     inkscape:window-maximized="1"
     showguides="true"
     inkscape:guide-bbox="true" />
  <!--Generated by the Batik Graphics2D SVG Generator-->
  <defs
     id="genericDefs">
    <inkscape:perspective
       sodipodi:type="inkscape:persp3d"
       inkscape:vp_x="0 : 461.99999 : 1"
       inkscape:vp_y="0 : 999.99998 : 0"
       inkscape:vp_z="801 : 461.99999 : 1"
       inkscape:persp3d-origin="400.5 : 307.99999 : 1"
       id="perspective481" />
    <inkscape:perspective
       id="perspective4069"
       inkscape:persp3d-origin="0.5 : 0.33333332 : 1"
       inkscape:vp_z="1 : 0.49999999 : 1"
       inkscape:vp_y="0 : 999.99998 : 0"
       inkscape:vp_x="0 : 0.49999999 : 1"
       sodipodi:type="inkscape:persp3d" />
    <inkscape:perspective
       id="perspective4069-1"
       inkscape:persp3d-origin="0.5 : 0.33333332 : 1"
       inkscape:vp_z="1 : 0.49999999 : 1"
       inkscape:vp_y="0 : 999.99998 : 0"
       inkscape:vp_x="0 : 0.49999999 : 1"
       sodipodi:type="inkscape:persp3d" />
    <inkscape:perspective
       id="perspective4069-7"
       inkscape:persp3d-origin="0.5 : 0.33333332 : 1"
       inkscape:vp_z="1 : 0.49999999 : 1"
       inkscape:vp_y="0 : 999.99998 : 0"
       inkscape:vp_x="0 : 0.49999999 : 1"
       sodipodi:type="inkscape:persp3d" />
    <inkscape:perspective
       id="perspective4069-2"
       inkscape:persp3d-origin="0.5 : 0.33333332 : 1"
       inkscape:vp_z="1 : 0.49999999 : 1"
       inkscape:vp_y="0 : 999.99998 : 0"
       inkscape:vp_x="0 : 0.49999999 : 1"
       sodipodi:type="inkscape:persp3d" />
    <inkscape:perspective
       id="perspective4069-5"
       inkscape:persp3d-origin="0.5 : 0.33333332 : 1"
       inkscape:vp_z="1 : 0.49999999 : 1"
       inkscape:vp_y="0 : 999.99998 : 0"
       inkscape:vp_x="0 : 0.49999999 : 1"
       sodipodi:type="inkscape:persp3d" />
    <inkscape:perspective
       id="perspective4069-3"
       inkscape:persp3d-origin="0.5 : 0.33333332 : 1"
       inkscape:vp_z="1 : 0.49999999 : 1"
       inkscape:vp_y="0 : 999.99998 : 0"
       inkscape:vp_x="0 : 0.49999999 : 1"
       sodipodi:type="inkscape:persp3d" />
    <inkscape:perspective
       id="perspective4069-75"
       inkscape:persp3d-origin="0.5 : 0.33333332 : 1"
       inkscape:vp_z="1 : 0.49999999 : 1"
       inkscape:vp_y="0 : 999.99998 : 0"
       inkscape:vp_x="0 : 0.49999999 : 1"
       sodipodi:type="inkscape:persp3d" />
    <inkscape:perspective
       id="perspective4069-6"
       inkscape:persp3d-origin="0.5 : 0.33333332 : 1"
       inkscape:vp_z="1 : 0.49999999 : 1"
       inkscape:vp_y="0 : 999.99998 : 0"
       inkscape:vp_x="0 : 0.49999999 : 1"
       sodipodi:type="inkscape:persp3d" />
    <inkscape:perspective
       id="perspective4069-70"
       inkscape:persp3d-origin="0.5 : 0.33333332 : 1"
       inkscape:vp_z="1 : 0.49999999 : 1"
       inkscape:vp_y="0 : 999.99998 : 0"
       inkscape:vp_x="0 : 0.49999999 : 1"
       sodipodi:type="inkscape:persp3d" />
    <inkscape:perspective
       id="perspective4069-8"
       inkscape:persp3d-origin="0.5 : 0.33333332 : 1"
       inkscape:vp_z="1 : 0.49999999 : 1"
       inkscape:vp_y="0 : 999.99998 : 0"
       inkscape:vp_x="0 : 0.49999999 : 1"
       sodipodi:type="inkscape:persp3d" />
    <inkscape:perspective
       id="perspective4069-0"
       inkscape:persp3d-origin="0.5 : 0.33333332 : 1"
       inkscape:vp_z="1 : 0.49999999 : 1"
       inkscape:vp_y="0 : 999.99998 : 0"
       inkscape:vp_x="0 : 0.49999999 : 1"
       sodipodi:type="inkscape:persp3d" />
    <inkscape:perspective
       id="perspective4069-72"
       inkscape:persp3d-origin="0.5 : 0.33333332 : 1"
       inkscape:vp_z="1 : 0.49999999 : 1"
       inkscape:vp_y="0 : 999.99998 : 0"
       inkscape:vp_x="0 : 0.49999999 : 1"
       sodipodi:type="inkscape:persp3d" />
    <inkscape:perspective
       id="perspective4069-16"
       inkscape:persp3d-origin="0.5 : 0.33333332 : 1"
       inkscape:vp_z="1 : 0.49999999 : 1"
       inkscape:vp_y="0 : 999.99998 : 0"
       inkscape:vp_x="0 : 0.49999999 : 1"
       sodipodi:type="inkscape:persp3d" />
    <inkscape:perspective
       id="perspective4199"
       inkscape:persp3d-origin="0.5 : 0.33333332 : 1"
       inkscape:vp_z="1 : 0.49999999 : 1"
       inkscape:vp_y="0 : 999.99998 : 0"
       inkscape:vp_x="0 : 0.49999999 : 1"
       sodipodi:type="inkscape:persp3d" />
    <inkscape:perspective
       id="perspective4221"
       inkscape:persp3d-origin="0.5 : 0.33333332 : 1"
       inkscape:vp_z="1 : 0.49999999 : 1"
       inkscape:vp_y="0 : 999.99998 : 0"
       inkscape:vp_x="0 : 0.49999999 : 1"
       sodipodi:type="inkscape:persp3d" />
    <inkscape:perspective
       id="perspective4243"
       inkscape:persp3d-origin="0.5 : 0.33333332 : 1"
       inkscape:vp_z="1 : 0.49999999 : 1"
       inkscape:vp_y="0 : 999.99998 : 0"
       inkscape:vp_x="0 : 0.49999999 : 1"
       sodipodi:type="inkscape:persp3d" />
    <inkscape:perspective
       id="perspective4243-6"
       inkscape:persp3d-origin="0.5 : 0.33333332 : 1"
       inkscape:vp_z="1 : 0.49999999 : 1"
       inkscape:vp_y="0 : 999.99998 : 0"
       inkscape:vp_x="0 : 0.49999999 : 1"
       sodipodi:type="inkscape:persp3d" />
    <inkscape:perspective
       id="perspective4274"
       inkscape:persp3d-origin="0.5 : 0.33333332 : 1"
       inkscape:vp_z="1 : 0.49999999 : 1"
       inkscape:vp_y="0 : 999.99998 : 0"
       inkscape:vp_x="0 : 0.49999999 : 1"
       sodipodi:type="inkscape:persp3d" />
    <inkscape:perspective
       id="perspective4274-2"
       inkscape:persp3d-origin="0.5 : 0.33333332 : 1"
       inkscape:vp_z="1 : 0.49999999 : 1"
       inkscape:vp_y="0 : 999.99998 : 0"
       inkscape:vp_x="0 : 0.49999999 : 1"
       sodipodi:type="inkscape:persp3d" />
    <inkscape:perspective
       id="perspective4309"
       inkscape:persp3d-origin="0.5 : 0.33333332 : 1"
       inkscape:vp_z="1 : 0.49999999 : 1"
       inkscape:vp_y="0 : 999.99998 : 0"
       inkscape:vp_x="0 : 0.49999999 : 1"
       sodipodi:type="inkscape:persp3d" />
    <inkscape:perspective
       id="perspective4334"
       inkscape:persp3d-origin="0.5 : 0.33333332 : 1"
       inkscape:vp_z="1 : 0.49999999 : 1"
       inkscape:vp_y="0 : 999.99998 : 0"
       inkscape:vp_x="0 : 0.49999999 : 1"
       sodipodi:type="inkscape:persp3d" />
    <inkscape:perspective
       id="perspective3344"
       inkscape:persp3d-origin="0.5 : 0.33333332 : 1"
       inkscape:vp_z="1 : 0.49999999 : 1"
       inkscape:vp_y="0 : 999.99998 : 0"
       inkscape:vp_x="0 : 0.49999999 : 1"
       sodipodi:type="inkscape:persp3d" />
    <inkscape:perspective
       id="perspective3344-7"
       inkscape:persp3d-origin="0.5 : 0.33333332 : 1"
       inkscape:vp_z="1 : 0.49999999 : 1"
       inkscape:vp_y="0 : 999.99998 : 0"
       inkscape:vp_x="0 : 0.49999999 : 1"
       sodipodi:type="inkscape:persp3d" />
    <inkscape:perspective
       id="perspective3344-3"
       inkscape:persp3d-origin="0.5 : 0.33333332 : 1"
       inkscape:vp_z="1 : 0.49999999 : 1"
       inkscape:vp_y="0 : 999.99998 : 0"
       inkscape:vp_x="0 : 0.49999999 : 1"
       sodipodi:type="inkscape:persp3d" />
    <inkscape:perspective
       id="perspective3406"
       inkscape:persp3d-origin="0.5 : 0.33333332 : 1"
       inkscape:vp_z="1 : 0.49999999 : 1"
       inkscape:vp_y="0 : 999.99998 : 0"
       inkscape:vp_x="0 : 0.49999999 : 1"
       sodipodi:type="inkscape:persp3d" />
    <inkscape:perspective
       id="perspective3406-0"
       inkscape:persp3d-origin="0.5 : 0.33333332 : 1"
       inkscape:vp_z="1 : 0.49999999 : 1"
       inkscape:vp_y="0 : 999.99998 : 0"
       inkscape:vp_x="0 : 0.49999999 : 1"
       sodipodi:type="inkscape:persp3d" />
    <inkscape:perspective
       id="perspective3406-9"
       inkscape:persp3d-origin="0.5 : 0.33333332 : 1"
       inkscape:vp_z="1 : 0.49999999 : 1"
       inkscape:vp_y="0 : 999.99998 : 0"
       inkscape:vp_x="0 : 0.49999999 : 1"
       sodipodi:type="inkscape:persp3d" />
    <inkscape:perspective
       id="perspective3446"
       inkscape:persp3d-origin="0.5 : 0.33333332 : 1"
       inkscape:vp_z="1 : 0.49999999 : 1"
       inkscape:vp_y="0 : 999.99998 : 0"
       inkscape:vp_x="0 : 0.49999999 : 1"
       sodipodi:type="inkscape:persp3d" />
    <inkscape:perspective
       id="perspective3446-2"
       inkscape:persp3d-origin="0.5 : 0.33333332 : 1"
       inkscape:vp_z="1 : 0.49999999 : 1"
       inkscape:vp_y="0 : 999.99998 : 0"
       inkscape:vp_x="0 : 0.49999999 : 1"
       sodipodi:type="inkscape:persp3d" />
    <inkscape:perspective
       id="perspective3446-4"
       inkscape:persp3d-origin="0.5 : 0.33333332 : 1"
       inkscape:vp_z="1 : 0.49999999 : 1"
       inkscape:vp_y="0 : 999.99998 : 0"
       inkscape:vp_x="0 : 0.49999999 : 1"
       sodipodi:type="inkscape:persp3d" />
  </defs>
  <g
     id="g4193"
     transform="matrix(1.0500476,0,0,1.0500476,12.053769,-4.6056975)"
     style="fill:#cccccc;fill-opacity:1">
    <path
       inkscape:connector-curvature="0"
       id="path17"
       d="m 163.79007,10.878221 -0.53457,0.26729 -2.13832,0.26729 -0.26729,0.26729 -0.80187,0.267289 -0.26729,0 -0.26729,0.26729 -0.53458,0 -0.53458,0.534579 -0.26729,0 -0.26728,0 -0.2673,0 -0.53457,0.26729 -0.53459,0.26729 -0.26728,-0.26729 -0.2673,0.26729 -1.33644,0 -0.80187,0.267289 -1.06916,0.26729 -0.53458,0 -0.53458,0.26729 -0.53458,0 -0.80187,0.26729 -0.80187,0.267289 -0.26729,0.26729 0,0.26729 -0.53458,0.267289 -0.26728,-0.267289 -0.2673,-0.26729 -1.33644,-0.801869 -0.2673,0 -1.06915,0.534579 0,-0.267289 -0.26729,0 0,0.267289 -0.2673,0 0,-0.267289 -0.26728,0.267289 0.26728,0.26729 0.2673,0 0.26729,0.26729 0.26728,0 0.2673,0.267289 0.26729,0 0,0.26729 -0.26729,0 -0.2673,0 -0.26728,0 0,-0.26729 -0.53459,-0.267289 0,-0.26729 -0.53457,0 -0.26729,0.534579 0.26729,0 0.26729,0.26729 0.26728,0 0,0.26729 -0.26728,0.26729 -0.26729,-0.26729 0,0.26729 0.26729,0.267289 0.26728,0 0.2673,0 0.26729,0 0.26728,0 0.2673,0 0,0.26729 -0.53458,0 -0.26729,0 -0.53458,-0.26729 0,0.26729 -0.26729,-0.26729 0,0.26729 0.26729,0.26729 0.26728,0 0.2673,0 0.26729,0 0.26728,0 0.2673,0 0.26729,-0.26729 0,0.26729 0,0.267289 -0.26729,0 0.26729,0.26729 0.26728,-0.26729 0.2673,0 0,0.26729 -0.2673,0.26729 -0.53457,0 0,0.26729 0.26729,0.267289 0.26728,-0.267289 0.2673,0 -0.2673,0.267289 -0.26728,0 -0.26729,0 0.26729,0.26729 0,0.26729 -0.26729,0 0,-0.26729 -0.2673,-0.26729 0,-0.267289 -0.26728,0 0.26728,-0.26729 -0.26728,0 -0.26729,-0.26729 0,0.26729 -0.2673,0.534579 0,-0.267289 0,-0.26729 -0.53457,-0.26729 -0.26729,0.26729 0,0.26729 0.53458,0.534579 0,0.26729 -0.26729,0 0,-0.26729 -0.26729,0.26729 0,-0.26729 -0.26729,-0.26729 0,-0.267289 0,-0.26729 0,-0.53458 -0.26729,-0.267289 0,-0.26729 0.26729,-0.26729 -0.26729,0 0,-0.267289 0,-0.26729 -0.26729,-0.26729 0.26729,-0.534579 0,-0.26729 0,-0.26729 0.53458,-0.267289 -1.33645,0.534579 -0.26729,0 -0.53457,-0.26729 -0.80187,0 0,0.26729 -0.2673,0 -0.26729,0 -0.26729,-0.26729 -1.06916,0.26729 -0.53458,0 -0.26729,0 -0.26728,0.26729 -1.06917,0.267289 -0.26728,0 -0.26729,0 -1.06917,0.53458 -0.53457,0 -0.26729,0 -0.26729,0 -0.26729,0 0,-0.26729 -0.26729,-0.26729 0,0.53458 -0.53458,0.26729 -0.53458,0.267289 -0.26728,0.26729 -0.53459,0.26729 -0.26728,0.267289 -0.53459,0.26729 -0.53458,0 -0.80187,0.53458 -1.06915,0.534579 -0.53458,0.26729 -1.33646,0.801869 -0.80186,0 -0.26729,0.26729 -0.53458,0.267289 -0.26729,0 -0.26729,0.267289 -0.53458,0.267291 -0.53458,0.267289 -0.26729,0.26729 -0.53458,0.53458 -0.26729,0.534578 -0.26728,0.267291 0,0.267289 -0.2673,0 0,0.26729 -0.53458,0.267289 -0.26729,0.267291 -0.26728,0 -0.53459,0.534578 -0.26729,0.267291 -0.26729,0 -0.26729,0.267289 -0.26729,0.534579 -0.26729,0 -0.26728,0.267291 -0.2673,0.534578 -0.26729,0.80187 -0.26728,0.267289 0,0.267291 0.26728,0 -0.26728,0.267289 -0.2673,0.267289 -0.26729,0.26729 0,0.26729 0.26729,0 0,0.534579 -0.26729,0.53458 0,0.801869 0,0.534579 0,0.26729 -0.26728,0.26729 0,0.267289 -0.53458,0.26729 -0.26729,0 0.26729,0.26729 -0.26729,0.26729 0,0.267289 -0.2673,0.26729 0.2673,0 0.26729,0.26729 0.26728,0.534579 0,0.26729 0,0.26729 0,0.267289 0.2673,0.53458 -0.2673,0 0.2673,0.267289 -0.2673,0 0,-0.267289 0,-0.267291 0,-0.267289 -0.26728,0 0,-0.267289 0,-0.26729 -0.26729,0 -0.2673,0 0,-0.26729 -0.26728,0 0.26728,0.53458 0,0.267289 0.2673,0.267289 0.26729,0.267291 -0.26729,0 0,0.267289 0,0.26729 0.26729,0 0.26728,0 0,0.53458 0,0.267289 0.2673,-0.267289 0,0.267289 -0.2673,0 0,0.267289 0.2673,0 0.26728,0.267291 0,0.267289 0,0.26729 0,0.26729 -0.26728,0.26729 0,0.534578 0.26728,0.80187 0,0.53458 0.26729,0.267289 0,0.0891 0.53458,-0.356385 -0.53458,0.534578 0,-0.178193 -0.26729,0.178193 0,0.26729 0,0.53458 -0.26728,0 -0.2673,0.267289 0.2673,0.26729 0.26728,0.534579 0,0.26729 0,0.53458 0,0.267289 -0.26728,0.26729 -0.2673,0 -0.26728,0 -0.53459,0.534579 -0.26728,0.26729 -0.26729,0.26729 0.26729,0.26729 0,0.267289 0,0.26729 0.53458,0 0,0.26729 0.26729,0 0.53458,0.534579 0.53457,0.53458 0.2673,0 0.26728,0 0.26729,0 0.53458,0 0,-0.26729 0.80187,0.26729 0.53458,0 0.26729,0.267289 1.06916,0.53458 0.53459,0 0,0.267289 0.53457,0 0.2673,-0.267289 0.26728,0 0,-0.26729 0.26729,-0.26729 0,-0.267289 0.53458,-0.26729 0.53458,0.26729 0.26729,-0.26729 0.53458,-0.26729 0.26729,0 0.26729,0.26729 0,0.534579 0.26729,0 0.26729,0 0.53458,0 0.26729,0 0.26728,0 0,0.26729 0.2673,0 0.26729,-0.26729 0,0.26729 0,0.26729 -0.26729,0 -1.33645,0.267289 -0.26729,0 0,0.26729 -0.80187,1.336449 -1.33645,2.138317 0,0.26729 -0.26729,0.801869 0,2.672897 0,1.336449 0,0.534579 0,0.26729 0,0.267289 0.26729,0 0.26729,0.26729 0.26729,0.26729 0.53458,0.801869 0.80187,1.069159 0.26729,0.267289 0.26729,0 2.67289,0 0.2673,0 0.80187,0 2.13832,0 0.26728,0 -0.26728,0.26729 0,0.53458 0,0.267289 0,0.26729 0.26728,0.26729 0,0.267289 -1.06915,-0.267289 0.26728,0.267289 0.26729,0 0.2673,0 0,0.26729 0.26728,0.26729 0,0.26729 0,0.267289 0.26729,0.26729 0.26729,0.26729 0,0.267289 0,0.26729 0.26729,0.267289 0,0.53458 0,0.53458 0,0.267289 -0.26729,0.80187 -0.26729,0.534579 0,0.26729 0,0.267289 -0.26729,0.534579 0,0.267291 0,0.267289 -0.26728,-0.267289 0,0.534579 -0.2673,0 0,-0.26729 0,-0.267289 0.80187,-1.603739 0.26729,-0.53458 0,-0.267289 0,-0.534579 0,-1.336449 -0.26729,-0.534579 -1.33644,-1.336449 0,-0.26729 -0.2673,0 -1.33645,0 -0.26729,0 -1.06915,-0.267289 -2.40561,-0.801869 -0.26729,0 -0.26729,-0.53458 -0.26729,0 -0.26729,0.26729 -1.87103,0.534579 -0.26728,0 -0.2673,0.26729 -2.13832,1.871028 0,0.26729 -0.26729,0 -1.06916,0 -0.26729,0 0,0.267289 -0.26728,0.80187 0,-0.267291 -0.2673,0.53458 0,0.26729 0,0.26729 0,0.267289 0,0.26729 -0.53457,0.267289 -0.2673,0 -0.26729,0.267291 -0.26728,0.534579 -0.2673,0 -0.26728,0 0,0.26729 -4.54393,2.940187 -0.80187,0.534579 0,0.267289 -0.26729,0 0,0.26729 -0.26729,0 -0.16148,0 -1.70955,1.069159 -0.26728,0.26729 -1.06917,0.801869 -0.26728,0 0,0.267289 0.53458,0.53458 0,0.534579 0,0.801869 -0.2673,0.26729 0.2673,0 0.26728,0.53458 -0.26728,0 0.26728,0.267289 0.26729,-0.267289 0.2673,0 1.06915,-0.26729 0.26729,0 0.26729,0 0.26729,0.26729 0.26729,0 0.26729,0 0.53459,0 0.80186,0.267289 0.53458,0.53458 0.80187,0.267289 0.26729,0.26729 0,0.26729 0.26729,0 2.40561,2.138318 0.26728,0.534578 0.2673,0 0.53457,0.267291 0.53458,-0.267291 1.33645,-0.534578 0.26729,0 0.53458,0 0.26729,-0.26729 0.80187,-0.26729 0.26729,0 0.26729,-1.069159 0.2673,-0.267289 0,-0.80187 0.26728,0 0,-0.534579 0,-0.26729 0,-0.267289 0,-0.26729 -0.26728,0 0,-0.26729 -0.2673,-0.534579 0.2673,-0.26729 0.80187,-0.801869 0.53457,0.26729 0.80187,-0.26729 0.26729,0 0.26729,-0.26729 -0.26729,0 0.26729,-0.26729 0.26729,-0.267289 0.26729,-0.26729 0.80187,-0.801869 2.13831,-1.069159 0.2673,0 0.26728,0 0.26729,0.26729 0.2673,0 1.06915,-0.801869 0.26729,-0.534579 0.53458,-0.53458 0.2673,-0.53458 0.26728,-0.267289 0,0.267289 0.26729,0 0,0.26729 -0.26729,0 0.26729,0.26729 -0.26729,0.267289 -0.26728,0.267291 -0.80188,0.801868 -0.53457,0.53458 -0.53459,0.267289 0,0.267291 -0.26728,0 -0.2673,0.267289 -0.26729,0 -0.26728,0.26729 0,0.267289 -0.2673,0 0,0.26729 -0.26728,0 -0.26729,0 -0.53458,0.26729 -0.26729,0.267289 -0.2673,0 -0.26728,0.26729 -0.53458,0.26729 -0.26729,0 -0.26729,0.26729 -0.26729,0.267289 0,0.26729 -0.26729,0 -0.26729,0 0,0.26729 0,0.267289 -0.26729,0 0,0.26729 -0.26729,0 0,0.26729 -0.26729,0 0,0.26729 -0.53458,0.267289 -0.26728,0.26729 -0.2673,0.26729 0,0.267289 -0.26729,0.53458 0,0.534579 -0.26728,0.53458 0,0.267289 -0.2673,0.53458 -0.26729,0.26729 -1.06916,0 -0.26729,0 -0.53458,0.534578 -0.26729,-0.267289 -0.26729,0.267289 -0.80187,0.267291 -0.53457,0 -0.2673,0.267289 -0.53457,0 -0.2673,-0.267289 -0.26728,-0.267291 -0.26729,-0.267289 -0.2673,0 0,-0.267289 -0.26728,-0.26729 -0.26729,0 -0.2673,0 -0.26728,0 -0.26729,-0.26729 -0.53458,0 -0.26729,-0.26729 -0.53458,-0.534579 0,-0.26729 0.26729,-0.267289 -0.26729,0 -0.26729,0 -0.26729,-0.26729 -0.26729,0 -0.26729,-0.26729 -0.26729,0 0,-0.26729 -0.26729,-0.267289 -0.26728,0.267289 -0.2673,0 -0.26729,0 -1.06916,0 -0.26729,0.26729 -0.26728,0 -0.2673,0.26729 -0.26729,0 0,-0.26729 -0.26728,0 -0.2673,-0.26729 -0.26729,-0.267289 -0.26728,-0.53458 -0.2673,0 0,-0.267289 -0.53457,0 -0.2673,0 -0.26728,-0.53458 -0.80187,0 -0.26729,0 -0.26729,0 -0.53458,0.26729 -0.26729,-0.26729 0,0.26729 -0.26729,0 0,-0.26729 0.26729,0 0,-0.26729 -0.26729,-0.267289 -0.26729,0 -0.26729,0.267289 -0.26729,0 -0.26729,0 0,-0.267289 0.26729,0 0,-0.26729 0,-0.26729 -0.53458,-0.267289 -0.26729,0 0,0.267289 -0.26728,0 -0.2673,-0.267289 -0.26729,0 0,-0.26729 0.26729,0 0.2673,0 0.26728,-0.26729 -0.80187,-0.534579 0,-0.26729 0.53459,0.26729 0.26728,0.267289 0.26729,0 0.26729,-0.267289 0,0.267289 0.26729,0.26729 0.26729,-0.26729 0,-0.267289 0,-0.26729 0.26729,0 0.26729,-0.26729 0,-0.534579 0.26729,-0.267289 0.26729,-0.267291 0.26729,-0.267289 0.26729,0 0.26729,0 0,-0.26729 0.26729,-0.26729 0,-0.267289 0.53458,-0.534579 -0.2673,0 -0.26728,0 -0.26729,-0.267291 0,0.267291 -0.53458,-0.267291 0,-0.267289 0,-0.26729 0,-0.26729 0.26729,-0.267289 0,-0.26729 -0.26729,0 -0.26729,0.26729 -0.26729,-0.26729 0.53458,-0.267289 0.53458,0 0,-0.267291 -0.26729,-0.267289 0,-0.26729 0,-0.267289 0.26729,-0.26729 0.26729,0.26729 0,-0.26729 0.26728,-0.26729 0.2673,-0.53458 -0.2673,0 0,-0.534579 -0.26728,0 0,-0.267289 -0.26729,-0.26729 0,-0.26729 -0.26729,-0.53458 0,-0.267289 -0.53458,-0.801869 0,-0.26729 -0.26729,-0.267289 0,-0.53458 -0.26729,-0.534579 0,-0.26729 -0.26729,-0.26729 0.26729,-0.267289 -0.26729,-0.26729 0,-0.26729 0,-0.26729 0,-0.267289 0,-0.53458 0,-0.267289 0.26729,0 0,-0.26729 0.26729,0 0.26729,-0.26729 0.26729,0 0.26729,0 0,0.26729 0.26729,0.26729 0,-0.26729 0.26729,-0.26729 0.26728,0 0.2673,0 0.26729,0 0.26728,0.26729 0.2673,0.26729 0.26729,0 0.26728,0.267289 0,0.26729 0.53458,0 0.26729,0 0.2673,0 0.26728,-0.26729 0.53459,-0.534579 0.26728,0 0.53458,0 0,-0.26729 0.26729,-0.26729 0.26729,0 0,-0.267289 0.53458,-0.26729 0,-0.26729 0.2673,-0.267289 0,-0.53458 0,-0.267289 0.26728,-0.534579 0.26729,0 0.26729,0 0.26729,0 0.26729,-0.267291 0.26729,0 -0.26729,-0.267289 0.26729,0 0.26729,-0.26729 0.26729,-0.26729 -0.26729,-0.267289 -0.26729,-0.26729 0,-0.267289 0,-0.267291 0,-0.267289 0,-0.26729 0,-0.26729 0,-0.267289 -0.26729,0 -0.26729,-0.26729 -0.53458,-0.267289 -0.80187,0 -0.26729,0 -0.26729,-0.267291 -0.53458,0 -0.26729,0 -0.26729,0.53458 -0.26728,0.26729 0,0.267289 -0.2673,-0.267289 -0.26729,0 -0.26728,0 -0.2673,0 -0.53457,-0.534579 -0.2673,-0.267291 -0.26728,-0.267289 0.26728,-0.534579 -0.26728,0 -0.26729,-0.26729 -0.2673,0 0.53459,-4.009346 -0.53459,-0.801869 -0.80187,-1.603738 0,-0.26729 -0.26728,-0.26729 -0.80187,-1.603738 -0.26729,0 -0.26729,0 0,0.53458 -0.53458,0.534579 -0.26729,0 -0.53458,0.26729 -0.26729,0 -0.26729,0.534579 -0.26728,0 -0.2673,0 -0.80187,0 -0.26729,0 0,0.26729 -0.53458,0 -0.53458,-0.26729 -0.801869,0.26729 -0.267286,-0.26729 -0.801869,-0.534579 -0.267286,0 -0.801869,-0.53458 -0.267296,-0.267289 -0.267287,-0.26729 -0.26729,-0.53458 0,-0.534579 0,-0.534579 0.26729,-0.53458 0,-0.26729 -0.26729,0 0,0.26729 -0.267289,0 -0.26729,0 0,-0.26729 0,-0.267289 -0.534579,0 -0.53458,0 -0.26729,0 -0.267289,0 -0.53458,0.801869 0,0.26729 0,0.267289 0,0.53458 -0.267289,0.801869 0,0.801869 0,1.069159 -0.53458,1.603738 -0.26729,1.603738 -0.534578,1.603739 0,0.534579 -0.267291,0 0,0.53458 -0.534579,1.069158 0,0.534579 -0.53458,1.603739 0,0.267289 0,0.267291 0,0.267289 0,0.26729 0,0.801869 -0.267289,1.069159 0,0.534579 0,0.534579 -0.267289,1.069159 0,0.53458 0,0.267289 0,0.53458 -0.267291,0.267289 0,0.26729 -0.267289,1.871028 -0.26729,2.405608 -0.26729,1.336448 -0.26729,0.53458 -0.267289,0.534579 -0.267289,0.534579 -0.267291,0.80187 0.53458,-0.267291 0.267289,0 0.53458,-0.267289 0.26729,0.267289 -0.26729,0 0,0.267291 -0.53458,0 -0.267289,0.267289 0.534579,0 0,0.26729 -0.534579,-0.26729 -0.267289,0 0,0.26729 -0.53458,-0.26729 0,0.534579 0.267289,0.53458 -0.267289,0.267289 0,0.53458 -0.26729,0.534579 -0.267289,1.06916 -0.267291,0.801868 -0.534578,1.336449 -1.069159,2.138318 -1.603739,3.474766 -0.53458,0.801868 -0.267289,0.53458 -0.801869,1.336448 -0.26729,0.267291 0,0.267289 -0.53458,0.80187 -0.267289,0.534578 -0.801869,1.069159 -1.603738,2.138318 -0.801869,0.534579 0,0.267291 -0.53458,0.534579 -0.267289,0 0,0.267289 0,0.26729 0.267289,0 -0.267289,0.26729 0,-0.26729 -0.26729,0 -0.26729,0.26729 -0.26729,0.534579 -0.267289,0.26729 -0.801869,0.801869 -0.53458,0.534579 -0.801868,1.069159 -0.267291,0.26729 -0.534579,0.534579 -0.26729,0.26729 0,0.26729 -0.534579,0.801869 -0.53458,0.26729 -0.534579,0.53458 -0.267289,0 -0.267291,-0.267291 -1.336448,-0.267289 -0.267289,0.267289 -0.267291,0 -0.267289,0 -0.267289,0.267291 0,0.26729 -0.26729,0.267289 -0.26729,0.534579 0.26729,0.267291 0.26729,0.267289 0,0.26729 -0.53458,0.534579 -0.26729,0.534579 -0.53458,0.801872 0.267291,0 0.267289,0 0.26729,0.26729 0.26729,-0.26729 1.069159,-0.267292 0.267289,0 0.26729,0.534582 -0.26729,0 0,0.26729 -0.53458,0.53458 0,0.26729 -0.267289,0.26728 0,0.2673 0.267289,0.26728 1.069159,1.60374 0,0.26729 0,0.26729 -0.267289,0.26729 0.53458,-0.26729 0.267289,0.26729 0.267289,0.26728 0.267291,0.2673 0,0.26729 0.267289,0 0.26729,0 0.267289,0 0.267291,0 -0.267291,0.26728 0.267291,0.2673 0.267289,0 0,-0.2673 0.267289,0 0.26729,0 0.26729,0 0.26729,0.2673 0.53458,0.80187 0.267289,0 0.267289,0 0.26729,0 0,0.26728 0.53458,0 0.267289,0.53459 0.267291,0.26728 0.267289,0 0.267289,0 -0.267289,0.2673 -0.267289,0 0.267289,0.53457 0.267289,0.2673 0.80187,0.26728 0,0.26729 0.534579,0 0.534579,0.2673 0.53458,0 0,0.26728 1.069159,0.26729 0.534579,0.53458 0.26729,0 0.534579,0.26729 0.801869,0.53458 0.26729,0 0.26729,0.26729 0.534579,0 0,0.26729 1.069159,0 0.267289,0 0.53458,0.26729 0.267289,0 0.267291,0 0.267289,0.26729 0.26729,0 0.267289,0.26729 0.267291,0 0.534578,-0.26729 0.267291,0 0.801868,-0.26729 0.267291,0 0.267289,-0.26729 0.534579,0 0.26729,-0.53458 0.26729,0.26729 0.267289,0 0.53458,-0.26729 0,0.26729 0,0.26729 -0.53458,0.26729 -0.267289,0.26729 -0.26729,0 -0.26729,0.26729 -0.26729,0.26729 -2.138317,0.53458 -0.267289,0 -0.267291,0 -0.801868,0.26729 -0.53458,0 -0.801869,-0.26729 -0.26729,-0.26729 -0.267289,0 -0.267291,-0.26729 -0.267289,0 -0.534579,0 -0.26729,0.26729 -0.534579,0.26729 -0.267291,0.26729 0,0.26728 -0.267289,0.53459 -0.267289,0.26728 -0.26729,0.2673 -0.26729,0.26729 -0.534579,0.26728 -0.26729,0 -0.26729,0.2673 -0.267289,0 0,-0.2673 -0.26729,0 -0.26729,0.2673 -0.534579,0 -0.26729,0 -0.26729,0.26728 -0.267289,0 -0.26729,0 -0.26729,0.53459 -0.26729,0 0,-0.26729 -0.267289,0 -0.267289,0 -0.267291,0 -0.534579,-0.2673 -0.53458,0 -0.267289,0 -0.267289,0 -0.53458,-0.26728 -0.80187,-0.53458 -0.267289,0 -0.801869,-0.26729 0,0.26729 -0.534579,0.53458 -0.267291,0 0.267291,0.53458 0.267289,0 0.26729,0.53457 0.267289,0.53459 0.53458,0 0.534579,0 0.26729,0 0.26729,0 0,-0.26729 0.267289,0 0,0.26729 0,0.26728 -0.267289,0.2673 -0.26729,0 -0.26729,0 -0.26729,0 -0.267289,0 -0.267289,0 -0.267291,0.26728 -0.267289,0 -0.534579,-0.53458 -1.06916,-0.26728 -0.267289,0 -0.534579,0.26728 -0.267291,0.2673 -0.267289,0 -0.534579,0.26728 -0.26729,0.26729 -0.26729,-0.26729 -0.53458,0.26729 -0.267289,0.2673 0,0.53457 0.267289,0 0,0.2673 0.267291,0 0.267289,0 0.26729,0.26728 0.26729,0.26729 0.26729,0 0,0.26729 0,0.26729 0.267289,0.26729 0.267289,0 0.267291,0.26729 0.267289,0.26729 0,0.53458 0.26729,0.26729 0.267289,0 0,0.26729 0.267291,0 0.267289,0 1.069159,0 0.267289,0 0.267291,0 0.267289,0.26729 0.267289,0 0,-0.26729 0.53458,0.26729 0.534579,0.26729 -0.267289,0.26728 0,0.2673 0,0.26729 0.267289,0 1.069159,0.53458 0.26729,0.26729 0,1.60373 0,0.2673 0.26729,1.06915 -0.26729,0 -0.26729,0 -0.26729,0 -0.267289,-0.26728 -0.267289,0 -0.267291,0 -0.267289,0 -0.26729,0.26728 -0.26729,0 -0.26729,0.26729 -0.267289,0 -0.267289,0 -0.267291,0 0,-0.26729 -0.267289,0 -0.80187,-0.53458 -0.267289,0 -0.267289,-0.80187 -0.267291,0 -0.534579,-0.80187 0,-0.26728 -0.267289,-0.2673 0.267289,-0.26728 -0.267289,-0.26729 0,-0.2673 0,-0.26728 -0.267291,0 -0.267289,-0.26729 -0.534579,-0.53458 -0.26729,-0.26729 -0.26729,0 -0.267289,0 -0.267291,-0.26729 -0.267289,0 -0.534579,-0.26729 -0.26729,0 -0.26729,-0.26729 -0.267289,0.26729 -0.267291,0 0,0.26729 -0.534578,-0.80187 0.267289,0 -0.267289,-0.26729 0,-0.26729 -0.26729,0 -0.26729,0 -0.26729,0 -0.267289,0.26729 -0.26729,0 -0.26729,0 -0.534579,0 -0.26729,0 -0.26729,0 -0.267289,0 0,-0.26729 -0.26729,-0.26729 -0.534579,0 -0.53458,0.26729 -0.26729,0 -0.267289,0.26729 -0.801869,-0.26729 -0.267289,0 -0.26729,-0.26729 -0.26729,0.26729 -0.534578,0.26729 0,0.26729 -0.267291,0.26729 0,0.26729 -0.267289,0.26729 -0.26729,0 -0.26729,0.26729 0.26729,0 0.26729,0 -0.53458,0.26729 0,-0.26729 -0.534579,-0.53458 -0.267289,-0.26729 0,-0.26729 -0.267291,-0.80187 0,-0.26729 -0.267289,0 -0.26729,-0.26729 -0.53458,-0.26729 -0.267289,-0.26729 -0.267289,-0.26728 0,-0.2673 0,-0.53457 0.267289,-0.2673 -0.267289,0 -0.267291,0 -0.267289,-0.26729 -0.80187,0 -0.267289,0 -0.267289,0 -0.53458,0 0,0.26729 -0.26729,0 -0.267289,0 -0.267291,0.2673 -0.534578,0.26728 -0.267291,0.26729 -0.534579,0.2673 -0.267289,0 -0.26729,0.26728 -0.26729,0.26729 -0.534579,0.26729 -0.26729,0.26729 -0.26729,0 -0.267289,0.26729 -0.26729,0.26729 0,0.26729 0,0.26729 0,0.26729 0.26729,0.53458 0.267289,0 0.26729,0.26729 0.26729,0.26729 0.534579,0.26728 0,0.2673 0.26729,0 0.26729,0.26729 0.267289,0.26728 0,0.2673 0.26729,0.26729 0,0.26728 0.267289,0.2673 0,0.26728 0.267291,0.2673 0.267289,0.26729 0.53458,0.26728 0,0.2673 0.267289,0 0.26729,0.26729 0,0.26728 0.267289,0 0.53458,0 0.267289,0 0,-0.26728 0,-0.53459 0.267291,0 0,0.53459 0.267289,0.26728 0.26729,0 0.53458,0 0.267289,-0.26728 0,-0.26729 0.267289,0 0.53458,0 0.26729,0 -0.53458,-0.2673 0.26729,-0.26728 0.534579,-0.26729 0.267291,0 0,0.26729 0.801868,-0.53459 0,-0.26728 0,-0.2673 0.26729,0.2673 0,0.26728 0.26729,0 -0.26729,0.2673 -0.26729,0 -0.534579,0.26729 0.534579,0.26728 0.26729,0 0.26729,0 -0.26729,0.2673 0.26729,0.26729 0,0.26728 -0.26729,-0.26728 -0.26729,0.26728 -0.26729,0 0.26729,-0.53457 -0.534579,-0.2673 -0.267289,-0.26728 -0.267291,0.53458 0.267291,0.26729 0.801868,0.53458 0.26729,0.26728 0,0.26729 0.26729,0 0,0.53458 0,0.26729 0.267289,0 0.267291,0.2673 0.267289,0 0,-0.2673 0.267289,0 0.53458,0.2673 0.267289,0 0,0.26728 0.534579,0.26729 0,0.26729 0.26729,0 0.534579,0.53458 0.26729,0 0.534579,0 0.53458,-0.26729 0.267289,0 0.26729,-0.26729 0.53458,0 0.267289,0 0.26729,0.26729 0.26729,-0.26729 0.267289,-1.06916 0.26729,0 0,-0.26729 0,-0.26728 0.26729,0 0,-0.53459 0,-0.26728 0,-0.2673 0,-0.26728 0,-0.26729 0.534579,0.26729 0.53458,-0.26729 0.267289,0 0.53458,-0.53458 0.26729,0.26728 0.267289,0.2673 0.267289,0.26729 0,0.26728 0.267291,0 0,0.2673 0.267289,0 0.26729,0 0.26729,0.26728 0.26729,0.26729 0.534578,0 0,0.2673 0,0.53457 0.53458,0.2673 0.26729,0 0.267289,0.26728 0.267291,0 0.534578,0.26729 0.53458,0.26729 0.534579,0 0.267291,0.26729 0.534578,0 0.80187,-0.26729 0.53458,-0.26729 0.267289,0 0.267289,0 0,0.26729 0.26729,0 0.26729,0 0.534579,0.26729 0.267291,0.80187 0,0.53458 0.801868,0 0.53458,-0.26729 1.871028,0 0,0.26729 0.267289,0.26729 0,0.80187 0.26729,-0.26729 0.801869,0.26729 0.26729,0 0.26729,0 0.267289,0 0.267289,0 0.267291,-0.26729 0.534579,-0.26729 0.26729,0 0,-0.26729 0,-0.26729 -1.336449,-1.87103 -0.267289,-0.80187 0.267289,-0.26729 0.267289,0 0,-0.26728 0,-0.2673 0,-0.26729 0,-0.26728 -0.267289,0 -0.267289,-0.2673 0.267289,-0.26728 1.871028,-0.80187 0.53458,0 0.267289,-0.26729 0.26729,-0.2673 0.267289,0 0.267291,0 1.871028,-0.26728 0.267289,0.53458 -0.53458,1.33644 0.267291,1.60374 1.336448,-0.53457 0.267289,0 0.53458,0 1.069159,0.26728 0.53458,0.26729 0.267289,0 0,-0.26729 0.267289,0.26729 0.53458,-0.26729 -0.26729,-1.06915 0.801869,-0.2673 0.267291,0 0.267289,-0.80187 0.534579,-0.26728 0.26729,-0.26729 0.26729,-0.53458 0.534579,-0.2673 0.26729,-0.26728 -0.26729,-0.26729 0.26729,0 0.267289,0 0,-0.2673 0.53458,-0.26728 0.26729,0.26728 0,0.2673 0.267289,0 0.26729,0 0.534579,0.26729 0.26729,0 0,0.26728 0,0.2673 0.267287,0.26728 0.267296,-0.26728 0.267286,0.26728 -0.267286,0.53459 0,0.53458 0.267286,0 0,0.26729 -0.267286,0 -0.267296,0.26728 -0.267287,0.2673 0.267287,1.06915 0,0.26729 0.267296,0 0.267286,0 0,0.2673 -0.267286,0 -0.801873,-0.2673 -0.267289,-0.26729 -0.53458,0 0,-0.26728 -0.267289,0 -0.53458,0.26728 0,0.26729 0,0.2673 0.26729,0.26728 0.534579,0.26729 0.26729,0 0.801869,-0.26729 0.534583,0 0.534573,0 0.267296,0.26729 0.267286,0 0,-0.26729 0.267286,0 0.267296,0 0.267287,0 0.267286,0 0.534583,0.53458 0,0.26729 0.267286,0 0.2673,0.26729 0.26728,0 1.06916,-1.60374 1.60374,-1.06916 0,-0.53458 0.26729,0 0,-0.26728 -0.26729,-0.26729 0,-0.2673 0.26729,-0.26728 0,-0.26729 0.26729,-0.2673 0.53458,-0.26728 0.26729,0 -0.26729,0.26728 0.26729,0.2673 0,0.26729 0.26729,0 1.06916,0 0.80187,2.4056 -0.26729,0.53459 -0.80187,1.60373 1.60374,1.87103 0,0.26728 0.26729,0.2673 0.26728,0.26729 0,1.87102 1.06917,0.2673 0.26728,-0.2673 0.80187,-0.26729 0.26729,0 0,-0.26728 1.60375,1.06915 -0.53459,2.13832 0.26729,0.26729 1.06916,-0.26729 1.06916,0.26729 0.80187,0 0.53458,0 0.26729,-0.26729 0.26728,-0.53458 0.80187,0.2673 1.06917,0.26728 0.53457,0.26729 0.80187,-0.80187 0.2673,-0.26729 0.80186,-0.26728 0.26729,-0.2673 0.26729,-0.26728 0,-0.26729 0.26729,0 1.06916,0.26729 0,0.26728 0.26729,0.53458 0.80187,0.53459 0.26729,0.26728 0,0.26729 0,0.2673 0,0.26728 0,0.26729 0,0.53458 0.2673,1.06916 0.26728,0 0.53458,0.26729 2.13832,0.80187 0.26729,0.26729 0,0.26728 0.26729,0.53459 0.26728,-0.26729 0.2673,0.26729 0.26729,0 0.26728,0 0.53459,0 0.26728,0 0.2673,0 0.53457,0 0.2673,-0.26729 0.26728,0 0.26729,0.26729 0.53458,0 0.26729,0.26728 0,0.2673 0.26729,0 -0.26729,0.26728 -0.26729,0 0,0.26729 0.26729,0 0,0.2673 0,0.26728 0,0.26729 0.26729,0 0,-0.26729 0.26729,0 0.2673,0 0,-0.26728 0.26728,0 0.26729,0 0,-0.2673 0.53458,-0.26729 0,0.26729 0.26729,0 0,0.53458 0.80187,0.53459 -0.26729,0.26728 -0.26729,0.2673 0,0.26728 -0.53458,0.26729 -0.26728,0 0,0.2673 -0.2673,0.26728 -0.26729,0.26729 0.26729,0.2673 0.53458,0 0.26729,0.26728 0,0.26729 -0.26729,0.26729 0,0.26729 -0.26728,0 -0.2673,-0.26729 -0.26729,0 -0.26728,0 0,0.26729 0,0.26729 0.26728,0.26729 0,0.26729 -0.26728,0 0,0.26729 0.26728,0.53458 -0.26728,0 0,0.26729 -0.2673,0 -0.53458,-0.26729 -0.26729,0.80187 0,0.53458 -0.26728,0.26729 0,0.26728 0.26728,0 0.26729,0.2673 0,0.26729 -0.26729,0.53458 0,0.26728 0,0.26729 0,0.2673 -0.26728,0.26728 -0.2673,0.26729 -0.26729,0.53458 -0.26728,0 -0.2673,0.53458 -0.26729,0.53458 0,0.26729 0.26729,0 0.2673,0 0.26728,-0.26729 0.26729,0 0.2673,0.26729 0,0.26729 -0.53459,0.26729 0,0.26729 0,0.26729 -0.53458,0.53458 0,0.26729 -0.26729,0.26729 0.26729,0.26729 -0.26729,0.26729 -0.26728,0 -0.2673,0 -0.26728,0 -0.26729,0.26729 0,0.26729 0,0.26729 -0.53458,0.53458 0,0.26728 -0.26729,0 -0.2673,0.2673 -0.26728,0 0,0.26729 -0.26729,0 -0.26729,0 0.26729,0.26728 -0.26729,0.2673 0,0.26729 0,0.26728 0,0.2673 0,0.26728 0,0.26729 0,0.2673 0.26729,0 0,0.26728 0,0.26729 0.26729,0 0,0.2673 0.26728,0.26728 0.2673,0 0.26729,0 0,0.26729 0.53458,0 0.26729,0.26729 0,0.26729 -0.26729,0.26729 0.26729,0.80187 0,0.53458 -0.53459,0.80187 0,0.26729 0.2673,0 0.26729,0 0.26728,-0.26729 0.2673,0 0.26728,-0.26729 0,0.26729 0.26729,0.26729 0.2673,0 0.26728,-0.26729 0,-0.26729 0.26729,-0.26729 0.53458,-0.80187 0.53458,0 0,0.53458 0.26729,0.53458 0.2673,-0.26729 0.53457,0.80187 0.2673,0 0.26728,-0.26729 0.26729,0.26729 0.26729,-0.26729 0.26729,-0.26729 0,0.26729 0,0.53458 0.26729,-0.26729 0.26729,-0.26729 0,-0.26729 0.26729,0 0.26729,0 0.53458,-0.26729 0,0.26729 0,0.53458 0.53458,0.26729 0,-0.26729 0.26729,0 0.26728,0 0,0.26729 0.53459,-0.26729 0.26728,-0.26729 0.2673,0 0.26729,0 0.26728,0 0.2673,0 0.26728,0.26729 0.53459,0.26729 0.26728,0 0,-0.26729 0.53459,0 0.26728,0 0,-0.53458 0.26729,-0.53458 -0.80187,-0.53458 -0.26729,0 -0.26728,-0.26729 0,-0.26729 -0.2673,0 -0.26729,-0.26729 0,-0.26729 0,-0.26729 0.26729,-0.26729 0.2673,0.26729 0.53457,0.26729 0.2673,-0.53458 0.26728,-0.26729 0,-0.26728 0.26729,0 -0.26729,-0.2673 0,-0.26729 -0.26728,-0.26728 0,-0.2673 0,-0.26729 0.26728,-0.26728 0.53458,0 0.26729,-0.2673 0.2673,0 0,-0.26728 0.26728,0 0,0.26728 0.53459,0.2673 0,-0.53458 0,-0.26729 0.26728,0 0,-0.2673 0.26729,-0.26728 0,-0.53459 -0.26729,-0.26728 0,0.26728 -0.26728,-0.53457 0,-0.26729 0,-0.26729 0.26728,-0.26729 0,-0.26729 0.26729,-0.26729 0,-0.26729 -0.26729,-0.26729 -0.26728,0 -0.2673,0 -0.53457,0 0,-0.26729 0,-0.26729 -0.2673,0.26729 -0.26729,-0.26729 -0.80186,-0.26729 0,-0.53458 0,-0.26729 -0.53459,-0.26729 0.26729,-0.26729 0.2673,0 0,-0.26729 0.26728,-1.06915 -0.26728,0 -1.06917,0 -0.26729,0 -0.26728,0.26728 -0.2673,0 -0.26728,-0.26728 0,-0.2673 -0.26729,0 -0.53458,0.2673 -0.26729,0 -0.2673,0.26728 -0.26728,0 -0.26729,0.26729 -0.2673,0 -0.26728,-0.26729 0.53458,-0.53458 0,-0.80187 -0.2673,0 -0.26728,-0.26729 0,-0.26728 -0.26729,0 0,-0.2673 -0.26729,0 0,-0.26728 0,-0.26729 0,-0.2673 0,-0.53457 -0.26729,-0.2673 -0.26729,-0.53457 0.26729,0 0.53458,0 0.26729,0 0,-0.26729 0.53458,-0.26729 0.26729,-0.26729 0,0.26729 0.53458,0.80187 0.26729,0.53458 0,0.26729 0.26728,-0.26729 0.2673,0 0,0.26729 0.26729,0 0,-0.26729 0.26728,-0.2673 0,-0.26728 0.2673,-0.26729 0,-0.26729 0,-0.26729 0.26728,-0.26729 0,-0.26729 0.26729,-0.26729 0,-0.26729 0.2673,-0.26729 0.53457,-0.26729 0.2673,-0.26729 0.53457,-0.26729 0.26729,0 0.26729,-0.26729 0.2673,-0.26728 0,-0.2673 0.26728,-0.26729 0.26729,0 0.2673,0 0.26728,-0.26728 0,-0.2673 0,-0.26729 0.26729,-0.26728 0.26729,0 0.26729,0 0.26729,-0.2673 0.26729,0 0,-0.26728 0.53458,0 0.26729,-0.2673 0.26729,0 0.53458,0 -0.2673,-0.26729 0.2673,0 0.26729,-0.26728 -1.06916,-0.80187 -0.26729,0 1.60373,-0.80187 -0.53457,-0.53458 -1.60374,0.80187 -0.26729,0.26728 -0.26729,0.2673 -0.26729,0 -0.26729,0 -0.53457,0 0,-0.2673 -0.2673,-0.26728 0,-1.87103 -0.26729,-0.26729 0.26729,-0.26729 0.53458,0 -0.53458,-1.06916 0.53458,-0.26729 0.26729,-0.53457 1.06916,-1.06917 0,-0.26729 0.26729,-0.26728 0.53458,-0.80187 0.26729,-0.53458 0,-0.2673 0.26728,-0.26729 0,-0.26728 0,-0.2673 0.2673,-0.26728 0,-0.26729 0.26729,0 0.26728,0 0.2673,0 0,-0.2673 1.33644,-1.33644 -0.26729,-0.80187 -0.26728,-0.53458 0,-0.26729 0.26728,-0.26729 0.26729,-0.26729 -0.80187,0 0,-0.26729 0.2673,-1.60373 0,-0.80187 0.26728,0 -0.26728,-0.53458 0.26728,-0.26729 0,-0.80187 -0.26728,-0.53458 -0.2673,-0.53458 0.2673,-0.53459 -0.2673,-0.26728 0,-0.53459 0,-0.26728 -0.26728,-0.53458 -0.53459,-0.26729 -0.53457,-0.26729 -0.53458,-1.60374 -0.53458,-0.26729 -0.26729,-0.26729 -0.26729,-0.26728 -0.26729,-0.53459 0,-0.26728 -0.26729,0 -0.80187,-0.53459 0,-0.53458 0,-0.53457 0.26729,0 0,-0.2673 0.26729,-0.80187 0,-0.26728 0.26729,-0.2673 0,-0.26728 -0.53458,-0.26729 -0.26729,0 -0.26728,0 0,-0.2673 -0.2673,0 -0.26729,0 -1.33645,-0.53457 -0.26728,-0.2673 0,-0.26728 0,-0.26729 0.26728,-0.26729 -0.26728,-0.26729 0,-0.26729 0,-0.53458 0.26728,0 0.26729,0 0,-0.26729 -0.26729,0 0,-0.26729 0,-0.26729 -0.26728,0 -0.80187,-0.53458 -0.2673,-0.26729 -0.53457,0 -0.2673,0 -0.80187,0 0,-0.26728 0,-0.2673 0.2673,-0.26729 0.53457,-0.26728 0.2673,0 0.26728,-0.53459 0,-0.26728 -0.26728,0 0,-0.53458 0.26728,0 -0.26728,-0.26729 -0.2673,0 0,-0.2673 0,-0.26728 0,-0.26729 -0.53457,-0.53458 -0.2673,0 -0.26728,0 0,-0.2673 0.26728,-0.26728 0.2673,0 -0.53458,-0.26729 0.53458,-0.80187 0.26729,0 0,0.26729 0.53458,0 0.26728,0 0.53459,-0.26729 0.26728,0 0.26729,-0.2673 0.2673,-0.26728 0.26728,0.26728 0.26729,-0.26728 0.26729,-0.26729 0.26729,0 -0.26729,-0.26729 0.26729,-0.26729 0.2673,-0.26729 0.26728,0.26729 0.53459,0.53458 0.26728,0 0.26729,0 1.06916,0.26729 0.80187,0 0.26729,0.26728 0,-0.53457 0,-0.26729 0,-0.26729 0,-0.26729 -0.53458,-0.26729 -0.26729,0 0,-0.26729 0,-0.26729 -0.26729,-0.53458 -0.26729,-0.26728 -0.53458,0 -0.26729,0 0.26729,-0.2673 0,-0.26728 0.26729,0 0.26729,0.26728 1.06916,-0.53457 0.26729,0.26729 0.26728,0 0.2673,0.26728 0.53457,0.2673 0,0.26728 -0.53457,0 0.26729,0.26729 0.26728,0.26729 0.2673,0.26729 0.53457,0.26729 0.53458,0 0,-0.26729 0.53459,0 0.26728,0.26729 0.26729,0 0,-0.26729 0.2673,0 0,-0.26729 0.26728,0.26729 0.80187,0.26729 0,0.26729 0.26729,0.53458 0,0.26729 0.53458,-0.26729 0.53458,0 0.26729,0 0.26729,0.26729 0.26729,0 0.26729,0.26729 0,0.26728 0,0.2673 0.26729,0 0.26729,0 0.26729,0 0.53458,0.26729 0.26729,0 -0.26729,-0.53459 0.26729,0.2673 -0.26729,-0.53458 0,-0.26729 0.26729,-0.26729 -0.26729,0 0,-0.26729 -0.26729,0 -0.26729,-0.26729 0,-0.26729 0,-0.53458 0.53458,0.26729 0.26729,0 0.26729,0.26729 0.26729,0 0,0.26729 0.26728,0 0.2673,0 0.26729,-0.26729 0.26728,0.53458 0.2673,0 0.26729,0.26729 0.26728,-0.26729 0.80187,-0.26729 0,-0.26729 0,-0.26729 0.2673,0 0.26728,-0.26729 0.26729,0 0.2673,0 0.26728,-0.26729 0,-0.26729 0.26729,0 0.26729,-0.26728 0,0.26728 0.26729,0 0.26729,-0.26728 0.53458,-0.2673 1.33645,-0.53457 0.26729,0 0.26729,0 0,-0.26729 0.53458,-0.26729 0.53458,-0.26729 0.26729,0 0.26729,-0.26729 0,0.26729 0.26729,0 0.26728,0 0,0.26729 0.2673,0.26729 0.53457,0.53458 0.53459,-0.26729 0,-0.26729 0.26728,0 0.2673,-0.26729 0.26728,0 0,-0.26729 0.26729,-0.26729 0.2673,0 0.53457,-0.801872 0.2673,-0.267289 0,-0.26729 0,-0.267289 0,-0.801869 0.53457,-0.267291 0.53458,0 0.26729,-0.534579 -0.26729,-0.267289 0,-0.534581 0,-0.267289 -0.80187,-0.26729 0.26729,0 -1.60374,-1.069159 -0.26729,-0.26729 -0.26728,-0.534579 -1.33645,-0.534579 -1.06916,0 0,-0.26729 0,-0.53458 0,-0.267289 0.26729,-0.26729 0,-0.26729 0,-0.267289 0.80187,0 0.53458,-0.26729 0.53457,-0.26729 0,-0.26729 0,-0.267289 0,-0.26729 0.2673,0 0,-0.26729 0.26728,-1.069159 2.13832,0 0.80187,0 0.26729,-0.267289 0.26729,-0.26729 0.26729,-0.26729 0,-0.267289 0.26729,-1.336449 0.26729,0 0,-0.26729 0.80187,-0.534579 0,-0.267289 0.80187,-0.267291 0.80187,0 0.26729,-0.534578 0,-0.26729 0.26728,-0.26729 0,-0.26729 0.2673,-0.267289 0,-0.267291 0,-0.267289 0,-0.267289 0.26729,-0.26729 0.53458,-0.26729 0.26729,0.26729 0.26728,0 0.2673,0 0.53457,0 0.80187,-0.53458 0,-0.267289 -0.80187,-1.069159 -0.26729,-0.26729 0,-0.534579 -0.26728,0 0,-0.26729 0,-0.26729 0,-0.267289 0,-0.26729 0.26728,-0.801869 0,-0.26729 0.26729,0 0,-0.26729 0.2673,0 0,-0.267289 0,-0.26729 0.26728,-0.53458 0,-0.267289 0.53459,-0.801869 0,-1.336449 -0.53459,-1.069158 0,-0.267291 0,-0.267289 -0.26728,0 -0.2673,0 -0.26729,0 -0.26728,-0.53458 -0.2673,-0.534579 -0.53457,-0.53458 0,-0.267289 -0.2673,-0.53458 0,-0.534579 -0.26728,-0.53458 0,-0.267289 -0.26729,0 -0.2673,0 -0.26728,0.53458 -0.26729,0.801868 -0.53458,0.26729 0,0.26729 -0.26729,0 -1.33645,-0.26729 -0.53458,-0.26729 -0.80187,-0.267289 -0.53458,0 0.26729,-0.534579 -0.53458,0 -0.80187,0 -1.60374,0 -0.53458,0 -0.26728,-0.267291 -1.06916,-0.534579 -0.2673,-0.267289 -0.53457,-0.26729 0.26729,-2.138318 -0.53458,-0.801869 -0.53458,-1.069159 0.26729,0 0.53458,0.26729 0.53457,0 0.2673,-0.801869 0.53457,0 0.53459,0.26729 0.26728,-0.26729 -1.60374,-1.336449 0,-0.534579 0.2673,-1.069159 0,-0.26729 -0.2673,-0.267289 -0.26728,-0.26729 0.26728,-0.26729 0.2673,0 0.26729,-0.26729 0.26728,-0.534579 0.53459,0 0.26728,0 0.2673,-0.26729 0.26728,0 0.26729,0 0.2673,0 0.26728,0 0.26729,0 0.2673,0.26729 0.26728,-0.26729 0.26729,0 0.53458,0 0.53458,0 0.26729,-0.267289 0.26729,0.267289 0.53458,0 0.26729,0 0.53458,0.26729 0,0.26729 0.26729,0 0.53458,0 0.26729,0 0.26729,0 0.53458,0 0.26729,-0.26729 0.26728,0 0.2673,0.26729 0.26729,-0.26729 0,0.26729 0.26728,0 0.80187,0.267289 0.2673,0 0.53457,-0.534579 0,-0.26729 0,-0.534579 0,-1.069158 0.2673,-2.672898 0,-3.474766 0,-1.603739 0.80187,-1.603737 -0.2673,-0.53458 0,-0.26729 0.53458,-0.801869 1.60374,-2.672897 1.06916,-1.871028 0.53458,-2.138318 0.26729,-1.336448 0.26729,-0.26729 0,-0.26729 -0.53458,-2.405606 0,-1.33645 0,-0.267289 0,-1.871028 -0.80187,-0.534579 0,-0.53458 0,-0.267289 0,-0.26729 0.26729,-0.26729 0,-0.534579 0,-0.26729 0.26729,-0.801869 0.26729,0 0.26729,-0.26729 0.53458,0 -0.53458,-0.267289 -0.26729,-0.26729 0.26729,-0.26729 0,-0.26729 0,-1.069158 -0.26729,-0.80187 0,-0.267289 -0.26729,0 -0.80187,-0.267289 -0.26729,0 0,-0.267291 -0.26729,0 -0.26729,0 -0.26729,0 -0.26729,0 0,-0.267289 -0.26729,0 -0.26729,0 -0.53457,0 -0.2673,-0.26729 -0.26729,0 -0.26728,-0.26729 -0.2673,-0.26729 0,-0.267289 0,-0.53458 0.2673,-0.267289 -0.2673,-0.53458 0,-0.26729 0.2673,0 0.26728,-0.534578 0,-0.267291 -0.53458,0.267291 -0.26729,0.267289 -0.80186,0 -0.26729,0 -0.2673,0 -0.26728,0 -0.53459,-0.267289 0,-0.267291 -0.26728,0 -0.26729,0 -0.53458,-0.267289 -0.53458,-0.26729 0,0.26729 -0.53458,-0.26729 -0.53458,-0.26729 -0.26729,0 0,-0.267289 0.26729,0 -0.26729,-0.26729 -0.53458,-0.534579 -0.26729,0 -0.26729,-0.26729 0,-0.26729 0,-0.534579 0,-0.53458 -0.26729,-0.267289 0,-0.26729 0,-0.26729 0,-0.534579 -0.26729,-0.53458 -0.26729,0 0,-0.801869 0.26729,-0.801869 0,-0.26729 -0.80187,-0.801869 -0.53457,-0.267289 -0.2673,0.534579 0.2673,0.26729 -0.2673,0 -0.26729,0 -0.26728,0 0,-0.26729 0.26728,0.26729 0,-0.26729 0.26729,-0.534579 -0.26729,0 -0.53458,-0.26729 -0.53457,0.534579 -0.2673,-0.267289 -0.53457,-0.26729 -0.80187,0 -0.2673,-0.26729 z m 6.68225,7.751402 0.26729,0.26729 0,-0.26729 -0.26729,0 z m 9.62243,5.345794 0,-0.53458 -0.26729,0.267291 0.26729,0.267289 z m -79.65233,106.648593 -0.2673,0 -0.267286,0 0.267286,0.26729 0.2673,-0.26729 z m -46.241124,-11.76075 0.267289,0 0,0.2673 0,0.26728 0.26729,0 0,0.53459 0.26729,0 0.26729,0.26728 0.267289,0 0.267291,0.26729 0.267289,0.26729 0.267289,-0.26729 0,0.26729 -0.267289,0 0.534579,0.53458 0,0.26729 0,0.26729 -0.26729,0.26729 0.26729,0.26729 0,0.26729 0.26729,-0.53458 0.26729,0 0.267289,-0.53458 0.267291,-0.26729 1.069158,-0.26729 0.534578,0 0.26729,0.26729 0.534579,0 0.26729,0 0.26729,0 0,-0.26729 0.26729,0 0.534579,0 0.26729,0.26729 0.267289,0.26729 0.53458,0 0.26729,-0.53458 0.534579,0 0.26729,-0.26729 0,-0.26729 0,-0.26729 0,-0.26728 -0.26729,0 0,-0.2673 -0.26729,-0.26729 -0.267289,-0.53458 0,-0.26729 -0.26729,-0.26728 -0.26729,0 -0.26729,0 0,-0.2673 -0.267289,0 -0.26729,0 -0.534579,0.2673 -0.26729,-0.2673 -0.53458,0 -0.534579,0.2673 -0.26729,0.26728 -0.534578,-0.26728 -0.53458,0.26728 -0.267289,0 -0.267289,0.26729 -0.267291,0 -0.267289,-0.26729 -0.26729,0 -0.26729,-0.26728 -0.26729,0 -0.267289,0 0,-0.2673 -0.267289,0 0,0.2673 -0.80187,0.26728 -0.801869,0.26729 z m 15.502802,-14.16635 -0.26729,0.26728 0.26729,0 0,-0.26728 z m 26.99626,-64.149532 0,-0.267289 -0.26729,0 0.26729,0.267289 z m 5.880382,34.213083 0,0.26729 0.26728,0 -0.26728,-0.26729 z m 22.98691,0.53458 -0.53458,-0.26729 0.26729,0.26729 0.26729,0 z m -14.59513,-3.474767 0.42877,-0.267289 -0.53458,0.267289 0.10581,0 z m 5.50727,-38.757007 -0.80187,0.801869 -0.26728,0 -0.26729,0 0.26729,0.26729 0.26728,0 0.2673,-0.26729 0.53457,-0.801869 z m 1.87104,-5.345794 0,-0.267289 -0.2673,0.267289 0.2673,0 z m 27.53083,-9.889719 0,0.26729 0.2673,0.267289 -0.2673,-0.534579 z m -1.60373,1.603738 0.26729,0 0,0.26729 -0.26729,-0.26729 z m -0.53458,0.26729 0.26729,0 -0.26729,0.26729 0,-0.26729 z m -26.19439,16.037382 0.26728,0 -0.26728,0.26729 0,-0.26729 z m -11.06469,20.525623 0.0223,0.01115 -0.16706,0.07796 0.14479,-0.0891 z m -0.77959,0.545715 -0.0557,0.05011 0,-0.0055 0.0557,-0.04454 z m -0.0557,0.144783 0.0223,0.167056 -0.40093,0.06125 -0.006,-0.0055 -0.54571,0.211602 0.53457,-0.211602 0.0112,0 0.38423,-0.06125 0,-0.161488 z m 23.39342,4.176401 0,0.26729 0.26728,0 0,0.267289 0.26729,0.267291 0,-0.267291 0.2673,0 0.26728,-0.267289 -0.26728,-0.26729 -0.2673,0 -0.26729,0 -0.26728,0 z m -21.91777,7.751402 0,0.267289 0,0.26729 -0.26728,0.534579 0.26728,0 0.2673,-0.267289 0.26729,0 0.26728,-0.26729 0.2673,0 0,-0.26729 -0.53458,0.26729 -0.26729,-0.26729 -0.2673,-0.267289 z m -23.788777,37.420562 0.26729,0 -0.26729,0.26728 0,-0.26728 z"
       style="fill:#cccccc;fill-opacity:1;fill-rule:evenodd;stroke:#b9b9b9;stroke-width:0.18710279;stroke-linecap:butt;stroke-linejoin:bevel;stroke-miterlimit:10;stroke-dasharray:none;stroke-opacity:1" />
    <path
       inkscape:connector-curvature="0"
       id="path65"
       style="fill:#cccccc;fill-opacity:1;fill-rule:evenodd;stroke:#b9b9b9;stroke-width:0.18710279;stroke-linecap:butt;stroke-linejoin:bevel;stroke-miterlimit:10;stroke-dasharray:none;stroke-opacity:1"
       d="m 140.27092,11.947335 0,0.26729 -0.26729,0.267289 -0.26729,0 0,0 0,-0.267289 0,-0.26729 0,0 0.26729,-0.26729 0,0 0.26729,0 0,0.26729 z" />
    <path
       inkscape:connector-curvature="0"
       id="path71"
       style="fill:#cccccc;fill-opacity:1;fill-rule:evenodd;stroke:#b9b9b9;stroke-width:0.18710279;stroke-linecap:butt;stroke-linejoin:bevel;stroke-miterlimit:10;stroke-dasharray:none;stroke-opacity:1"
       d="m 129.04475,11.680045 0.80188,0 0.80186,0 3.47477,-0.26729 1.60373,-0.267289 0.80187,0 0.53458,0.267289 0.26729,0 0,0.26729 0,0 0,0.26729 -0.26729,0 -0.80186,0 -0.53459,0 -0.80187,0 -0.53458,0.26729 0,0 -0.53457,0.267289 -0.2673,0 0,0 0,0 -1.06915,0.26729 -1.06916,0.26729 -0.53458,0 -0.26729,0 -0.26729,0 -0.80187,-0.26729 -0.26729,0 -0.53458,0 -0.26729,0 0,0.26729 -0.26729,0.267289 -0.26729,0.26729 -0.53458,0 -0.26729,0.26729 -0.26728,0 -0.2673,0 0.2673,0 -0.2673,0.267289 -0.26729,-0.267289 -0.53458,0 -0.26729,-0.26729 -0.53458,-0.26729 -0.26728,-0.534579 0,-0.26729 0.26728,-0.267289 0.2673,-0.53458 0.26728,-0.26729 0.53459,-0.534579 0.26728,0 0.26729,0 0.2673,0.26729 0.26728,0 0.26729,0.267289 -0.26729,0 0,0 -0.26728,-0.267289 0,0 -0.2673,0 -0.53457,0 -0.2673,0.267289 0.53458,0 0.26729,0 0,0 1.06916,0.26729 1.33645,0 z" />
    <path
       inkscape:connector-curvature="0"
       id="path99"
       style="fill:#cccccc;fill-opacity:1;fill-rule:evenodd;stroke:#b9b9b9;stroke-width:0.18710279;stroke-linecap:butt;stroke-linejoin:bevel;stroke-miterlimit:10;stroke-dasharray:none;stroke-opacity:1"
       d="m 150.16064,8.7398583 0,0.5345794 -0.26729,0 -0.26729,0 -0.26729,0 -0.26729,0 -0.53458,0.2672897 0,0 -0.80187,0.2672898 -0.26729,0.2672898 0,0.26729 -0.53458,0.267289 -0.26729,0 -0.53458,0 0,0 -0.26729,0 0,0 -0.80187,0.26729 -0.26728,0 0,0 -0.80187,0 -0.2673,0 -0.26728,0.534579 0,0.26729 -0.26729,0 0,0.26729 0,0 -0.2673,0 0,0 -0.26728,0 0,0.26729 0,0 -0.26729,-0.53458 0,0 0,-0.26729 0.26729,0 0.26728,-0.267289 -0.26728,-0.26729 0,-0.26729 0,-0.534579 0.26728,-0.2672898 0.53459,-0.2672898 0,-0.2672897 0,0 -0.26729,0 -0.2673,0 -0.26728,0 0,0 -0.26729,0 0.26729,0 0,0 0.26728,-0.2672896 0.53459,0.2672896 0.80186,0 2.6729,-0.2672896 0.80187,0 1.60374,-0.2672898 0.53458,-0.2672897 0.26729,0.2672897 z" />
    <path
       inkscape:connector-curvature="0"
       id="path105"
       style="fill:#cccccc;fill-opacity:1;fill-rule:evenodd;stroke:#b9b9b9;stroke-width:0.18710279;stroke-linecap:butt;stroke-linejoin:bevel;stroke-miterlimit:10;stroke-dasharray:none;stroke-opacity:1"
       d="m 112.2055,23.975372 0,0 0,0 -0.26729,-0.26729 0.26729,0 0,0 0.53458,0 0.26729,0 0,0 -0.26729,0 0,0.26729 -0.26729,0 0,0 -0.26729,0 0,-0.26729 0,0 0,0 0,0 0,0.26729 z" />
    <path
       inkscape:connector-curvature="0"
       id="path107"
       style="fill:#cccccc;fill-opacity:1;fill-rule:evenodd;stroke:#b9b9b9;stroke-width:0.18710279;stroke-linecap:butt;stroke-linejoin:bevel;stroke-miterlimit:10;stroke-dasharray:none;stroke-opacity:1"
       d="m 118.62045,14.887522 -1.06915,0 -0.53459,0.267289 -0.26728,0 -0.2673,0.26729 0,0 -0.53457,0.534579 -0.2673,0.26729 0,0 -0.26728,0 -0.26729,0 0,0.26729 -0.2673,0 -0.26728,-0.26729 0,0.26729 -0.26729,0 -0.26729,0.267289 0,0 0,0 -0.26729,0 0,0.26729 0,0 -0.26729,-0.26729 -0.26729,0 0,0 -0.26729,0 -0.26729,0 0,0 -0.26729,0.26729 -0.26729,0.26729 -0.26729,-0.26729 -0.26729,0.26729 -0.26729,0 -0.26728,0.26729 0,0.267289 0,0 0,0 -0.2673,0 -0.53458,0.26729 0.26729,0 -0.26729,0.26729 -0.26729,0 -0.53458,0 -0.26729,-0.53458 -0.26728,0 0,0 0,-0.267289 0.26728,-0.26729 0.53458,-0.801869 0.53458,-0.801869 0,0 0.53458,-0.26729 0.53458,-0.26729 1.06916,-0.267289 1.60374,-0.26729 0.53458,0 1.60374,-0.53458 1.33645,-0.534579 2.94019,-1.069159 0.80186,0 0.80187,-0.267289 0.26729,0.267289 0.26729,0 0.26729,0.26729 0,0 0,0.534579 0,0.26729 0,0 0,-0.26729 0,-0.267289 -0.26729,-0.26729 0,0 0,0.26729 -0.26729,0.267289 0,0 -0.26729,0.26729 -0.53458,0 -0.26729,0 -0.53458,0.26729 0,0 0,0 -0.26728,-0.26729 0,0 0,0 0,0 0,0.26729 0.26728,0 -0.26728,0.267289 -0.2673,0 0,0 -0.26729,0 0,-0.267289 -0.26729,0 0,0 0.26729,0.267289 0,0.26729 -0.26729,0 -0.26729,0 0,0 -0.26729,-0.26729 0,0 0,0 0.26729,0.26729 0.26729,0.26729 0.26729,0 0.26729,0 0,0 -0.26729,0.26729 -0.53458,0 -0.53458,0 -0.26729,0 z" />
    <path
       inkscape:connector-curvature="0"
       id="path109"
       style="fill:#cccccc;fill-opacity:1;fill-rule:evenodd;stroke:#b9b9b9;stroke-width:0.18710279;stroke-linecap:butt;stroke-linejoin:bevel;stroke-miterlimit:10;stroke-dasharray:none;stroke-opacity:1"
       d="m 109.26531,21.035185 0,0 -0.26728,0.267289 -0.2673,0.26729 -0.26729,0 -0.26728,0 -0.2673,0 0,0 0,0.26729 0,0 -0.26729,0 0,0 0,-0.26729 0,0 0.26729,0 -0.26729,0 0.26729,-0.26729 0.2673,-0.267289 0.53457,0 0.53458,0 0,0 z" />
    <path
       inkscape:connector-curvature="0"
       id="path111"
       style="fill:#cccccc;fill-opacity:1;fill-rule:evenodd;stroke:#b9b9b9;stroke-width:0.18710279;stroke-linecap:butt;stroke-linejoin:bevel;stroke-miterlimit:10;stroke-dasharray:none;stroke-opacity:1"
       d="m 105.79055,21.302474 0,0.26729 -0.2673,0.26729 -0.53457,0.26729 -1.60374,0.534579 -0.53458,0.26729 0,0.267289 0,0.53458 0.26729,0 0,-0.26729 0,0 0,0 0,0 0.26729,0 -0.26729,0.26729 -0.26729,0.534579 0,0 0,0 -0.80187,0.53458 -0.26728,0.267289 -0.2673,0 0,0.26729 -0.26729,0.26729 -0.53458,0.26729 0,0 0,0 -0.26729,0 -0.534578,0 -0.801869,0 -0.267286,0.267289 0,0 0,0.26729 0.267286,0 -0.267286,0 -0.267296,0 0,0 0,-0.534579 0,-0.26729 0,-0.26729 1.603739,-0.801869 0.80187,-0.801869 0.53458,-0.26729 0.53458,-0.534579 0.26729,-0.26729 1.06916,-0.801869 0.53458,-0.26729 0.26729,-0.26729 0,0 0.80187,-0.267289 0.53457,-0.26729 0.53459,-0.26729 0.26728,0 0.80187,0.26729 0,0.26729 -0.26728,0.267289 0,0 0,0 -0.26729,0 -0.2673,0 -0.53457,0 z" />
    <path
       inkscape:connector-curvature="0"
       id="path415"
       style="fill:#cccccc;fill-opacity:1;fill-rule:evenodd;stroke:#b9b9b9;stroke-width:0.18710279;stroke-linecap:butt;stroke-linejoin:bevel;stroke-miterlimit:10;stroke-dasharray:none;stroke-opacity:1"
       d="m 92.960641,39.745464 -0.53458,0.26729 0,0 0,0 0,0 -0.267289,0.26729 -0.26729,0 0,0.267289 0,0 -0.267289,0 0,0 -0.26729,-0.267289 0,0 0,-0.26729 0,-0.26729 0,-0.26729 0.26729,0 0,0 0,0 0,0 0.267289,0 0.26729,0 0.801869,-0.267289 0,0 0.534579,0 0,0.267289 0,0 -0.534579,0.26729 z" />
    <path
       inkscape:connector-curvature="0"
       id="path417"
       style="fill:#cccccc;fill-opacity:1;fill-rule:evenodd;stroke:#b9b9b9;stroke-width:0.18710279;stroke-linecap:butt;stroke-linejoin:bevel;stroke-miterlimit:10;stroke-dasharray:none;stroke-opacity:1"
       d="m 98.841017,35.736118 -0.534582,0.53458 -0.267287,0.26729 -0.267296,0 -0.267286,0 -0.267287,0 -0.801871,1.069158 0,0.26729 0,0 0,0.26729 -0.267291,0 -0.267289,0 -0.26729,-0.26729 -0.534579,-0.26729 -0.26729,0 0.26729,0.26729 0.267289,0.26729 0,0 0.26729,0.26729 0.26729,0 -0.53458,0 0,0 0,0.267289 0,0 0,0 -0.534579,0 -0.267289,0 0.267289,0 -0.267289,0.267291 -0.267291,0 -0.267289,0.267289 -0.26729,0 0,-0.267289 0,-0.53458 -0.26729,-1.069159 0,-0.53458 0,-0.267289 0.26729,-0.80187 0,-0.267289 0,0 0.26729,-0.801869 0.267289,-0.80187 0.267291,-0.801869 0.267289,-0.267289 0.534579,-0.80187 0.53458,-1.069158 0.801869,-0.80187 0,0 0,0 0,0.267291 0,0.267289 0.267286,-0.267289 0,0 0,0 0.267296,-0.267291 0,0 0.267287,-0.267289 0.267286,0 0,0.267289 0,-0.267289 0,0 -0.267286,0 0,-0.267289 -0.267287,0.267289 0,0 -0.534582,0.267289 0,0 0.801869,-1.603737 0.267286,-0.267291 0.534583,-0.267289 0,-0.267289 0.267286,0 0.267296,0 0,0 0.267286,0.267289 0.267287,0.267289 0,0.267291 0,0.267289 0.267296,0 -0.267296,0 0,0 0,0.26729 0.267296,0.26729 0,0 0.267286,0.26729 0.534578,0.801869 0,0.267289 0,0 0,0 0,0 -0.26729,0.26729 0,1.603738 0,0.80187 0,0.267289 -0.267288,0.53458 -0.267286,0 -0.267296,0.267289 0,0 0,0 0,0.534579 -0.534573,0.53458 0,0.267289 z" />
    <path
       inkscape:connector-curvature="0"
       id="path433"
       style="fill:#cccccc;fill-opacity:1;fill-rule:evenodd;stroke:#b9b9b9;stroke-width:0.18710279;stroke-linecap:butt;stroke-linejoin:bevel;stroke-miterlimit:10;stroke-dasharray:none;stroke-opacity:1"
       d="m 109.5326,38.409016 0,0 -3.74205,3.207476 -0.2673,0.26729 -0.26728,0 0,-0.26729 0.53458,0 3.74205,-3.207476 z" />
    <path
       inkscape:connector-curvature="0"
       id="path435"
       style="fill:#cccccc;fill-opacity:1;fill-rule:evenodd;stroke:#b9b9b9;stroke-width:0.18710279;stroke-linecap:butt;stroke-linejoin:bevel;stroke-miterlimit:10;stroke-dasharray:none;stroke-opacity:1"
       d="m 100.71204,44.823969 -0.53458,-0.267291 -0.80187,0.267291 0,0 1.06916,-0.53458 0.26729,-0.267289 0.53458,-0.26729 0.26729,0 0.53458,-0.801869 0,-0.26729 0,0 0.53458,-0.534579 0.53458,0 0.26729,-0.26729 0.26729,0 0.26729,0.26729 0.26729,0 0.26729,-0.26729 0,0 0.26729,0 0.26729,0.26729 0,0 0,0 0,0 0,0 0,-0.26729 0.26729,0 0,0.534579 0,0 -0.26729,-0.267289 0,0 0,0 0,0.534579 0,0 -0.26729,0 0,0.534579 0,0 -0.53458,0.53458 -0.26729,0 -0.53458,0.26729 -0.26729,0 -0.26729,0.534578 -0.26729,0 0,0 -0.26729,0 0,0 -0.80187,0 -0.26729,0 0,0.267291 0,0 0,0 -0.53458,0 0,0 z" />
    <path
       inkscape:connector-curvature="0"
       id="path479"
       d="m 67.83307,104.16233 -0.534579,0.26729 0.534579,0 0,-0.26729 z m 0,0.26729 -0.80187,0.26729 -0.267289,0 -0.267289,0 0.534578,-0.26729 -0.801868,0.26729 -1.603738,0.53458 -0.53458,0.26729 -0.26729,0 -0.801869,0.26728 -0.267289,0 -0.26729,0.53459 0,0.26728 0,0.2673 0.26729,0.80187 0,0.26728 0.267289,0 0,0.2673 0.26729,0 0.534579,-0.2673 0,-0.26728 -0.267289,0 0,-0.26729 0.267289,0 0.26729,0 0.26729,0 0.26729,-0.2673 0.267289,0 0.267289,0 0.267291,0 0.267289,-0.26728 0.26729,-0.2673 0.53458,0.2673 0.534578,0 0.53458,0.26728 0,0.2673 0.26729,0.26729 0.26729,0.53458 0.26729,0 0,0.53457 0,0.2673 -0.26729,0 0,0.26728 0.26729,0 -0.26729,0.26729 0,0.2673 0.26729,0.53457 0.267289,0 0,0.2673 0.267289,0.26728 0,0.26729 0.267291,0.53458 0,0.53458 0.267289,0 0.26729,0 0.267289,0.26729 0.267291,-0.26729 0,0.26729 0.534578,0 0.53458,0 0.26729,0 0.267289,0 0.267291,0.26729 0.801868,0.26729 0.26729,0.53458 0.26729,0.26729 0.53458,0 0.267289,0 0,0.26729 0.534579,0 0.26729,0.26728 0.26729,0 0,0.2673 0,0.26729 0.53458,0.26728 0.267289,0.2673 0.801869,0 0.26729,0 0.267289,0 0.53458,-0.2673 0.534579,0 0.26729,0 0.801869,-0.26728 0.534579,-0.26729 0.26729,-0.2673 0.26729,-0.53457 0,-0.26729 -0.26729,0 0,-0.26729 0.26729,0 0.26729,0 0.267289,0 0.267289,0 0.53458,-0.26729 -0.267289,0 0,-0.26729 0,-0.26729 -0.267291,0 -0.267289,0.26729 -0.534579,0 -0.53458,0 -0.534579,0 -0.26729,0 -0.534579,0 -0.53458,-0.80187 -0.534579,0 -0.26729,-0.26729 -0.267289,0 -0.26729,-0.26729 0,-0.26729 -0.53458,-0.26729 0,-0.26728 0,-0.2673 -0.267289,0 -0.801869,-0.80187 -0.80187,-0.80187 -0.267289,0 0,-0.26728 -0.53458,0 -0.267289,-0.26729 -0.26729,0 -0.53458,-0.53458 -0.534578,-0.26729 -0.267291,0 -1.069159,-0.53458 -0.267289,-0.2673 -0.801869,-0.26728 0,-0.26729 -0.26729,-0.2673 -0.267289,0 0,0.2673 -0.267291,-0.2673 0.267291,0 0,-0.26728 0,-0.26729 -0.267291,0 0,0.26729 -0.267289,0 0,-0.26729 -0.534579,-0.2673 0,-0.26728 -0.26729,-0.26729 z m -5.078504,3.74206 -0.26729,0.53457 -0.26729,0.2673 -0.534579,0.26728 0.267289,0 0.53458,0.26729 0.26729,0.2673 0.267289,0 0,-0.2673 -0.267289,-0.26729 -0.26729,-0.26728 0.26729,-0.80187 z"
       style="fill:#cccccc;fill-opacity:1;fill-rule:evenodd;stroke:#b9b9b9;stroke-width:0.18710279;stroke-linecap:butt;stroke-linejoin:bevel;stroke-miterlimit:10;stroke-dasharray:none;stroke-opacity:1" />
    <path
       inkscape:connector-curvature="0"
       id="path483"
       style="fill:#cccccc;fill-opacity:1;fill-rule:evenodd;stroke:#b9b9b9;stroke-width:0.18710279;stroke-linecap:butt;stroke-linejoin:bevel;stroke-miterlimit:10;stroke-dasharray:none;stroke-opacity:1"
       d="m 65.964384,108.17163 0.267289,0.26729 0,0 -0.267289,-0.26729 -0.53458,0 -0.53458,0.26729 -0.534579,0.26729 -0.267289,0 0,-0.26729 0,0 0.534579,-0.26729 0,-0.26729 0.267289,-0.26729 0.267291,-0.26729 0,0.26729 0.267289,0 0.53458,0.53458 0,0 z" />
    <path
       inkscape:connector-curvature="0"
       id="path547"
       style="fill:#cccccc;fill-opacity:1;fill-rule:evenodd;stroke:#b9b9b9;stroke-width:0.18710279;stroke-linecap:butt;stroke-linejoin:bevel;stroke-miterlimit:10;stroke-dasharray:none;stroke-opacity:1"
       d="m 78.259708,110.04266 0.534578,0.26728 0.80187,0.2673 0.53458,0.26729 0,0 0.267289,0.26728 -0.267289,0 0,0 -0.53458,0.2673 -0.80187,0 -0.267289,0 -0.267289,-0.2673 -0.267291,-0.26728 0,0 -0.267289,0 -0.53458,-0.53459 -0.26729,0 -0.267289,-0.26728 0,0 0,0 0.267289,-0.26729 0,0 0.53458,0 0.80187,0.26729 z" />
    <path
       inkscape:connector-curvature="0"
       id="path625"
       d="m 49.122792,129.28757 0,0.26728 -0.26729,0 -0.26729,0 -0.534579,0.26729 -0.26729,0 -0.26729,0 -0.267289,0.26729 -0.26729,0 -0.26729,0 -0.267289,0 -0.26729,0 -0.26729,0 0,0.26729 -0.26729,0 -0.267289,0.26729 -0.26729,0 -0.26729,0 -0.267289,0.26729 -0.26729,0 0,0.26729 0.26729,0.26729 0,0.53458 0,0.26729 0,0.26729 0.267289,0.26729 0,0.53458 -0.801869,0.80187 -0.26729,0.26729 0.26729,0.26728 0.53458,0.53458 -0.26729,0 -0.26729,0 0,0.26729 0.26729,0.2673 0.26729,0.26728 0,0.2673 -0.26729,0.26729 0.26729,0.26728 0.267289,0 0.26729,0.53458 0.26729,0 0.267289,0.53459 0.26729,-0.2673 0.26729,0.2673 0,0.26728 0,0.26729 0.26729,0 0.267289,0.2673 0.26729,0 0.801869,0 2.138317,-0.2673 -0.267289,-1.87102 -0.26729,-0.26729 0.534579,-0.2673 0.267291,0.2673 0.267289,0 0,-0.2673 0.267289,0 0.267291,0 0,-0.26728 0.267289,0 0.26729,0.26728 0.267289,0.2673 0.267291,-0.2673 -0.267291,-0.53458 0.53458,-0.26729 0.267289,0.26729 0.53458,0.2673 0.26729,0.26728 0.53458,0.2673 0.267289,0 0,-0.2673 0.534579,0 0.53458,0.53459 0.267289,0 0.267291,0.26728 0,0.2673 0.801868,0 0.26729,0.26728 0,-0.26728 1.069159,0.26728 0.267289,0 0.26729,0.53459 0.26729,0 0,-0.2673 0.267289,0.2673 0.267289,0.26728 0.26729,0 0,0.26729 -0.26729,0.2673 0,0.53457 0,0.80187 0,0.53458 0.26729,0.26729 0.26729,0 0,-0.26729 0.267289,0.26729 0.26729,0 0.26729,0 0.26729,0 0.267289,0 0.26729,0 0.26729,0 0.267289,0 0.53458,-0.53458 0.26729,0 0.267289,0 0,0.53458 -0.267289,0 -0.26729,0.26729 0.26729,0.26729 0.267289,0 0.26729,0 0.534579,-0.26729 0.26729,0 -0.26729,-0.53458 0.53458,-0.26729 0.26729,0.53458 0.267289,0 0,-0.26729 0.267289,0 0.267291,0 0.267289,-0.26729 0,-0.26729 0.53458,0 0.26729,-0.53458 0.267289,0 0.267289,-0.26729 0.53458,-0.26729 0.26729,0 0,0.26729 0.26729,0 0.26729,-0.26729 0,0.26729 0.534578,0 0.267291,-0.26729 0.267289,0 0.26729,-0.26728 0.53458,-0.53459 0.534578,-0.26728 0.53458,-0.2673 1.336448,-1.06915 0.26729,-0.26729 2.672897,-3.20749 -0.267289,0 0,-0.26728 -0.26729,0 0,-0.26729 0,-0.26729 -0.26729,0.26729 0,-0.26729 0,-0.26729 -0.26729,-0.26729 -0.267289,0 -0.267289,0 0.267289,-0.26729 -0.267289,0 -0.267291,0 0,0.26729 -0.267289,0.26729 0,0.26729 0.267289,0.26729 0.267291,0 0,0.26729 0,0.26728 -0.267291,-0.26728 -0.267289,0.26728 0.267289,0 -0.267289,0.2673 0.267289,0 0,0.26729 -0.267289,-0.26729 -0.53458,0 0.26729,0.26729 0,0.26728 -0.26729,-0.53457 -0.26729,-0.2673 -0.267289,0 0.267289,0.2673 0.26729,0.26729 -0.26729,0 0,-0.26729 -0.267289,0 0,-0.2673 0,-0.26728 -0.267289,-0.26729 -0.267291,-0.26729 -0.267289,0 -0.534579,0 0,0.26729 0.267289,0 0.26729,0 0.267289,0 -0.267289,0.26729 0,0.26728 0.267289,-0.26728 0.267291,0.26728 -0.267291,0 0,0.2673 0,0.26729 0.267291,0 0,0.26728 -0.267291,0 -0.534579,-1.06915 -0.267289,0 -0.801869,-0.53458 0,-0.26729 -0.267291,0 0,0.26729 -1.069159,-0.26729 -0.267289,-0.26729 0,-0.26729 -0.267289,-0.26729 0,-0.26729 -0.26729,-0.26729 0.26729,-0.26729 -0.26729,0 -0.26729,-0.26729 0,-0.26729 -0.534579,0 -0.267291,0 -0.267289,-0.26729 -0.534579,0 -0.26729,0.53458 0,0.26729 -0.26729,0 0,0.53458 0,0.26729 0,0.26729 0,0.26729 -0.267289,0.26729 0,-0.26729 -0.267291,0.26729 -0.267289,0 -0.801869,0.26729 -0.534579,0.26729 -0.26729,0.26729 -0.26729,0 0,0.26728 -0.534579,0 0,0.2673 -0.26729,0.26729 -0.26729,0 -0.534579,0 -0.26729,0 -0.267289,-0.26729 -0.26729,0 0,0.26729 -0.26729,-0.26729 0,0.26729 0,0.26728 -0.26729,-0.53457 0,-0.2673 -0.267289,0 -0.26729,0 0,-0.26728 -0.801868,0 0,0.80187 -0.53458,-0.26729 0,-0.2673 0.26729,-0.26728 -0.26729,0 -0.534578,0 -0.267291,0 -0.267289,0 -0.26729,0 0,-0.26729 -0.26729,-0.26729 -0.26729,-0.26729 -0.267289,0 0,-0.26729 -0.267289,-0.26729 -0.80187,0 -0.53458,-0.26729 -0.267289,0 -0.801869,-0.26729 -0.26729,0 0,-0.26729 -0.267289,0 -0.53458,-0.26729 -0.267289,0 -0.267291,-0.26729 -0.267289,-0.26729 -0.26729,0 -0.267289,-0.26729 -0.267291,0 0,-0.26728 -0.801869,0 -0.267289,0 -0.534579,0 z m 24.323362,3.74204 -0.26729,-0.26728 -0.26729,0.26728 0.53458,0 z m -0.26729,-0.26728 0.26729,0 0.267289,0 0.267291,0 -0.267291,-0.26729 -0.267289,0 0,-0.26729 -0.26729,0 0,-0.26729 -0.26729,0 -0.26729,0 0,0.26729 0,0.26729 0.26729,0.26729 0.26729,0 z m 0.534579,-0.80187 0.267291,0.26729 -0.267291,0 0,-0.26729 z m 0.53458,0 0.267289,0 -0.267289,0.26729 0,-0.26729 z m -1.871028,1.87102 0.267289,0 0,0.2673 -0.267289,0 0,-0.2673 z"
       style="fill:#cccccc;fill-opacity:1;fill-rule:evenodd;stroke:#b9b9b9;stroke-width:0.18710279;stroke-linecap:butt;stroke-linejoin:bevel;stroke-miterlimit:10;stroke-dasharray:none;stroke-opacity:1" />
    <path
       inkscape:connector-curvature="0"
       id="path651"
       style="fill:#cccccc;fill-opacity:1;fill-rule:evenodd;stroke:#b9b9b9;stroke-width:0.18710279;stroke-linecap:butt;stroke-linejoin:bevel;stroke-miterlimit:10;stroke-dasharray:none;stroke-opacity:1"
       d="m 109.5326,38.409016 1.06916,-1.069159 0.26729,-0.267289 2.94019,-2.672898 0.26729,0 0.80186,-0.267289 0.2673,0 0,0 0,0 0,-0.267291 0,0.267291 0.26729,0.267289 -0.26729,-0.267289 -0.2673,0 0,0 -0.53457,0.267289 -0.53458,0 -2.40561,2.405607 -0.26728,0.267291 0,0 -0.2673,0 -0.26729,0.267289 -1.06916,1.069159 0,0 z" />
    <path
       inkscape:connector-curvature="0"
       id="path659"
       style="fill:#cccccc;fill-opacity:1;fill-rule:evenodd;stroke:#b9b9b9;stroke-width:0.18710279;stroke-linecap:butt;stroke-linejoin:bevel;stroke-miterlimit:10;stroke-dasharray:none;stroke-opacity:1"
       d="m 56.074665,121.53612 0,0 -0.267289,-0.26729 0,-0.2673 0,0 0.267289,0 0.26729,0.2673 0,0.26729 -0.26729,0.26728 0,0 0,-0.26728 z" />
    <path
       inkscape:connector-curvature="0"
       id="path661"
       style="fill:#cccccc;fill-opacity:1;fill-rule:evenodd;stroke:#b9b9b9;stroke-width:0.18710279;stroke-linecap:butt;stroke-linejoin:bevel;stroke-miterlimit:10;stroke-dasharray:none;stroke-opacity:1"
       d="m 57.411115,115.38845 0,0 0,0 -0.267291,0.26729 0,0.53458 0,0.26729 0,0 0.267291,0.26729 0.267289,-0.26729 -0.267289,-0.26729 0,0 0.267289,0.26729 -0.267289,0.26729 0,0 -0.53458,-0.26729 0,0.26729 0,0.26729 0,0 0,0 -0.26729,-0.26729 0,0 0,0 -0.26729,0.26729 0,0 0.26729,0 0,0.26729 -0.26729,0 0,-0.26729 -0.26729,0.26729 0,0 0,0.26729 0,0.53458 -0.267289,0 0,0 0.267289,-0.53458 0,-0.26729 -0.267289,-0.26729 0,0 -0.267289,0 0,0 0,0 0,0 0.267289,0 0.267289,-0.53458 0.53458,-0.26729 0,-0.26729 0,0 0,-0.26729 0,0 0,0 0,0.26729 0,0 0,0 0.26729,0 0,0 0,0 0,0 0.267289,0 0,-0.26729 0.267291,-0.26729 0,0 z" />
    <path
       inkscape:connector-curvature="0"
       id="path861"
       style="fill:#cccccc;fill-opacity:1;fill-rule:evenodd;stroke:#b9b9b9;stroke-width:0.18710279;stroke-linecap:butt;stroke-linejoin:bevel;stroke-miterlimit:10;stroke-dasharray:none;stroke-opacity:1"
       d="m 113.54195,56.050136 0,0 0.53458,0 1.87103,0.801869 0.26729,0.26729 1.33645,1.336449 0.53457,0.801869 0,0.267289 1.33645,2.138318 0.53458,1.336449 0,0.267289 -0.26729,0 -0.26729,0.26729 -0.53458,0.267289 -0.26729,1.06916 -0.26728,0.534579 0.26728,0 0,0 -0.26728,0.53458 0,-0.53458 0,0 0.26728,-0.534579 0.26729,-1.06916 0.26729,-0.267289 0.53458,-0.26729 0.26729,0 0,-0.267289 -0.53458,-1.336449 -1.87102,-3.207476 -1.33645,-1.336449 -0.26729,-0.26729 -1.60374,-0.801869 -0.26729,0.53458 0,0 -0.26729,0 -0.26729,0 -0.26729,0 0.26729,0 0.26729,-0.26729 0.26729,-0.26729 -0.26729,0 0,0 -0.26729,0 z" />
    <path
       inkscape:connector-curvature="0"
       id="path869"
       style="fill:#cccccc;fill-opacity:1;fill-rule:evenodd;stroke:#b9b9b9;stroke-width:0.18710279;stroke-linecap:butt;stroke-linejoin:bevel;stroke-miterlimit:10;stroke-dasharray:none;stroke-opacity:1"
       d="m 150.16064,8.7398583 0.53458,0 0,0 0,0.2672898 0,0 -0.53458,0.2672896 0,-0.5345794 z" />
    <path
       inkscape:connector-curvature="0"
       id="path871"
       style="fill:#cccccc;fill-opacity:1;fill-rule:evenodd;stroke:#b9b9b9;stroke-width:0.18710279;stroke-linecap:butt;stroke-linejoin:bevel;stroke-miterlimit:10;stroke-dasharray:none;stroke-opacity:1"
       d="m 154.97186,6.334251 0,0.2672897 0,0 0.26728,0.2672897 0.26729,0.2672897 0.26729,0.2672897 -0.26729,-0.2672897 -0.26729,0 -0.53458,0 -0.26729,0 0,0 0,0.2672897 0,0.2672897 0.26729,0 0,0 -0.26729,0.5345794 -0.26728,-0.2672897 -0.2673,-0.8018691 -0.26729,-0.2672897 0,-0.2672897 0.26729,-0.5345794 0.2673,0 0.26728,0 0.26729,0 0.2673,0.2672897 0,0 0,0 z" />
    <path
       inkscape:connector-curvature="0"
       id="path873"
       style="fill:#cccccc;fill-opacity:1;fill-rule:evenodd;stroke:#b9b9b9;stroke-width:0.18710279;stroke-linecap:butt;stroke-linejoin:bevel;stroke-miterlimit:10;stroke-dasharray:none;stroke-opacity:1"
       d="m 157.64475,6.6015407 0.53458,0 0.53458,0 0.53458,0.2672897 0,0.2672897 0,-0.2672897 -0.53458,0 -0.53458,0 -0.2673,0 0,0 -0.26728,0 -0.26729,0.2672897 0,0 0,-0.2672897 0.26729,-0.2672897 0,0 z" />
    <path
       inkscape:connector-curvature="0"
       id="path907"
       style="fill:#cccccc;fill-opacity:1;fill-rule:evenodd;stroke:#b9b9b9;stroke-width:0.18710279;stroke-linecap:butt;stroke-linejoin:bevel;stroke-miterlimit:10;stroke-dasharray:none;stroke-opacity:1"
       d="m 64.360645,110.57724 0,0 0,0 0,-0.2673 0.26729,0 0.53458,0.2673 -0.267291,0 -0.534579,0 0,0 z" />
    <path
       inkscape:connector-curvature="0"
       id="path909"
       style="fill:#cccccc;fill-opacity:1;fill-rule:evenodd;stroke:#b9b9b9;stroke-width:0.18710279;stroke-linecap:butt;stroke-linejoin:bevel;stroke-miterlimit:10;stroke-dasharray:none;stroke-opacity:1"
       d="m 74.250361,116.45761 0,-0.26729 -0.267289,-0.26729 -0.26729,-0.26729 0,0.26729 -0.267289,0 -0.53458,-0.53458 0.26729,-0.26728 0,0 -0.26729,0 0,0.26728 -0.53458,0 0,-0.26728 0.53458,0 0,0 0.801869,0 0.26729,0 0,0 -0.26729,0 0,0 -0.267289,0 0,0 0,0.26728 0,0 0.534579,0 0,0.26729 0.267289,0.26729 0,0.26729 0,0.26729 0,0 0,0 z" />
    <path
       inkscape:connector-curvature="0"
       id="path911"
       style="fill:#cccccc;fill-opacity:1;fill-rule:evenodd;stroke:#b9b9b9;stroke-width:0.18710279;stroke-linecap:butt;stroke-linejoin:bevel;stroke-miterlimit:10;stroke-dasharray:none;stroke-opacity:1"
       d="m 66.766252,109.50807 0.267291,0 0.267289,-0.26728 0,0 0,0.26728 0,0.2673 0.267289,0.80187 0.534577,0.53457 0,0 0,0 -0.267289,0.2673 -0.267288,0 0,-0.2673 -0.267289,-0.26728 0,-0.26729 -0.267289,-0.53458 -0.267291,-0.26729 0,0 0,-0.2673 z" />
    <path
       inkscape:connector-curvature="0"
       id="path913"
       style="fill:#cccccc;fill-opacity:1;fill-rule:evenodd;stroke:#b9b9b9;stroke-width:0.18710279;stroke-linecap:butt;stroke-linejoin:bevel;stroke-miterlimit:10;stroke-dasharray:none;stroke-opacity:1"
       d="m 65.964384,110.04266 -0.267291,0.26728 -0.267289,0 -0.267289,0 0,-0.26728 0.267289,0 0.267289,0 0.53458,0 -0.267289,0 z" />
    <path
       inkscape:connector-curvature="0"
       id="path915"
       style="fill:#cccccc;fill-opacity:1;fill-rule:evenodd;stroke:#b9b9b9;stroke-width:0.18710279;stroke-linecap:butt;stroke-linejoin:bevel;stroke-miterlimit:10;stroke-dasharray:none;stroke-opacity:1"
       d="m 65.162515,116.45761 -0.267291,0.26729 -0.267289,0 0,0 -0.26729,0 0,0 -0.53458,-0.26729 -0.267289,0 0,0 0.53458,-0.26729 0,-0.26729 0,0.26729 -0.53458,0.26729 -0.267289,0 0.267289,-0.53458 -0.267289,-0.26729 0,-0.53457 -0.26729,0 0,-0.2673 0,-0.26729 -0.26729,-0.53458 -0.534579,-0.26729 -0.267291,0.26729 0,-0.26729 -0.801868,-0.26728 0,0 0,0 0,-0.2673 0,0 0,-0.26728 -0.26729,-0.26729 -0.534579,0 -0.267288,0 -0.267289,0.26729 0,0.26728 0.267289,0 0.267288,-0.26728 0.267289,0.26728 -0.267289,-0.26728 -0.267288,0.26728 -0.534579,0 -0.26729,0.53458 -0.53458,0.26729 0,0 0,0 0,0 -0.26729,0 -0.26729,0 -0.534579,0.2673 -0.267289,0.26728 0,0.53459 0,0 0.267289,0 0,0.26728 -0.267289,0 0,0 0,0 -0.267291,-0.26728 0,0 0,0 0.267291,0 0,0 0,-0.53459 0,0 -0.267291,-0.26728 -0.267289,0 -0.26729,0 0,-0.2673 -0.26729,-0.26729 -0.26729,-0.53458 0,-0.53457 0,-0.53458 0,-0.2673 0.26729,-0.53457 0.53458,-0.53458 0.53458,-0.26729 0.267289,0 0.267289,0 1.069161,-0.2673 0.267289,-0.26728 0.53458,0 0.534577,0 0.801869,0.26728 0,-0.26728 0,0 0,-0.26729 0.26729,-0.2673 0,-0.26728 0.267289,0 0.267289,0 -0.267289,0.26728 0.267289,0 -0.267289,0.2673 0,0 0,0 0,0 0,-0.2673 0,0 -0.267289,0 0,0.2673 -0.26729,0.53457 0.26729,0 0.267289,0 0.267289,0 0.267291,0 0,0 0,0 0.801869,0 0.534579,-0.26728 0,0 0.267289,0.26728 0,0 0.267291,0.2673 0,0.26729 0.267289,0 0,0 0.26729,0 0.267289,0 0.53458,-0.26729 0.267289,0.26729 0.80187,0 0,0 0,0.26728 0,0 0,-0.26728 0.267289,0.26728 0,0.53458 0,0 0.267291,0.26729 0.534578,0.53458 0.267288,0.53459 0,0.53458 0.267289,0 0.53458,0 0.26729,0 0.534579,0.26728 0,0 0.801869,0.53459 0.26729,0 0,0 0,0.26728 0.26729,0 0.534579,-0.53458 0.26729,0 0.267289,0 0,0 0.80187,0 0,0 0.267289,-0.26729 0.26729,0 0,0.53459 0,0.26728 0.26729,0 0,0 -0.26729,0.26729 0,0 -0.26729,0 0.26729,-0.26729 0,0 -0.26729,-0.26728 0,-0.2673 -0.267289,0 0,0.2673 -0.267291,-0.2673 -0.801868,0.2673 -0.26729,0 -0.26729,0.26728 -0.267289,0 0,0.26729 0.267289,0.2673 0,0 0,0.26728 0,0 0,0 0,0 -0.267289,0.26729 0.267289,0 0,-0.26729 -0.267289,0.26729 0,0.26729 -0.26729,0 -0.26729,0.26729 -0.26729,0.53458 -0.267289,0 -0.26729,0.26729 -0.26729,-0.26729 -0.534579,0.26729 -0.26729,0.26729 -0.534579,0 0,0.26729 -0.801866,0 -0.267291,0 -0.534579,0 -0.267289,0 0,0 -0.53458,-0.53458 0,0 0,0 -0.267289,-0.53458 0,0 z" />
    <path
       inkscape:connector-curvature="0"
       id="path929"
       style="fill:#cccccc;fill-opacity:1;fill-rule:evenodd;stroke:#b9b9b9;stroke-width:0.18710279;stroke-linecap:butt;stroke-linejoin:bevel;stroke-miterlimit:10;stroke-dasharray:none;stroke-opacity:1"
       d="m 62.489617,121.8034 0,-0.26728 -0.267289,0 0.267289,0 0,0 0,0.26728 0,0 0,0 z" />
    <path
       inkscape:connector-curvature="0"
       id="path949"
       style="fill:#cccccc;fill-opacity:1;fill-rule:evenodd;stroke:#b9b9b9;stroke-width:0.18710279;stroke-linecap:butt;stroke-linejoin:bevel;stroke-miterlimit:10;stroke-dasharray:none;stroke-opacity:1"
       d="m 82.001763,112.98285 -0.26729,0.26728 0,0 0.26729,0 0,0 -0.26729,0 0,0.2673 -0.267289,-0.2673 0,0 0,0 0.534579,-0.26728 z" />
  </g>
  <circle
     style="fill:#3498db;fill-opacity:1;stroke:none;stroke-width:1.27900004;stroke-miterlimit:4;stroke-dasharray:none;stroke-opacity:1"
     id="path4183"
     cx="104.6953"
     cy="111.69421"
     r="1.5553023" />
</svg>
